<?xml version="1.0" encoding="UTF-8"?>
<svg version="1.1" xmlns="http://www.w3.org/2000/svg" width="425" height="145" viewBox="16 177 425 145">
<path d="M0 0 C0.94140625 2.109375 0.94140625 2.109375 1.5625 4.75 C2.33997987 7.73738191 2.94698616 9.91305731 4.5625 12.5625 C6.35056033 15.59442838 6.79696798 18.44492764 7.45703125 21.875 C7.91993765 24.18407558 7.91993765 24.18407558 9.6875 26.5 C11.68016943 30.29556082 10.91459421 33.901263 10 38 C9.67 38.33 9.34 38.66 9 39 C8.84911926 43.52642225 8.89575128 47.58300512 10 52 C10.66 52 11.32 52 12 52 C12 52.66 12 53.32 12 54 C12.66 54 13.32 54 14 54 C14.99 56.475 14.99 56.475 16 59 C15.34 59 14.68 59 14 59 C14.495 61.97 14.495 61.97 15 65 C16.98 65.33 18.96 65.66 21 66 C21 66.99 21 67.98 21 69 C21.99386719 68.68417969 22.98773438 68.36835938 24.01171875 68.04296875 C27.93140805 66.92460864 31.73949083 66.56021043 35.8125 66.3125 C37.11832031 66.22613281 38.42414063 66.13976562 39.76953125 66.05078125 C43 66 43 66 45 67 C45 67.66 45 68.32 45 69 C46.98 69.66 48.96 70.32 51 71 C51 72.32 51 73.64 51 75 C51.598125 75.226875 52.19625 75.45375 52.8125 75.6875 C55.64378087 77.38626852 56.64722513 79.00965555 58 82 C57.75 84.0625 57.75 84.0625 57 86 C55.99130766 88.9252078 56.00488328 90.01878184 56.8125 93.125 C57.08973501 98.85452354 54.62863176 102.66646847 51 107 C47.625 108.625 47.625 108.625 45 109 C45.061875 109.928125 45.12375 110.85625 45.1875 111.8125 C45 115 45 115 43.625 116.875 C42 118 42 118 40 118 C39.505 119.98 39.505 119.98 39 122 C37.948125 121.95875 36.89625 121.9175 35.8125 121.875 C32.17935634 121.75882924 32.17935634 121.75882924 29.78125 122.96875 C26.07909309 124.34145987 22.60609018 124.45691034 18.6875 124.625 C17.94693359 124.66367187 17.20636719 124.70234375 16.44335938 124.7421875 C14.62928691 124.83581705 12.81467884 124.91896851 11 125 C10.20046862 121.71303767 9.90341064 120.28976808 11 117 C8.69 116.67 6.38 116.34 4 116 C3.67 115.01 3.34 114.02 3 113 C0.03 112.505 0.03 112.505 -3 112 C-3 113.32 -3 114.64 -3 116 C-4.43791516 115.85831863 -5.8753237 115.71148957 -7.3125 115.5625 C-8.51326172 115.44068359 -8.51326172 115.44068359 -9.73828125 115.31640625 C-12 115 -12 115 -15 114 C-18.12486016 113.69513559 -21.25028111 113.49158784 -24.3828125 113.28125 C-27 113 -27 113 -28 112 C-27.96751845 110.62396359 -27.89864861 109.2487211 -27.8125 107.875 C-27.73913172 102.73106818 -29.25124102 100.28483017 -32 96 C-32.67863055 94.0040278 -33.34641919 92.00431449 -34 90 C-36.04110482 85.91779036 -38.40840253 83.76276729 -42 81 C-42.66 80.01 -43.32 79.02 -44 78 C-48.95 78.495 -48.95 78.495 -54 79 C-54.34833144 74.12335991 -53.41685712 71.22949995 -51 67 C-50.34 67 -49.68 67 -49 67 C-48.7628125 66.41992188 -48.525625 65.83984375 -48.28125 65.2421875 C-46.73196742 62.53094298 -44.92285282 61.08373491 -42.5 59.125 C-37.70250428 54.9672169 -37.70250428 54.9672169 -36 49 C-36.36588235 46.72659616 -36.858547 44.55748138 -37.4921875 42.34375 C-38.13456934 39.37891076 -38.35562053 37.0267258 -38 34 C-36.03125 31.6640625 -36.03125 31.6640625 -33.5 29.625 C-32.6646875 28.93664062 -31.829375 28.24828125 -30.96875 27.5390625 C-30.3190625 27.03117187 -29.669375 26.52328125 -29 26 C-29.18433594 25.39671875 -29.36867188 24.7934375 -29.55859375 24.171875 C-30.14928756 21.26545235 -29.24204985 19.6302232 -28 17 C-27.01 17 -26.02 17 -25 17 C-25.0825 16.29875 -25.165 15.5975 -25.25 14.875 C-24.91553181 11.02861582 -23.36503039 8.99106784 -21 6 C-20.34 6 -19.68 6 -19 6 C-18.7525 5.38125 -18.505 4.7625 -18.25 4.125 C-16.73962191 1.55735724 -15.71957766 1.12351346 -13 0 C-10.78125 -0.44921875 -10.78125 -0.44921875 -8.5 -0.6875 C-7.37078125 -0.81705078 -7.37078125 -0.81705078 -6.21875 -0.94921875 C-3.82164234 -1.00408213 -2.19735999 -0.98763062 0 0 Z " fill="#F6F6F6" transform="translate(80,188)"/>
<path d="M0 0 C3.93711437 -0.14492719 7.87354625 -0.23394537 11.8125 -0.3125 C13.49182617 -0.3753418 13.49182617 -0.3753418 15.20507812 -0.43945312 C16.81479492 -0.46362305 16.81479492 -0.46362305 18.45703125 -0.48828125 C19.44678955 -0.51446533 20.43654785 -0.54064941 21.45629883 -0.56762695 C24 0 24 0 25.77075195 2.34643555 C27.10959606 5.23658383 28.27984944 8.13354846 29.375 11.125 C30.93584715 15.28104675 32.56379163 19.35044312 34.4375 23.375 C37.58115509 30.13285727 40.27657426 37.06509115 43 44 C46.24484356 37.35842658 48.8547069 30.67996031 51.1171875 23.64282227 C53.07697718 17.60861135 55.4935074 11.82209859 58 6 C58.66 4.35 59.32 2.7 60 1 C67.92 0.67 75.84 0.34 84 0 C84.495 0.99 84.495 0.99 85 2 C84.67 2.66 84.34 3.32 84 4 C82.02 4.33 80.04 4.66 78 5 C78 25.13 78 45.26 78 66 C79.98 66.33 81.96 66.66 84 67 C84 68.32 84 69.64 84 71 C73.77 71 63.54 71 53 71 C52.67 69.68 52.34 68.36 52 67 C53.4540625 66.5978125 53.4540625 66.5978125 54.9375 66.1875 C56.4534375 65.5996875 56.4534375 65.5996875 58 65 C58.93512434 62.19462697 59.12182907 60.51834636 59.11352539 57.62036133 C59.11344986 56.73967484 59.11337433 55.85898834 59.11329651 54.95161438 C59.10813522 54.00465195 59.10297394 53.05768951 59.09765625 52.08203125 C59.0962413 51.10965012 59.09482635 50.13726898 59.09336853 49.13542175 C59.08776817 46.02774996 59.07521562 42.92015004 59.0625 39.8125 C59.05748505 37.70638125 59.05292213 35.60026137 59.04882812 33.49414062 C59.03779862 28.32939936 59.02053375 23.16471187 59 18 C55.75582323 25.71304928 52.60056068 33.45352292 49.5625 41.25 C49.17707031 42.23637451 48.79164063 43.22274902 48.39453125 44.23901367 C45.79600465 50.9069412 43.24527667 57.59128059 40.76391602 64.30371094 C39.91865803 66.58606145 39.08942463 68.82115073 38 71 C37.01 71 36.02 71 35 71 C31.42211429 63.48766953 28.14778208 55.97821696 25.21484375 48.19140625 C22.1541992 40.15106351 18.72750035 32.27795679 15.11328125 24.47265625 C14.00546118 22.01212957 13.00216709 19.50541772 12 17 C11.67 32.51 11.34 48.02 11 64 C13.97 64.99 16.94 65.98 20 67 C19.67 68.32 19.34 69.64 19 71 C12.73 71 6.46 71 0 71 C-0.33 69.68 -0.66 68.36 -1 67 C0.98 66.01 2.96 65.02 5 64 C5.33 44.53 5.66 25.06 6 5 C3.69 4.34 1.38 3.68 -1 3 C-0.67 2.01 -0.34 1.02 0 0 Z " fill="#AF0202" transform="translate(290,191)"/>
<path d="M0 0 C10.23 0 20.46 0 31 0 C31 0.99 31 1.98 31 3 C29.02 3.33 27.04 3.66 25 4 C24.67 12.91 24.34 21.82 24 31 C25.98 30.67 27.96 30.34 30 30 C30 29.34 30 28.68 30 28 C31.28515625 26.7734375 31.28515625 26.7734375 33.0625 25.375 C37.8234115 21.42858252 43.01027922 16.96916233 45 11 C45.66 11 46.32 11 47 11 C46.97474816 8.08961458 46.97474816 8.08961458 46 5 C43.04928156 3.06530151 43.04928156 3.06530151 40 2 C40 1.34 40 0.68 40 0 C48.25 0 56.5 0 65 0 C64 3 64 3 62.2578125 4.1328125 C61.55398437 4.46023437 60.85015625 4.78765625 60.125 5.125 C59.42632812 5.45757812 58.72765625 5.79015625 58.0078125 6.1328125 C56 7 56 7 53 8 C52.28293025 9.30691744 51.62469505 10.64649406 51 12 C49.87000485 13.60971007 48.7011076 15.19263168 47.5 16.75 C46.8915625 17.54921875 46.283125 18.3484375 45.65625 19.171875 C45.1096875 19.77515625 44.563125 20.3784375 44 21 C43.34 21 42.68 21 42 21 C40.60264182 23.15424056 40.60264182 23.15424056 40 26 C41.82053354 29.14748615 41.82053354 29.14748615 44 32 C44 32.99 44 33.98 44 35 C44.66 35 45.32 35 46 35 C47.6404154 37.24150624 49.14662087 39.4678831 50.625 41.8125 C51.04523438 42.45509766 51.46546875 43.09769531 51.8984375 43.75976562 C55 48.61854454 55 48.61854454 55 52 C55.66 52 56.32 52 57 52 C57.66 53.98 58.32 55.96 59 58 C59.66 58 60.32 58 61 58 C61.639375 58.969375 62.27875 59.93875 62.9375 60.9375 C64.71061007 64.24255225 64.71061007 64.24255225 68 65 C68 66.65 68 68.3 68 70 C58.76 70 49.52 70 40 70 C39.67 68.68 39.34 67.36 39 66 C41.475 65.01 41.475 65.01 44 64 C43.13375 62.75283203 43.13375 62.75283203 42.25 61.48046875 C41.5075 60.39378906 40.765 59.30710938 40 58.1875 C39.2575 57.10855469 38.515 56.02960938 37.75 54.91796875 C36 52 36 52 36 49 C35.34 49 34.68 49 34 49 C33.52820313 48.09507812 33.52820313 48.09507812 33.046875 47.171875 C32.61890625 46.37265625 32.1909375 45.5734375 31.75 44.75 C31.33234375 43.96109375 30.9146875 43.1721875 30.484375 42.359375 C28.82644633 39.5304947 28.82644633 39.5304947 25 36 C25 45.57 25 55.14 25 65 C26.98 65.33 28.96 65.66 31 66 C30.67 67.32 30.34 68.64 30 70 C20.43 70 10.86 70 1 70 C0.67 68.68 0.34 67.36 0 66 C2.97 65.505 2.97 65.505 6 65 C6.78124578 61.54429969 7.12620421 58.35439084 7.12939453 54.81420898 C7.13254669 53.80643906 7.13569885 52.79866913 7.13894653 51.76036072 C7.13591019 50.14454857 7.13591019 50.14454857 7.1328125 48.49609375 C7.13376923 47.38065689 7.13472595 46.26522003 7.13571167 45.11598206 C7.13639123 42.76164697 7.13455257 40.40730999 7.13037109 38.05297852 C7.12501469 34.44738568 7.1303263 30.84191712 7.13671875 27.23632812 C7.13605803 24.94791639 7.13477699 22.65950474 7.1328125 20.37109375 C7.13483673 19.29186142 7.13686096 18.21262909 7.13894653 17.10069275 C7.13579437 16.09607498 7.13264221 15.09145721 7.12939453 14.05639648 C7.12859894 13.17435043 7.12780334 12.29230438 7.12698364 11.38352966 C7.00323314 9.06068731 6.82881764 7.17520676 6 5 C3.01647106 3.21620585 3.01647106 3.21620585 0 2 C0 1.34 0 0.68 0 0 Z " fill="#F0F0F0" transform="translate(158,192)"/>
<path d="M0 0 C4.67167909 4.80515564 4.46641166 10.62598422 4.3828125 16.9296875 C4.3799826 17.74245148 4.37715271 18.55521545 4.37423706 19.39260864 C4.36310619 21.97022675 4.33801515 24.54748819 4.3125 27.125 C4.30246101 28.88020329 4.29333677 30.63541206 4.28515625 32.390625 C4.26319015 36.67721926 4.22870978 40.9635493 4.1875 45.25 C5.1775 45.25 6.1675 45.25 7.1875 45.25 C7.1875 44.59 7.1875 43.93 7.1875 43.25 C8.1775 43.58 9.1675 43.91 10.1875 44.25 C10 46.125 10 46.125 9.1875 48.25 C4.83536061 51.05783186 -0.80693822 50.80346049 -5.8125 50.25 C-9.11311649 48.99824563 -9.768571 48.31589351 -11.8125 45.25 C-12.988125 46.2090625 -12.988125 46.2090625 -14.1875 47.1875 C-17.83597501 50.05415893 -19.60707614 50.40680011 -24.1875 50.4375 C-25.14398438 50.45167969 -26.10046875 50.46585937 -27.0859375 50.48046875 C-29.84260017 50.24745572 -31.46197395 49.65920164 -33.8125 48.25 C-33.8125 47.59 -33.8125 46.93 -33.8125 46.25 C-34.4725 46.25 -35.1325 46.25 -35.8125 46.25 C-38.43012822 41.65859566 -38.68934022 37.42335728 -37.8125 32.25 C-34.9946898 26.38141104 -30.11962178 24.10618213 -24.21484375 22.01953125 C-23.42207031 21.76558594 -22.62929688 21.51164062 -21.8125 21.25 C-18.31656376 20.10587541 -15.8816764 19.2961176 -12.8125 17.25 C-12.22562216 13.90386488 -12.22562216 13.90386488 -12.125 10.125 C-12.05925781 8.84367188 -11.99351562 7.56234375 -11.92578125 6.2421875 C-11.88839844 5.25476563 -11.85101563 4.26734375 -11.8125 3.25 C-12.4725 3.25 -13.1325 3.25 -13.8125 3.25 C-13.8125 2.59 -13.8125 1.93 -13.8125 1.25 C-16.1225 1.25 -18.4325 1.25 -20.8125 1.25 C-20.99740007 3.57357511 -20.99740007 3.57357511 -18.8125 6.25 C-18.46743781 9.49358463 -18.50716365 11.58544441 -19.875 14.5625 C-22.73931709 17.05722779 -25.07193847 17.12101512 -28.8125 17.25 C-31.79988539 16.51975024 -33.24630875 15.94487108 -35.1875 13.5625 C-36.2356576 9.68431689 -35.60095894 5.82691788 -33.8125 2.25 C-33.1525 2.25 -32.4925 2.25 -31.8125 2.25 C-31.8125 1.59 -31.8125 0.93 -31.8125 0.25 C-21.64428889 -4.42737711 -9.98534032 -6.21310064 0 0 Z M-20.8125 29.25 C-22.71314554 32.36705869 -22.84341586 33.73473566 -22.625 37.375 C-21.80250729 40.28535881 -21.15464105 41.41702005 -18.8125 43.25 C-15.26731116 41.85240095 -15.26731116 41.85240095 -11.8125 40.25 C-11.8125 34.31 -11.8125 28.37 -11.8125 22.25 C-14.90303797 22.25 -18.72631481 27.18112755 -20.8125 29.25 Z " fill="#AA0203" transform="translate(421.8125,211.75)"/>
<path d="M0 0 C4.20503055 5.68915898 4.4207441 12.25969773 4.3203125 19.09375 C4.3174826 19.83709595 4.31465271 20.58044189 4.31173706 21.34631348 C4.30066157 23.68938217 4.27558228 26.03204947 4.25 28.375 C4.23995381 29.97655693 4.23083085 31.57811993 4.22265625 33.1796875 C4.2007639 37.0782765 4.16632386 40.97657052 4.125 44.875 C5.115 44.875 6.105 44.875 7.125 44.875 C7.125 44.215 7.125 43.555 7.125 42.875 C7.785 42.875 8.445 42.875 9.125 42.875 C9.455 43.865 9.785 44.855 10.125 45.875 C9.125 47.875 9.125 47.875 6.90625 48.97265625 C2.32609548 50.45863335 -2.12311304 50.60879964 -6.875 49.875 C-9.23163599 48.42670336 -10.22237146 47.15448765 -11.875 44.875 C-13.36 45.37 -13.36 45.37 -14.875 45.875 C-14.875 46.535 -14.875 47.195 -14.875 47.875 C-19.65774612 50.68177589 -24.47556198 50.52355768 -29.875 49.875 C-33.78575925 47.88531547 -35.45189098 46.50966354 -37.875 42.875 C-38.140625 40.31640625 -38.140625 40.31640625 -38.125 37.4375 C-38.13015625 36.49003906 -38.1353125 35.54257813 -38.140625 34.56640625 C-37.79279492 31.04206909 -37.02893299 28.89282808 -34.3515625 26.53125 C-29.30050934 23.37700583 -24.20917828 21.48387567 -18.51171875 19.76953125 C-15.6920486 18.93934947 -15.6920486 18.93934947 -12.875 16.875 C-12.47097775 13.85275567 -12.47097775 13.85275567 -12.625 10.4375 C-12.64046875 9.28378906 -12.6559375 8.13007813 -12.671875 6.94140625 C-12.74786828 3.83501025 -12.74786828 3.83501025 -13.875 0.875 C-16.515 0.875 -19.155 0.875 -21.875 0.875 C-21.359375 1.761875 -20.84375 2.64875 -20.3125 3.5625 C-18.75750542 7.14574838 -18.55226906 8.2847303 -19.875 11.875 C-21.0625 14.125 -21.0625 14.125 -22.875 15.875 C-26.22005326 16.89305969 -28.24645167 17.04642227 -31.625 16.125 C-33.875 14.875 -33.875 14.875 -35.875 11.875 C-36.3125 8.5 -36.3125 8.5 -35.875 4.875 C-32.20032943 0.11954397 -27.81268915 -2.42250912 -22 -3.8125 C-14.11607434 -4.60089257 -6.58551592 -4.86755525 0 0 Z M-14.875 22.875 C-14.875 23.535 -14.875 24.195 -14.875 24.875 C-15.638125 25.101875 -16.40125 25.32875 -17.1875 25.5625 C-20.55939721 27.2092405 -21.42204383 28.43378802 -22.875 31.875 C-23.45842353 35.41730809 -23.45842353 35.41730809 -22.875 38.875 C-21.02079161 41.31598818 -21.02079161 41.31598818 -18.875 42.875 C-15.95982708 41.80098892 -14.09689824 41.09689824 -11.875 38.875 C-11.72982256 35.9656442 -11.68869204 33.155054 -11.75 30.25 C-11.75902344 29.44820312 -11.76804687 28.64640625 -11.77734375 27.8203125 C-11.80093777 25.83841477 -11.83680935 23.85667019 -11.875 21.875 C-13.0986068 21.8004644 -13.0986068 21.8004644 -14.875 22.875 Z " fill="#E9E9E9" transform="translate(270.875,212.125)"/>
<path d="M0 0 C43.56 0 87.12 0 132 0 C132 2.31 132 4.62 132 7 C88.44 7 44.88 7 0 7 C0 4.69 0 2.38 0 0 Z " fill="#E9E9E9" transform="translate(298,275)"/>
<path d="M0 0 C43.23 0 86.46 0 131 0 C131 2.31 131 4.62 131 7 C87.77 7 44.54 7 0 7 C-1 4 -1 4 0 0 Z " fill="#A20607" transform="translate(153,275)"/>
<path d="M0 0 C1.32 0.33 2.64 0.66 4 1 C4.495 6.94 4.495 6.94 5 13 C5.66 13 6.32 13 7 13 C6.505 10.525 6.505 10.525 6 8 C8.31 8.33 10.62 8.66 13 9 C13 9.66 13 10.32 13 11 C12.0409375 11.7115625 12.0409375 11.7115625 11.0625 12.4375 C8.71627037 13.9091365 8.71627037 13.9091365 8 17 C8.66 17 9.32 17 10 17 C14 22.41176471 14 22.41176471 14 25 C11.69 25 9.38 25 7 25 C6.34 23.35 5.68 21.7 5 20 C5.495 22.475 5.495 22.475 6 25 C0.72 25 -4.56 25 -10 25 C-9.505 23.515 -9.505 23.515 -9 22 C-8.77820215 20.10787263 -8.59385985 18.21115528 -8.4375 16.3125 C-8.35371094 15.31863281 -8.26992187 14.32476562 -8.18359375 13.30078125 C-8.09271484 12.16189453 -8.09271484 12.16189453 -8 11 C-8.66 11 -9.32 11 -10 11 C-10.33 11.99 -10.66 12.98 -11 14 C-12.32 13.67 -13.64 13.34 -15 13 C-15 15.97 -15 18.94 -15 22 C-14.34 22.33 -13.68 22.66 -13 23 C-13 23.66 -13 24.32 -13 25 C-21.58 25 -30.16 25 -39 25 C-39 22.36 -39 19.72 -39 17 C-40.98 17.33 -42.96 17.66 -45 18 C-45.33 19.65 -45.66 21.3 -46 23 C-45.34 23 -44.68 23 -44 23 C-44 23.66 -44 24.32 -44 25 C-46.31 25 -48.62 25 -51 25 C-49.51618594 20.00898907 -47.40972526 15.39285459 -45.21875 10.68359375 C-44.06732127 8.14823626 -43.01294804 5.59333456 -42 3 C-41.01 3.33 -40.02 3.66 -39 4 C-38.03348583 6.46932585 -37.23121604 8.83697271 -36.5 11.375 C-35.22134236 15.763683 -34.34541341 18.65458659 -31 22 C-30.67 18.04 -30.34 14.08 -30 10 C-30.66 10 -31.32 10 -32 10 C-32 9.34 -32 8.68 -32 8 C-31.34 8 -30.68 8 -30 8 C-29.896875 7.21625 -29.79375 6.4325 -29.6875 5.625 C-29 3 -29 3 -26 1 C-22.8125 1.375 -22.8125 1.375 -20 2 C-20.33 3.65 -20.66 5.3 -21 7 C-22.32 6.67 -23.64 6.34 -25 6 C-25.33 6.66 -25.66 7.32 -26 8 C-18.74 8 -11.48 8 -4 8 C-3.505 14.93 -3.505 14.93 -3 22 C-2.34 22 -1.68 22 -1 22 C-0.67 15.73 -0.34 9.46 0 3 C-0.66 2.67 -1.32 2.34 -2 2 C-1.34 1.34 -0.68 0.68 0 0 Z M-26 10 C-26 13.96 -26 17.92 -26 22 C-23.525 22.495 -23.525 22.495 -21 23 C-21 19.04 -21 15.08 -21 11 C-22.65 10.67 -24.3 10.34 -26 10 Z M-43 11 C-43.33 12.32 -43.66 13.64 -44 15 C-43.01 15 -42.02 15 -41 15 C-41 13.68 -41 12.36 -41 11 C-41.66 11 -42.32 11 -43 11 Z " fill="#656565" transform="translate(207,283)"/>
<path d="M0 0 C0 7.26 0 14.52 0 22 C0.99 22 1.98 22 3 22 C3 17.71 3 13.42 3 9 C2.34 8.67 1.68 8.34 1 8 C4.01031744 7.06576355 4.86650268 6.95550089 8 8 C8.495 14.435 8.495 14.435 9 21 C9.66 21 10.32 21 11 21 C11.33 17.37 11.66 13.74 12 10 C11.34 10 10.68 10 10 10 C10.33 9.01 10.66 8.02 11 7 C12.95766281 6.91917906 14.91626728 6.86089222 16.875 6.8125 C18.51082031 6.76029297 18.51082031 6.76029297 20.1796875 6.70703125 C21.11039062 6.80371094 22.04109375 6.90039062 23 7 C25.17652339 10.26478508 25.32108176 11.67840059 25.5625 15.5 C25.76817016 18.62282857 26.00550945 21.01652836 27 24 C24.36 24 21.72 24 19 24 C19.495 22.515 19.495 22.515 20 21 C20.22179785 19.10787263 20.40614015 17.21115528 20.5625 15.3125 C20.64628906 14.31863281 20.73007812 13.32476562 20.81640625 12.30078125 C20.90728516 11.16189453 20.90728516 11.16189453 21 10 C17.88214887 10.64644661 17.88214887 10.64644661 17 13 C16.78622279 18.60703213 16.78622279 18.60703213 18 24 C7.44 24 -3.12 24 -14 24 C-13.67 23.01 -13.34 22.02 -13 21 C-12.93197033 19.27204648 -12.91504355 17.54164635 -12.9375 15.8125 C-12.94652344 14.91144531 -12.95554687 14.01039063 -12.96484375 13.08203125 C-12.97644531 12.39496094 -12.98804688 11.70789063 -13 11 C-14.32 11 -15.64 11 -17 11 C-17 14.63 -17 18.26 -17 22 C-16.34 22 -15.68 22 -15 22 C-15 22.66 -15 23.32 -15 24 C-17.64 24 -20.28 24 -23 24 C-22.835 23.484375 -22.67 22.96875 -22.5 22.4375 C-21.42573817 17.20047358 -21.66208914 12.82194115 -24 8 C-21.10441295 7.18211209 -18.44535913 6.81107328 -15.4375 6.75 C-14.67308594 6.72421875 -13.90867187 6.6984375 -13.12109375 6.671875 C-11 7 -11 7 -9.234375 8.12890625 C-7.44375801 10.84316429 -7.70883826 12.97398602 -7.8125 16.1875 C-7.83957031 17.27417969 -7.86664063 18.36085938 -7.89453125 19.48046875 C-7.92933594 20.31191406 -7.96414063 21.14335937 -8 22 C-7.01 22 -6.02 22 -5 22 C-5 15.4 -5 8.8 -5 2 C-5.66 1.67 -6.32 1.34 -7 1 C-4.50935112 0.31292445 -2.62113708 0 0 0 Z " fill="#8D8E8E" transform="translate(288,284)"/>
<path d="M0 0 C1.77049689 -0.05410687 3.54146849 -0.09284119 5.3125 -0.125 C6.29863281 -0.14820313 7.28476562 -0.17140625 8.30078125 -0.1953125 C11 0 11 0 14 2 C14.66 1.34 15.32 0.68 16 0 C19.5 -0.25 19.5 -0.25 23 0 C25 2 25 2 25.1953125 4.8203125 C25.17210937 5.91085937 25.14890625 7.00140625 25.125 8.125 C25.10695313 9.22070312 25.08890625 10.31640625 25.0703125 11.4453125 C25.04710937 12.28835938 25.02390625 13.13140625 25 14 C25.99 14 26.98 14 28 14 C28.33 10.37 28.66 6.74 29 3 C28.34 3 27.68 3 27 3 C27 2.01 27 1.02 27 0 C33.27 0 39.54 0 46 0 C46 0.99 46 1.98 46 3 C46.3062434 4.33981486 46.63451555 5.67511887 47 7 C48.4606285 4.35261084 49 3.10551666 49 0 C50.65 0 52.3 0 54 0 C53.01308139 4.17573655 51.56003684 8.11002114 50.0625 12.125 C49.79759766 12.85332031 49.53269531 13.58164062 49.25976562 14.33203125 C47.23692931 19.76307069 47.23692931 19.76307069 45 22 C42.375 21.625 42.375 21.625 40 21 C40 20.01 40 19.02 40 18 C41.65 18 43.3 18 45 18 C44.71125 17.24074219 44.4225 16.48148437 44.125 15.69921875 C43.75375 14.70535156 43.3825 13.71148437 43 12.6875 C42.62875 11.70136719 42.2575 10.71523438 41.875 9.69921875 C41 7 41 7 41 4 C40.34 4 39.68 4 39 4 C39 4.66 39 5.32 39 6 C37.35 6 35.7 6 34 6 C34 8.64 34 11.28 34 14 C34.66 14.33 35.32 14.66 36 15 C36 15.66 36 16.32 36 17 C30.66666667 17 25.33333333 17 20 17 C18.7625 17.061875 18.7625 17.061875 17.5 17.125 C15 17 15 17 13 15 C12.5625 12.5625 12.5625 12.5625 13 10 C15.86103423 7.75756777 17.34076304 7 21 7 C20.34 5.68 19.68 4.36 19 3 C18.67 3.99 18.34 4.98 18 6 C15.03 6 12.06 6 9 6 C8.67 5.34 8.34 4.68 8 4 C6.85647084 6.28705831 6.89665561 7.59264762 6.9375 10.125 C6.958125 11.40375 6.97875 12.6825 7 14 C7.66 14.33 8.32 14.66 9 15 C9 15.66 9 16.32 9 17 C6.03 17 3.06 17 0 17 C0 16.34 0 15.68 0 15 C0.66 15 1.32 15 2 15 C1.85879286 13.06215735 1.71187127 11.12473045 1.5625 9.1875 C1.48128906 8.10855469 1.40007812 7.02960938 1.31640625 5.91796875 C1.09787539 2.94010095 1.09787539 2.94010095 0 0 Z M18 10 C17.67 11.32 17.34 12.64 17 14 C18.32 13.67 19.64 13.34 21 13 C21 12.01 21 11.02 21 10 C20.01 10 19.02 10 18 10 Z " fill="#B8BAB9" transform="translate(377,291)"/>
<path d="M0 0 C0.66 1.32 1.32 2.64 2 4 C0.02 4.99 0.02 4.99 -2 6 C-2 6.66 -2 7.32 -2 8 C-2.78375 8.45375 -3.5675 8.9075 -4.375 9.375 C-7.24060826 11.14894797 -8.03054083 11.82722453 -9 15 C-9.54941131 19.80613217 -9.54941131 19.80613217 -7.5 23.9375 C-6.7575 24.4634375 -6.7575 24.4634375 -6 25 C-2.75016865 23.91215032 -2.75016865 23.91215032 0 22 C0.23363881 20.15108054 0.41303635 18.29511969 0.5625 16.4375 C0.64628906 15.42558594 0.73007812 14.41367188 0.81640625 13.37109375 C0.90728516 12.19740234 0.90728516 12.19740234 1 11 C1.33 11 1.66 11 2 11 C2.05389087 12.95803507 2.09274217 14.91648909 2.125 16.875 C2.14820313 17.96554688 2.17140625 19.05609375 2.1953125 20.1796875 C2 23 2 23 0 25 C0.66 25.33 1.32 25.66 2 26 C1.67 26.66 1.34 27.32 1 28 C0.01 28.33 -0.98 28.66 -2 29 C-2 29.66 -2 30.32 -2 31 C-6.78274612 33.80677589 -11.60056198 33.64855768 -17 33 C-20.91075925 31.01031547 -22.57689098 29.63466354 -25 26 C-25.265625 23.44140625 -25.265625 23.44140625 -25.25 20.5625 C-25.25515625 19.61503906 -25.2603125 18.66757813 -25.265625 17.69140625 C-24.91779492 14.16706909 -24.15393299 12.01782808 -21.4765625 9.65625 C-16.42550934 6.50200583 -11.33417828 4.60887567 -5.63671875 2.89453125 C-2.8170486 2.06434947 -2.8170486 2.06434947 0 0 Z " fill="#DBDBDB" transform="translate(258,229)"/>
<path d="M0 0 C3.93711437 -0.14492719 7.87354625 -0.23394537 11.8125 -0.3125 C13.49182617 -0.3753418 13.49182617 -0.3753418 15.20507812 -0.43945312 C16.81479492 -0.46362305 16.81479492 -0.46362305 18.45703125 -0.48828125 C19.44678955 -0.51446533 20.43654785 -0.54064941 21.45629883 -0.56762695 C24 0 24 0 25.90893555 2.40551758 C26.26898682 3.26169678 26.62903809 4.11787598 27 5 C26.67 5.66 26.34 6.32 26 7 C25.34 6.34 24.68 5.68 24 5 C24 4.01 24 3.02 24 2 C19.38 2 14.76 2 10 2 C9.67 4.64 9.34 7.28 9 10 C10.32 10.33 11.64 10.66 13 11 C13.33 13.31 13.66 15.62 14 18 C13.34 17.67 12.68 17.34 12 17 C11.67 32.51 11.34 48.02 11 64 C13.97 64.99 16.94 65.98 20 67 C19.67 68.32 19.34 69.64 19 71 C12.73 71 6.46 71 0 71 C-0.33 69.68 -0.66 68.36 -1 67 C0.98 66.01 2.96 65.02 5 64 C5.33 44.53 5.66 25.06 6 5 C3.69 4.34 1.38 3.68 -1 3 C-0.67 2.01 -0.34 1.02 0 0 Z " fill="#6F0808" transform="translate(290,191)"/>
<path d="M0 0 C0.928125 0.20625 1.85625 0.4125 2.8125 0.625 C2.4825 2.275 2.1525 3.925 1.8125 5.625 C0.4925 5.295 -0.8275 4.965 -2.1875 4.625 C-2.5175 5.285 -2.8475 5.945 -3.1875 6.625 C-0.8775 6.955 1.4325 7.285 3.8125 7.625 C2.8225 8.285 1.8325 8.945 0.8125 9.625 C-0.5075 9.295 -1.8275 8.965 -3.1875 8.625 C-2.8575 12.585 -2.5275 16.545 -2.1875 20.625 C0.69461302 21.58570434 2.51100044 21.73081883 5.5 21.6875 C6.30824219 21.67847656 7.11648437 21.66945313 7.94921875 21.66015625 C8.56410156 21.64855469 9.17898437 21.63695312 9.8125 21.625 C9.8125 22.285 9.8125 22.945 9.8125 23.625 C1.2325 23.625 -7.3475 23.625 -16.1875 23.625 C-16.1875 20.985 -16.1875 18.345 -16.1875 15.625 C-18.1675 15.955 -20.1475 16.285 -22.1875 16.625 C-22.5175 18.275 -22.8475 19.925 -23.1875 21.625 C-22.5275 21.625 -21.8675 21.625 -21.1875 21.625 C-21.1875 22.285 -21.1875 22.945 -21.1875 23.625 C-23.4975 23.625 -25.8075 23.625 -28.1875 23.625 C-26.70368594 18.63398907 -24.59722526 14.01785459 -22.40625 9.30859375 C-21.25482127 6.77323626 -20.20044804 4.21833456 -19.1875 1.625 C-18.1975 1.955 -17.2075 2.285 -16.1875 2.625 C-15.22098583 5.09432585 -14.41871604 7.46197271 -13.6875 10 C-12.40884236 14.388683 -11.53291341 17.27958659 -8.1875 20.625 C-7.8575 16.665 -7.5275 12.705 -7.1875 8.625 C-7.8475 8.625 -8.5075 8.625 -9.1875 8.625 C-9.1875 7.965 -9.1875 7.305 -9.1875 6.625 C-8.5275 6.625 -7.8675 6.625 -7.1875 6.625 C-7.084375 5.84125 -6.98125 5.0575 -6.875 4.25 C-5.79554967 0.12846237 -4.09660421 -0.48195344 0 0 Z M-20.1875 9.625 C-20.5175 10.945 -20.8475 12.265 -21.1875 13.625 C-20.1975 13.625 -19.2075 13.625 -18.1875 13.625 C-18.1875 12.305 -18.1875 10.985 -18.1875 9.625 C-18.8475 9.625 -19.5075 9.625 -20.1875 9.625 Z " fill="#8A8A8B" transform="translate(184.1875,284.375)"/>
<path d="M0 0 C0 0.66 0 1.32 0 2 C-0.99 2 -1.98 2 -3 2 C-3.95619733 5.99795892 -4.1039592 9.70803922 -4.0625 13.8125 C-4.04896484 15.55466797 -4.04896484 15.55466797 -4.03515625 17.33203125 C-4.02355469 18.21246094 -4.01195312 19.09289062 -4 20 C-1.69 20.33 0.62 20.66 3 21 C2.34 21.33 1.68 21.66 1 22 C1 22.99 1 23.98 1 25 C-0.58323688 25.027193 -2.16661062 25.04648306 -3.75 25.0625 C-5.07257813 25.07990234 -5.07257813 25.07990234 -6.421875 25.09765625 C-12.05059338 24.88444722 -12.05059338 24.88444722 -14.484375 22.6171875 C-17.61725631 18.304641 -18.71167459 15.49006116 -18 10 C-16.98087808 6.55066427 -15.85533442 4.22081566 -13 2 C-8.63308079 -0.37061328 -4.84821346 -0.16434622 0 0 Z " fill="#B00202" transform="translate(403,235)"/>
<path d="M0 0 C1.95137039 3.27811862 2.24443864 5.71237637 2.22705078 9.50292969 C2.22689972 10.60376892 2.22674866 11.70460815 2.22659302 12.83880615 C2.21627045 14.02121887 2.20594788 15.20363159 2.1953125 16.421875 C2.1924826 17.63699768 2.18965271 18.85212036 2.18673706 20.10406494 C2.17553954 23.98614335 2.15043534 27.86799129 2.125 31.75 C2.11496966 34.38150709 2.10584391 37.01301779 2.09765625 39.64453125 C2.07560157 46.09643284 2.04212804 52.54819995 2 59 C1.67 59 1.34 59 1 59 C0.67 44.48 0.34 29.96 0 15 C-3.26331455 22.83195492 -6.48025498 30.66054899 -9.5625 38.5625 C-9.93568359 39.51318359 -10.30886719 40.46386719 -10.69335938 41.44335938 C-13.22795627 47.92751944 -15.64911941 54.44707003 -18 61 C-19.35015859 56.94952424 -18.62084998 54.2079832 -18 50 C-17.34 50 -16.68 50 -16 50 C-16 48.68 -16 47.36 -16 46 C-16.33 45.67 -16.66 45.34 -17 45 C-20.089914 38.70132916 -20.089914 38.70132916 -19.6875 35.5625 C-19.460625 35.046875 -19.23375 34.53125 -19 34 C-18.01 36.31 -17.02 38.62 -16 41 C-12.75596464 34.36008082 -10.14436782 27.68360583 -7.88500977 20.6472168 C-6.19437396 15.4366999 -4.1856259 10.41733595 -2.015625 5.390625 C-0.93081389 2.92560239 -0.93081389 2.92560239 0 0 Z " fill="#770808" transform="translate(349,194)"/>
<path d="M0 0 C-1.98 0.99 -1.98 0.99 -4 2 C-3.67 2.99 -3.34 3.98 -3 5 C-5.64 5 -8.28 5 -11 5 C-10.484375 5.886875 -9.96875 6.77375 -9.4375 7.6875 C-7.88250542 11.27074838 -7.67726906 12.4097303 -9 16 C-10.1875 18.25 -10.1875 18.25 -12 20 C-15.34505326 21.01805969 -17.37145167 21.17142227 -20.75 20.25 C-23 19 -23 19 -25 16 C-25.4375 12.625 -25.4375 12.625 -25 9 C-21.32532943 4.24454397 -16.93768915 1.70249088 -11.125 0.3125 C-7.38380662 -0.06161934 -3.75916415 -0.06481317 0 0 Z " fill="#E5E5E5" transform="translate(260,208)"/>
<path d="M0 0 C2.5 0.125 2.5 0.125 3.5 1.125 C3.73481693 3.30792774 3.91363323 5.49703174 4.0625 7.6875 C4.14628906 8.88503906 4.23007812 10.08257812 4.31640625 11.31640625 C4.37699219 12.24324219 4.43757813 13.17007812 4.5 14.125 C5.16 14.125 5.82 14.125 6.5 14.125 C6.83 10.495 7.16 6.865 7.5 3.125 C6.84 3.125 6.18 3.125 5.5 3.125 C5.83 2.135 6.16 1.145 6.5 0.125 C8.45766281 0.04417906 10.41626728 -0.01410778 12.375 -0.0625 C14.01082031 -0.11470703 14.01082031 -0.11470703 15.6796875 -0.16796875 C16.61039062 -0.07128906 17.54109375 0.02539062 18.5 0.125 C20.67652339 3.38978508 20.82108176 4.80340059 21.0625 8.625 C21.26817016 11.74782857 21.50550945 14.14152836 22.5 17.125 C19.86 17.125 17.22 17.125 14.5 17.125 C14.83 16.135 15.16 15.145 15.5 14.125 C15.72179785 12.23287263 15.90614015 10.33615528 16.0625 8.4375 C16.14628906 7.44363281 16.23007812 6.44976562 16.31640625 5.42578125 C16.37699219 4.66652344 16.43757813 3.90726562 16.5 3.125 C13.38214887 3.77144661 13.38214887 3.77144661 12.5 6.125 C12.43003986 7.83202735 12.41559846 9.54168003 12.4375 11.25 C12.458125 12.85875 12.47875 14.4675 12.5 16.125 C7.55 16.125 2.6 16.125 -2.5 16.125 C-2.17 11.505 -1.84 6.885 -1.5 2.125 C-2.16 1.795 -2.82 1.465 -3.5 1.125 C-2.5 0.125 -2.5 0.125 0 0 Z " fill="#B2B2B2" transform="translate(292.5,290.875)"/>
<path d="M0 0 C2.64 0 5.28 0 8 0 C8 0.66 8 1.32 8 2 C7.34 2 6.68 2 6 2 C6.33 7.61 6.66 13.22 7 19 C8.65 18.67 10.3 18.34 12 18 C12.33 16.68 12.66 15.36 13 14 C13.99 14 14.98 14 16 14 C16.33 15.65 16.66 17.3 17 19 C17.027193 17.41676312 17.04648306 15.83338938 17.0625 14.25 C17.07410156 13.36828125 17.08570313 12.4865625 17.09765625 11.578125 C17.00826198 9.2181162 16.66912821 7.25501476 16 5 C17.98 5 19.96 5 22 5 C22.06058594 5.97582031 22.12117188 6.95164062 22.18359375 7.95703125 C22.30927734 9.86548828 22.30927734 9.86548828 22.4375 11.8125 C22.51871094 13.07707031 22.59992188 14.34164063 22.68359375 15.64453125 C22.87184547 18.99181893 22.87184547 18.99181893 24 22 C16.08 22 8.16 22 0 22 C0.495 20.515 0.495 20.515 1 19 C1.14403348 17.66636297 1.24590423 16.32781954 1.31640625 14.98828125 C1.35830078 14.23095703 1.40019531 13.47363281 1.44335938 12.69335938 C1.48267578 11.90767578 1.52199219 11.12199219 1.5625 10.3125 C1.60568359 9.51521484 1.64886719 8.71792969 1.69335938 7.89648438 C1.79927368 5.93118553 1.90012551 3.96561504 2 2 C1.34 2 0.68 2 0 2 C0 1.34 0 0.68 0 0 Z " fill="#BFC0C0" transform="translate(337,286)"/>
<path d="M0 0 C8.25 0 16.5 0 25 0 C24 3 24 3 22.2578125 4.1328125 C21.55398437 4.46023437 20.85015625 4.78765625 20.125 5.125 C19.42632812 5.45757812 18.72765625 5.79015625 18.0078125 6.1328125 C16 7 16 7 13 8 C12.28293025 9.30691744 11.62469505 10.64649406 11 12 C9.87000485 13.60971007 8.7011076 15.19263168 7.5 16.75 C6.8915625 17.54921875 6.283125 18.3484375 5.65625 19.171875 C5.1096875 19.77515625 4.563125 20.3784375 4 21 C3.34 21 2.68 21 2 21 C1.34 22.32 0.68 23.64 0 25 C-3 25 -3 25 -5 24 C-4.36191406 23.31292969 -3.72382813 22.62585938 -3.06640625 21.91796875 C-2.24011719 21.01691406 -1.41382813 20.11585938 -0.5625 19.1875 C0.26121094 18.29417969 1.08492187 17.40085938 1.93359375 16.48046875 C4.16719088 14.10551917 4.16719088 14.10551917 5 11 C5.66 11 6.32 11 7 11 C6.97474816 8.08961458 6.97474816 8.08961458 6 5 C3.04928156 3.06530151 3.04928156 3.06530151 0 2 C0 1.34 0 0.68 0 0 Z " fill="#D4D4D4" transform="translate(198,192)"/>
<path d="M0 0 C0.99 0 1.98 0 3 0 C3.05394705 2.60444348 3.09364469 5.20776998 3.125 7.8125 C3.14175781 8.55048828 3.15851563 9.28847656 3.17578125 10.04882812 C3.21074628 13.91246426 3.19397555 15.70903668 1 19 C1.66 19 2.32 19 3 19 C3.08745946 22.3956697 3.14054444 25.79104773 3.1875 29.1875 C3.21263672 30.14720703 3.23777344 31.10691406 3.26367188 32.09570312 C3.35579054 40.96980119 3.35579054 40.96980119 0 45 C-4.02086776 48.64391141 -8.22270473 48.32223563 -13.37890625 48.30078125 C-16.0358757 47.99588312 -17.71449975 47.34978956 -20 46 C-20 45.34 -20 44.68 -20 44 C-20.66 44 -21.32 44 -22 44 C-23.90608098 40.78817851 -24.22266247 38.46117397 -24.125 34.75 C-24.10695313 33.85796875 -24.08890625 32.9659375 -24.0703125 32.046875 C-24.04710937 31.37140625 -24.02390625 30.6959375 -24 30 C-23.34 29.67 -22.68 29.34 -22 29 C-22.04640625 29.59167969 -22.0928125 30.18335938 -22.140625 30.79296875 C-22.4095253 36.18591375 -22.4095253 36.18591375 -20 40.9375 C-19.34 41.618125 -18.68 42.29875 -18 43 C-18 43.66 -18 44.32 -18 45 C-11.07 45.495 -11.07 45.495 -4 46 C-4 45.01 -4 44.02 -4 43 C-4.804375 42.731875 -5.60875 42.46375 -6.4375 42.1875 C-7.7059375 41.5996875 -7.7059375 41.5996875 -9 41 C-10.74448199 35.76655404 -10.67853621 30.12042565 -9 24.875 C-8.67 24.25625 -8.34 23.6375 -8 23 C-7.01 23 -6.02 23 -5 23 C-5 22.34 -5 21.68 -5 21 C-6.32 20.67 -7.64 20.34 -9 20 C-8.36191406 19.72285156 -7.72382813 19.44570312 -7.06640625 19.16015625 C-6.24011719 18.79792969 -5.41382813 18.43570313 -4.5625 18.0625 C-3.73878906 17.70285156 -2.91507812 17.34320313 -2.06640625 16.97265625 C-0.05589883 16.16877677 -0.05589883 16.16877677 1 15 C1.23527773 12.65012738 1.41386417 10.29443961 1.5625 7.9375 C1.64628906 6.64714844 1.73007812 5.35679687 1.81640625 4.02734375 C1.90728516 2.52880859 1.90728516 2.52880859 2 1 C1.34 0.67 0.68 0.34 0 0 Z M-7 27 C-8.90064554 30.11705869 -9.03091586 31.48473566 -8.8125 35.125 C-7.99000729 38.03535881 -7.34214105 39.16702005 -5 41 C-1.45481116 39.60240095 -1.45481116 39.60240095 2 38 C2 32.06 2 26.12 2 20 C-1.09053797 20 -4.91381481 24.93112755 -7 27 Z " fill="#7A0608" transform="translate(408,214)"/>
<path d="M0 0 C-0.33 0.99 -0.66 1.98 -1 3 C-2.98 3.33 -4.96 3.66 -7 4 C-7 24.13 -7 44.26 -7 65 C-5.02 65.33 -3.04 65.66 -1 66 C-1 67.32 -1 68.64 -1 70 C-11.23 70 -21.46 70 -32 70 C-32.33 68.68 -32.66 67.36 -33 66 C-31.576875 65.5978125 -31.576875 65.5978125 -30.125 65.1875 C-26.74732727 64.25013412 -26.74732727 64.25013412 -25 61 C-25.495 63.475 -25.495 63.475 -26 66 C-20.06 66 -14.12 66 -8 66 C-8.495 65.01 -8.495 65.01 -9 64 C-9.0913666 62.02893455 -9.11751968 60.05472084 -9.11352539 58.08154297 C-9.11344986 56.84040741 -9.11337433 55.59927185 -9.11329651 54.32052612 C-9.1081895 52.96107951 -9.1029735 51.60163331 -9.09765625 50.2421875 C-9.09579142 48.85499116 -9.09436782 47.46779416 -9.09336853 46.08059692 C-9.08954848 42.42765488 -9.07972255 38.77475252 -9.06866455 35.12182617 C-9.05843944 31.39502499 -9.05386855 27.66821741 -9.04882812 23.94140625 C-9.03809983 16.62758397 -9.02050717 9.3138026 -9 2 C-14.28 2 -19.56 2 -25 2 C-25 1.34 -25 0.68 -25 0 C-21.77138267 -0.19789024 -18.54210273 -0.38146345 -15.3125 -0.5625 C-14.40048828 -0.61857422 -13.48847656 -0.67464844 -12.54882812 -0.73242188 C-11.21948242 -0.80493164 -11.21948242 -0.80493164 -9.86328125 -0.87890625 C-9.05157471 -0.9260376 -8.23986816 -0.97316895 -7.40356445 -1.02172852 C-4.8210515 -0.99838228 -2.51150091 -0.5804792 0 0 Z " fill="#5B0403" transform="translate(375,192)"/>
<path d="M0 0 C0.33 2.64 0.66 5.28 1 8 C1.33 7.67 1.66 7.34 2 7 C4.3125 6.5625 4.3125 6.5625 7 7 C10.0629156 10.30472473 11.0157177 12.08837332 10.9375 16.625 C10 20 10 20 7 24 C3.37 24 -0.26 24 -4 24 C-4 16.74 -4 9.48 -4 2 C-4.66 1.67 -5.32 1.34 -6 1 C-1.125 0 -1.125 0 0 0 Z M3 9 C1.09598862 10.90401138 0.06479561 12.33425686 -0.19921875 15.046875 C-0.1886578 17.03233273 -0.09915043 19.0169914 0 21 C2.475 21.495 2.475 21.495 5 22 C6.58512383 18.82975235 6.42372144 15.45332972 6 12 C4.66641006 9.990755 4.66641006 9.990755 3 9 Z " fill="#D1D2D2" transform="translate(366,284)"/>
<path d="M0 0 C1.62633308 2.27686631 2.07520717 3.45850837 1.6875 6.25 C1.460625 7.1575 1.23375 8.065 1 9 C0.62321464 11.66228605 0.31682102 14.3296514 0 17 C-0.804375 17.28875 -1.60875 17.5775 -2.4375 17.875 C-5.1326468 18.73262568 -5.1326468 18.73262568 -6 21 C-6.66 21 -7.32 21 -8 21 C-8 21.66 -8 22.32 -8 23 C-8.66 23 -9.32 23 -10 23 C-11.07833675 17.6361443 -10.79356653 13.48455288 -9.3125 8.1875 C-9.15072266 7.52041016 -8.98894531 6.85332031 -8.82226562 6.16601562 C-8.03461348 3.24255768 -7.48023832 1.37096254 -5.04296875 -0.51171875 C-3 -1 -3 -1 0 0 Z " fill="#D3D3D3" transform="translate(38,205)"/>
<path d="M0 0 C3.0625 0.125 3.0625 0.125 5.0625 1.125 C5.0625 5.415 5.0625 9.705 5.0625 14.125 C6.17625 13.774375 7.29 13.42375 8.4375 13.0625 C12.0625 12.125 12.0625 12.125 14.0625 13.125 C14.0625 15.105 14.0625 17.085 14.0625 19.125 C13.4025 19.125 12.7425 19.125 12.0625 19.125 C12.0625 19.785 12.0625 20.445 12.0625 21.125 C11.0725 20.795 10.0825 20.465 9.0625 20.125 C9.0625 19.135 9.0625 18.145 9.0625 17.125 C4.4425 17.125 -0.1775 17.125 -4.9375 17.125 C-5.2675 14.815 -5.5975 12.505 -5.9375 10.125 C-2.87632432 7.50113513 -2.20576873 7.125 2.0625 7.125 C1.71463292 5.14963255 1.71463292 5.14963255 1.0625 3.125 C0.4025 2.795 -0.2575 2.465 -0.9375 2.125 C-0.9375 3.445 -0.9375 4.765 -0.9375 6.125 C-2.2575 6.125 -3.5775 6.125 -4.9375 6.125 C-3.86768142 0.16458219 -3.86768142 0.16458219 0 0 Z M1.0625 9.125 C0.0725 9.785 -0.9175 10.445 -1.9375 11.125 C-1.9375 12.115 -1.9375 13.105 -1.9375 14.125 C-0.6175 13.795 0.7025 13.465 2.0625 13.125 C1.7325 11.805 1.4025 10.485 1.0625 9.125 Z " fill="#B5B8B8" transform="translate(226.9375,290.875)"/>
<path d="M0 0 C0.33 0.66 0.66 1.32 1 2 C3.02463255 2.65213292 3.02463255 2.65213292 5 3 C5.33 5.31 5.66 7.62 6 10 C5.34 9.67 4.68 9.34 4 9 C3.67 24.51 3.34 40.02 3 56 C5.97 56.99 8.94 57.98 12 59 C11.67 60.32 11.34 61.64 11 63 C4.73 63 -1.54 63 -8 63 C-8.33 61.68 -8.66 60.36 -9 59 C-8.34 59 -7.68 59 -7 59 C-7 59.66 -7 60.32 -7 61 C-1.72 61 3.56 61 9 61 C9 60.34 9 59.68 9 59 C8.21625 58.855625 7.4325 58.71125 6.625 58.5625 C4 58 4 58 2 57 C0.99314613 53.97943839 0.84627314 51.86445386 0.79467773 48.70239258 C0.77473251 47.62149857 0.75478729 46.54060455 0.73423767 45.42695618 C0.71752518 44.26125595 0.70081268 43.09555573 0.68359375 41.89453125 C0.66281265 40.70018967 0.64203156 39.50584808 0.62062073 38.27531433 C0.55515724 34.45443557 0.4962549 30.63348724 0.4375 26.8125 C0.39431176 24.22460214 0.35069737 21.63671135 0.30664062 19.04882812 C0.19947908 12.69929261 0.0977066 6.34968766 0 0 Z " fill="#670504" transform="translate(298,199)"/>
<path d="M0 0 C0.99 0.33 1.98 0.66 3 1 C4.0532349 3.43282428 4.9027827 5.73226655 5.6875 8.25 C5.91244141 8.91902344 6.13738281 9.58804687 6.36914062 10.27734375 C7.5549618 13.94654119 8.27663837 17.14201627 8 21 C6.35 21 4.7 21 3 21 C3 18.69 3 16.38 3 14 C1.02 14.33 -0.96 14.66 -3 15 C-3.33 16.65 -3.66 18.3 -4 20 C-3.34 20 -2.68 20 -2 20 C-2 20.66 -2 21.32 -2 22 C-4.31 22 -6.62 22 -9 22 C-7.51618594 17.00898907 -5.40972526 12.39285459 -3.21875 7.68359375 C-2.06732127 5.14823626 -1.01294804 2.59333456 0 0 Z M-1 8 C-1.33 9.32 -1.66 10.64 -2 12 C-1.01 12 -0.02 12 1 12 C1 10.68 1 9.36 1 8 C0.34 8 -0.32 8 -1 8 Z " fill="#CECECE" transform="translate(165,286)"/>
<path d="M0 0 C3 2 3 2 4 5 C4.41011236 12.51872659 4.41011236 12.51872659 2 16 C-1.04983996 17.52491998 -3.6423369 17.23562548 -7 17 C-8.6953125 15.828125 -8.6953125 15.828125 -10 14 C-10.43359375 11.40625 -10.43359375 11.40625 -10.4375 8.5 C-10.45683594 7.5409375 -10.47617188 6.581875 -10.49609375 5.59375 C-10 3 -10 3 -8.1640625 1.17578125 C-5.26758875 -0.39793463 -3.25017645 -0.34576345 0 0 Z M-4 2 C-6.21370051 3.78657757 -6.21370051 3.78657757 -6.1953125 6.1640625 C-6.17210937 6.97617187 -6.14890625 7.78828125 -6.125 8.625 C-6.10695312 9.44226563 -6.08890625 10.25953125 -6.0703125 11.1015625 C-6.04710937 11.72804688 -6.02390625 12.35453125 -6 13 C-4.02 13.99 -4.02 13.99 -2 15 C-0.71387324 13.94021067 -0.71387324 13.94021067 -0.90234375 11.49609375 C-0.91394531 10.48675781 -0.92554688 9.47742188 -0.9375 8.4375 C-0.94652344 7.42558594 -0.95554687 6.41367187 -0.96484375 5.37109375 C-0.97644531 4.58863281 -0.98804688 3.80617188 -1 3 C-1.99 2.67 -2.98 2.34 -4 2 Z " fill="#7B7B7B" transform="translate(260,291)"/>
<path d="M0 0 C2.9375 0.5 2.9375 0.5 4.75 1.6875 C6.21288036 3.92031739 6.58255955 5.87344067 6.9375 8.5 C3.9675 8.5 0.9975 8.5 -2.0625 8.5 C-1.7325 10.48 -1.4025 12.46 -1.0625 14.5 C0.0821875 14.005 0.0821875 14.005 1.25 13.5 C3.9375 12.5 3.9375 12.5 6.9375 12.5 C5.0625 16.375 5.0625 16.375 3.9375 17.5 C0.15450615 17.85688621 -2.21662807 18.02053657 -5.5 16 C-7.67039167 12.52737332 -7.82466952 9.42750617 -7.0625 5.5 C-5.06757991 1.81707061 -4.16771668 0.68044354 0 0 Z M-1.0625 2.5 C-1.3925 3.82 -1.7225 5.14 -2.0625 6.5 C-0.7425 6.5 0.5775 6.5 1.9375 6.5 C1.6075 5.18 1.2775 3.86 0.9375 2.5 C0.2775 2.5 -0.3825 2.5 -1.0625 2.5 Z " fill="#8A8B8B" transform="translate(322.0625,290.5)"/>
<path d="M0 0 C2.5 0.125 2.5 0.125 3.5 1.125 C3.73481693 3.30792774 3.91363323 5.49703174 4.0625 7.6875 C4.14628906 8.88503906 4.23007812 10.08257812 4.31640625 11.31640625 C4.37699219 12.24324219 4.43757813 13.17007812 4.5 14.125 C5.82 14.455 7.14 14.785 8.5 15.125 C8.5 11.165 8.5 7.205 8.5 3.125 C9.16 3.455 9.82 3.785 10.5 4.125 C11.42166393 8.09043059 11.90594668 12.09392391 12.5 16.125 C7.55 16.125 2.6 16.125 -2.5 16.125 C-2.17 11.505 -1.84 6.885 -1.5 2.125 C-2.16 1.795 -2.82 1.465 -3.5 1.125 C-2.5 0.125 -2.5 0.125 0 0 Z " fill="#BCBDBD" transform="translate(292.5,290.875)"/>
<path d="M0 0 C0.33 0 0.66 0 1 0 C1.33 17.82 1.66 35.64 2 54 C4.31 54.66 6.62 55.32 9 56 C9 56.66 9 57.32 9 58 C3.72 58 -1.56 58 -7 58 C-7 57.01 -7 56.02 -7 55 C-6.360625 54.731875 -5.72125 54.46375 -5.0625 54.1875 C-2.66868314 53.11332248 -2.66868314 53.11332248 -2 50 C-1.34 50 -0.68 50 0 50 C0 33.5 0 17 0 0 Z " fill="#9C0809" transform="translate(298,202)"/>
<path d="M0 0 C1.32 0.33 2.64 0.66 4 1 C4.33 4.96 4.66 8.92 5 13 C5.66 13 6.32 13 7 13 C6.67 11.35 6.34 9.7 6 8 C8.31 8.33 10.62 8.66 13 9 C13 9.66 13 10.32 13 11 C12.360625 11.474375 11.72125 11.94875 11.0625 12.4375 C8.71627037 13.9091365 8.71627037 13.9091365 8 17 C8.66 17 9.32 17 10 17 C14 22.41176471 14 22.41176471 14 25 C11.69 25 9.38 25 7 25 C6.34 23.35 5.68 21.7 5 20 C4.34 20 3.68 20 3 20 C2.95101562 18.72382813 2.90203125 17.44765625 2.8515625 16.1328125 C2.77653809 14.46351928 2.70099012 12.79424954 2.625 11.125 C2.57859375 9.86236328 2.57859375 9.86236328 2.53125 8.57421875 C2.49257812 7.76855469 2.45390625 6.96289062 2.4140625 6.1328125 C2.3826416 5.38918457 2.3512207 4.64555664 2.31884766 3.87939453 C2.14580449 1.75989026 2.14580449 1.75989026 0 0 Z " fill="#878786" transform="translate(207,283)"/>
<path d="M0 0 C1.65 0 3.3 0 5 0 C4.01308139 4.17573655 2.56003684 8.11002114 1.0625 12.125 C0.66514648 13.21748047 0.66514648 13.21748047 0.25976562 14.33203125 C-1.76307069 19.76307069 -1.76307069 19.76307069 -4 22 C-6.625 21.625 -6.625 21.625 -9 21 C-9 20.01 -9 19.02 -9 18 C-7.35 18 -5.7 18 -4 18 C-4.99 14.7 -5.98 11.4 -7 8 C-6.01 8.66 -5.02 9.32 -4 10 C-3.67 8.68 -3.34 7.36 -3 6 C-2.34 6.33 -1.68 6.66 -1 7 C-0.31292445 4.50935112 0 2.62113708 0 0 Z " fill="#929292" transform="translate(426,291)"/>
<path d="M0 0 C2.64 0 5.28 0 8 0 C8 0.66 8 1.32 8 2 C7.34 2 6.68 2 6 2 C6 8.27 6 14.54 6 21 C4.02 21 2.04 21 0 21 C0.33 20.34 0.66 19.68 1 19 C1.23274209 16.12089412 1.41972757 13.25853505 1.5625 10.375 C1.60568359 9.57320313 1.64886719 8.77140625 1.69335938 7.9453125 C1.79951457 5.9637489 1.90026855 3.98189729 2 2 C1.34 2 0.68 2 0 2 C0 1.34 0 0.68 0 0 Z " fill="#989898" transform="translate(337,286)"/>
<path d="M0 0 C1.95137039 3.27811862 2.24443864 5.71237637 2.22705078 9.50292969 C2.22689972 10.60376892 2.22674866 11.70460815 2.22659302 12.83880615 C2.21627045 14.02121887 2.20594788 15.20363159 2.1953125 16.421875 C2.1924826 17.63699768 2.18965271 18.85212036 2.18673706 20.10406494 C2.17553954 23.98614335 2.15043534 27.86799129 2.125 31.75 C2.11496966 34.38150709 2.10584391 37.01301779 2.09765625 39.64453125 C2.07560157 46.09643284 2.04212804 52.54819995 2 59 C1.67 59 1.34 59 1 59 C0.67 43.49 0.34 27.98 0 12 C-0.99 12.33 -1.98 12.66 -3 13 C-2.52060632 8.28596212 -2.03165952 4.33420699 0 0 Z " fill="#790506" transform="translate(349,194)"/>
<path d="M0 0 C1.67542976 0.28604898 3.34385343 0.61781233 5 1 C6.04976964 4.14930893 6.10131595 6.38814456 6.0625 9.6875 C6.05347656 10.68136719 6.04445313 11.67523438 6.03515625 12.69921875 C6.02355469 13.45847656 6.01195312 14.21773438 6 15 C6.66 15 7.32 15 8 15 C8 15.66 8 16.32 8 17 C5.36 17 2.72 17 0 17 C0.165 16.484375 0.33 15.96875 0.5 15.4375 C1.57426183 10.20047358 1.33791086 5.82194115 -1 1 C-0.67 0.67 -0.34 0.34 0 0 Z " fill="#C5C5C5" transform="translate(265,291)"/>
<path d="M0 0 C1.65 0 3.3 0 5 0 C5.04898438 1.25296875 5.09796875 2.5059375 5.1484375 3.796875 C5.22348583 5.44793821 5.29903277 7.09897881 5.375 8.75 C5.4059375 9.575 5.436875 10.4 5.46875 11.25 C5.50742188 12.04921875 5.54609375 12.8484375 5.5859375 13.671875 C5.6173584 14.4050293 5.6487793 15.13818359 5.68115234 15.89355469 C6.03772523 18.24922918 6.83662883 19.93450591 8 22 C5.69 22 3.38 22 1 22 C1.33 15.07 1.66 8.14 2 1 C1.34 0.67 0.68 0.34 0 0 Z " fill="#C4C3C3" transform="translate(205,285)"/>
<path d="M0 0 C1.63488196 3.26976393 1.4527421 6.85864274 1.71875 10.46875 C1.85132612 12.99074004 1.85132612 12.99074004 3 15 C0.36 15 -2.28 15 -5 15 C-4.88658363 12.68690295 -4.75896193 10.37449815 -4.625 8.0625 C-4.55539063 6.77472656 -4.48578125 5.48695313 -4.4140625 4.16015625 C-4.27742187 3.11730469 -4.14078125 2.07445312 -4 1 C-2 0 -2 0 0 0 Z " fill="#BABABB" transform="translate(190,292)"/>
<path d="M0 0 C3.0625 0.125 3.0625 0.125 5.0625 1.125 C5.0625 5.745 5.0625 10.365 5.0625 15.125 C5.7225 15.455 6.3825 15.785 7.0625 16.125 C4.0925 15.63 4.0925 15.63 1.0625 15.125 C1.7225 14.795 2.3825 14.465 3.0625 14.125 C2.78155418 12.3108073 2.48743567 10.49864999 2.1875 8.6875 C2.02507812 7.67816406 1.86265625 6.66882813 1.6953125 5.62890625 C1.48648438 4.80261719 1.27765625 3.97632813 1.0625 3.125 C0.4025 2.795 -0.2575 2.465 -0.9375 2.125 C-0.9375 3.445 -0.9375 4.765 -0.9375 6.125 C-2.2575 6.125 -3.5775 6.125 -4.9375 6.125 C-3.86768142 0.16458219 -3.86768142 0.16458219 0 0 Z " fill="#E2E4E4" transform="translate(226.9375,290.875)"/>
<path d="M0 0 C0.99 0.33 1.98 0.66 3 1 C3 4.63 3 8.26 3 12 C3.66 12.33 4.32 12.66 5 13 C5 13.66 5 14.32 5 15 C2.03 15 -0.94 15 -4 15 C-4 14.34 -4 13.68 -4 13 C-3.34 13 -2.68 13 -2 13 C-2.02320313 12.22914063 -2.04640625 11.45828125 -2.0703125 10.6640625 C-2.08835937 9.66117187 -2.10640625 8.65828125 -2.125 7.625 C-2.14820313 6.62726563 -2.17140625 5.62953125 -2.1953125 4.6015625 C-2 2 -2 2 0 0 Z " fill="#E1E3E2" transform="translate(381,293)"/>
<path d="M0 0 C0.639375 0.495 1.27875 0.99 1.9375 1.5 C3.70974339 3.09802862 3.70974339 3.09802862 5 3 C5.06316406 3.70382813 5.12632812 4.40765625 5.19140625 5.1328125 C6.18007971 13.10464272 8.65466148 18.87664386 12.5390625 25.7734375 C14.07548935 29.16672247 14.29977425 31.32498981 14 35 C9.85881876 26.81218505 6.31956268 18.44299701 3.11328125 9.84765625 C2.0858805 7.06793053 2.0858805 7.06793053 0.85546875 4.80859375 C0 3 0 3 0 0 Z " fill="#640709" transform="translate(306,214)"/>
<path d="M0 0 C0.66 0 1.32 0 2 0 C1.87431641 1.04800781 1.87431641 1.04800781 1.74609375 2.1171875 C1.64425781 3.02726563 1.54242188 3.93734375 1.4375 4.875 C1.33308594 5.77992188 1.22867187 6.68484375 1.12109375 7.6171875 C0.80325148 10.01653057 0.80325148 10.01653057 2 12 C3.89533342 12.46523063 3.89533342 12.46523063 6.0625 12.625 C7.361875 12.74875 8.66125 12.8725 10 13 C10 12.34 10 11.68 10 11 C10.66 11 11.32 11 12 11 C12 9.741875 12 8.48375 12 7.1875 C12 4.79166667 12 2.39583333 12 0 C14.20409407 2.38776858 14.96644557 3.73156457 15.375 7 C14.94731161 10.42150709 14.60057161 11.73498601 12 14 C8.36863581 14.94146479 5.83948465 15.20520736 2.1875 14.3125 C-0.46071074 12.72357356 -1.1936645 11.98344133 -2 9 C-1.47916667 2.95833333 -1.47916667 2.95833333 0 0 Z " fill="#740506" transform="translate(388,214)"/>
<path d="M0 0 C0.99 0.33 1.98 0.66 3 1 C3 1.66 3 2.32 3 3 C2.34 3 1.68 3 1 3 C0.67 4.32 0.34 5.64 0 7 C0.99 7 1.98 7 3 7 C3.33 6.01 3.66 5.02 4 4 C4.33 5.65 4.66 7.3 5 9 C3.02 9.33 1.04 9.66 -1 10 C-1.33 11.65 -1.66 13.3 -2 15 C-1.34 15 -0.68 15 0 15 C0 15.66 0 16.32 0 17 C-2.31 17 -4.62 17 -7 17 C-5.24009216 11.08030998 -2.60305395 5.58365008 0 0 Z " fill="#7F8180" transform="translate(163,291)"/>
<path d="M0 0 C3 0.4375 3 0.4375 4.875 1.6875 C6 3.4375 6 3.4375 6 7.4375 C4.68 7.4375 3.36 7.4375 2 7.4375 C1.87625 6.798125 1.7525 6.15875 1.625 5.5 C1.41875 4.819375 1.2125 4.13875 1 3.4375 C0.34 3.1075 -0.32 2.7775 -1 2.4375 C-1.19335938 3.07558594 -1.38671875 3.71367187 -1.5859375 4.37109375 C-1.84632813 5.19738281 -2.10671875 6.02367187 -2.375 6.875 C-2.75785156 8.11056641 -2.75785156 8.11056641 -3.1484375 9.37109375 C-4 11.4375 -4 11.4375 -6 12.4375 C-6.36 5.2375 -6.36 5.2375 -4.875 1.9375 C-3 0.4375 -3 0.4375 0 0 Z " fill="#AAABAB" transform="translate(322,290.5625)"/>
<path d="M0 0 C1.32 0 2.64 0 4 0 C3.49890042 4.38462134 2.01704885 6.8000997 -1 10 C-1.66 10 -2.32 10 -3 10 C-3.66 11.32 -4.32 12.64 -5 14 C-8 14 -8 14 -10 13 C-9.04287109 11.96939453 -9.04287109 11.96939453 -8.06640625 10.91796875 C-7.24011719 10.01691406 -6.41382813 9.11585938 -5.5625 8.1875 C-4.73878906 7.29417969 -3.91507813 6.40085938 -3.06640625 5.48046875 C-0.83280912 3.10551917 -0.83280912 3.10551917 0 0 Z " fill="#ABABAB" transform="translate(203,203)"/>
<path d="M0 0 C0 3.66666667 0 7.33333333 0 11 C-2.5 9.1875 -2.5 9.1875 -5 7 C-5 6.01 -5 5.02 -5 4 C-5.66 4 -6.32 4 -7 4 C-7 4.66 -7 5.32 -7 6 C-8.32 6 -9.64 6 -11 6 C-11 4.35 -11 2.7 -11 1 C-7.32589215 -0.17571451 -3.83070817 -0.07366746 0 0 Z " fill="#B8B9B9" transform="translate(423,291)"/>
<path d="M0 0 C0.33 2.64 0.66 5.28 1 8 C1.33 7.67 1.66 7.34 2 7 C3.66617115 6.95936168 5.33388095 6.957279 7 7 C7.33 7.66 7.66 8.32 8 9 C7.34 9 6.68 9 6 9 C5.67 9.99 5.34 10.98 5 12 C4.34 11.34 3.68 10.68 3 10 C2.01 10.99 1.02 11.98 0 13 C-1.20272819 10.59454362 -1.10071472 9.05003047 -1.0625 6.375 C-1.05347656 5.55773437 -1.04445313 4.74046875 -1.03515625 3.8984375 C-1.02355469 3.27195312 -1.01195312 2.64546875 -1 2 C-1.66 2 -2.32 2 -3 2 C-3 8.93 -3 15.86 -3 23 C-2.34 23.33 -1.68 23.66 -1 24 C-1.99 24 -2.98 24 -4 24 C-4 16.74 -4 9.48 -4 2 C-4.66 1.67 -5.32 1.34 -6 1 C-1.125 0 -1.125 0 0 0 Z " fill="#818181" transform="translate(366,284)"/>
<path d="M0 0 C0.99 0 1.98 0 3 0 C3.33 1.98 3.66 3.96 4 6 C6.475 6.495 6.475 6.495 9 7 C9.33 6.34 9.66 5.68 10 5 C10.33 5.99 10.66 6.98 11 8 C3.08 8 -4.84 8 -13 8 C-13 7.67 -13 7.34 -13 7 C-11.02 7 -9.04 7 -7 7 C-6.67 6.34 -6.34 5.68 -6 5 C-3.4375 4.375 -3.4375 4.375 -1 4 C-0.67 2.68 -0.34 1.36 0 0 Z " fill="#6F7071" transform="translate(350,300)"/>
<path d="M0 0 C1.77049689 -0.05410687 3.54146849 -0.09284119 5.3125 -0.125 C6.29863281 -0.14820313 7.28476562 -0.17140625 8.30078125 -0.1953125 C11 0 11 0 14 2 C14.99 2 15.98 2 17 2 C17.33 3.32 17.66 4.64 18 6 C16.54207116 6.05399736 15.08357288 6.09279177 13.625 6.125 C12.81289063 6.14820313 12.00078125 6.17140625 11.1640625 6.1953125 C9 6 9 6 7 4 C4.05270463 2.84188612 4.05270463 2.84188612 1 3 C0.67 2.01 0.34 1.02 0 0 Z " fill="#BDC1BF" transform="translate(377,291)"/>
<path d="M0 0 C3.63 0 7.26 0 11 0 C10.01 1.485 10.01 1.485 9 3 C8.34 3 7.68 3 7 3 C6.67 6.63 6.34 10.26 6 14 C5.67 14 5.34 14 5 14 C5 11.69 5 9.38 5 7 C4.34 7 3.68 7 3 7 C3 9.64 3 12.28 3 15 C2.34 14.67 1.68 14.34 1 14 C1.33 10.37 1.66 6.74 2 3 C1.34 3 0.68 3 0 3 C0 2.01 0 1.02 0 0 Z " fill="#B2B4B4" transform="translate(404,291)"/>
<path d="M0 0 C0.66 0 1.32 0 2 0 C2.33 0.99 2.66 1.98 3 3 C5.57728289 4.28864145 7.08871156 3.93455998 9.9375 3.625 C10.81277344 3.53476562 11.68804687 3.44453125 12.58984375 3.3515625 C15.13641518 3.052297 15.13641518 3.052297 18 2 C18 1.34 18 0.68 18 0 C18.99 0.33 19.98 0.66 21 1 C20.8125 2.875 20.8125 2.875 20 5 C15.64786061 7.80783186 10.00556178 7.55346049 5 7 C2.73828125 6.1484375 2.73828125 6.1484375 1 5 C0.25 2.375 0.25 2.375 0 0 Z " fill="#7D060A" transform="translate(411,255)"/>
<path d="M0 0 C0.33 0 0.66 0 1 0 C1 1.98 1 3.96 1 6 C-0.32 6 -1.64 6 -3 6 C-3.33 6.99 -3.66 7.98 -4 9 C-2.68 8.67 -1.36 8.34 0 8 C0 8.99 0 9.98 0 11 C-1 12 -1 12 -3.4375 12.1875 C-6 12 -6 12 -8 10 C-8.4375 7.5625 -8.4375 7.5625 -8 5 C-5.13896577 2.75756777 -3.65923696 2 0 2 C0 1.34 0 0.68 0 0 Z " fill="#B1B3B2" transform="translate(398,296)"/>
<path d="M0 0 C0.66 0 1.32 0 2 0 C2.93854006 7.03905044 3.10808032 13.90272572 3 21 C2.01 21 1.02 21 0 21 C0 14.07 0 7.14 0 0 Z " fill="#F4F4F4" transform="translate(363,286)"/>
<path d="M0 0 C-0.33 0.99 -0.66 1.98 -1 3 C-2.98 3.33 -4.96 3.66 -7 4 C-7 4.66 -7 5.32 -7 6 C-7.66 6 -8.32 6 -9 6 C-9 4.68 -9 3.36 -9 2 C-14.28 2 -19.56 2 -25 2 C-25 1.34 -25 0.68 -25 0 C-21.77138267 -0.19789024 -18.54210273 -0.38146345 -15.3125 -0.5625 C-14.40048828 -0.61857422 -13.48847656 -0.67464844 -12.54882812 -0.73242188 C-11.21948242 -0.80493164 -11.21948242 -0.80493164 -9.86328125 -0.87890625 C-9.05157471 -0.9260376 -8.23986816 -0.97316895 -7.40356445 -1.02172852 C-4.8210515 -0.99838228 -2.51150091 -0.5804792 0 0 Z " fill="#750608" transform="translate(375,192)"/>
<path d="M0 0 C0 1.98 0 3.96 0 6 C-0.66 6 -1.32 6 -2 6 C-2 6.66 -2 7.32 -2 8 C-2.99 7.67 -3.98 7.34 -5 7 C-5 6.01 -5 5.02 -5 4 C-7.31 4 -9.62 4 -12 4 C-12.33 3.34 -12.66 2.68 -13 2 C-12.443125 1.87625 -11.88625 1.7525 -11.3125 1.625 C-8.92299542 1.044624 -8.92299542 1.044624 -6.5 -0.125 C-3.77903768 -1.07733681 -2.65453108 -0.98315966 0 0 Z " fill="#848585" transform="translate(241,304)"/>
<path d="M0 0 C0.99 0 1.98 0 3 0 C3.05394705 2.60444348 3.09364469 5.20776998 3.125 7.8125 C3.14175781 8.55048828 3.15851563 9.28847656 3.17578125 10.04882812 C3.21074628 13.91246426 3.19397555 15.70903668 1 19 C1.66 19 2.32 19 3 19 C1.60804085 21.7839183 -0.15575779 21.97898997 -3 23 C-3 22.01 -3 21.02 -3 20 C-4.65 20 -6.3 20 -8 20 C-8 19.67 -8 19.34 -8 19 C-6.6078125 18.566875 -6.6078125 18.566875 -5.1875 18.125 C-1.90208333 17.1125 -1.90208333 17.1125 1 15 C1.58687784 11.65386488 1.58687784 11.65386488 1.6875 7.875 C1.75324219 6.59367188 1.81898438 5.31234375 1.88671875 3.9921875 C1.92410156 3.00476563 1.96148437 2.01734375 2 1 C1.34 0.67 0.68 0.34 0 0 Z " fill="#720506" transform="translate(408,214)"/>
<path d="M0 0 C0.928125 0.20625 1.85625 0.4125 2.8125 0.625 C2.4825 2.275 2.1525 3.925 1.8125 5.625 C0.4925 5.295 -0.8275 4.965 -2.1875 4.625 C-2.5175 5.285 -2.8475 5.945 -3.1875 6.625 C-0.8775 6.955 1.4325 7.285 3.8125 7.625 C2.8225 8.285 1.8325 8.945 0.8125 9.625 C-1.875 8.75 -1.875 8.75 -4.1875 7.625 C-4.1875 5.975 -4.1875 4.325 -4.1875 2.625 C-4.8475 2.295 -5.5075 1.965 -6.1875 1.625 C-3.1875 -0.375 -3.1875 -0.375 0 0 Z " fill="#918F91" transform="translate(184.1875,284.375)"/>
<path d="M0 0 C0 0.66 0 1.32 0 2 C3.95831809 2.02892857 7.91660917 2.04677427 11.875 2.0625 C13.00292969 2.07087891 14.13085938 2.07925781 15.29296875 2.08789062 C16.90751953 2.09272461 16.90751953 2.09272461 18.5546875 2.09765625 C20.04718018 2.10551147 20.04718018 2.10551147 21.56982422 2.11352539 C24.00960773 2.1639415 24.00960773 2.1639415 26 1 C25.67 2.32 25.34 3.64 25 5 C15.43 5 5.86 5 -4 5 C-4.33 3.68 -4.66 2.36 -5 1 C-3 0 -3 0 0 0 Z " fill="#7C7C7C" transform="translate(163,257)"/>
<path d="M0 0 C0 4.95 0 9.9 0 15 C-1.65 15 -3.3 15 -5 15 C-4.67 14.34 -4.34 13.68 -4 13 C-3.72488371 9.88638233 -3.55331352 6.77312062 -3.37890625 3.65234375 C-3.25386719 2.77707031 -3.12882813 1.90179688 -3 1 C-1 0 -1 0 0 0 Z " fill="#E6E6E6" transform="translate(202,292)"/>
<path d="M0 0 C6.625 0.75 6.625 0.75 10 3 C9.01 3.33 8.02 3.66 7 4 C5.33289654 5.49985609 5.33289654 5.49985609 4 7 C3.67 6.01 3.34 5.02 3 4 C2.67 7.63 2.34 11.26 2 15 C1.34 14.67 0.68 14.34 0 14 C0.33 10.37 0.66 6.74 1 3 C0.34 3 -0.32 3 -1 3 C-0.67 2.01 -0.34 1.02 0 0 Z " fill="#9A9B9B" transform="translate(299,291)"/>
<path d="M0 0 C1.32 0 2.64 0 4 0 C5.1577506 3.47325181 5.06866652 6.36067448 5 10 C4.34 10 3.68 10 3 10 C3 10.66 3 11.32 3 12 C2.34 12 1.68 12 1 12 C0.67 8.04 0.34 4.08 0 0 Z " fill="#CECECE" transform="translate(259,293)"/>
<path d="M0 0 C1.43655854 -0.08131463 2.8744483 -0.13933559 4.3125 -0.1875 C5.51326172 -0.23970703 5.51326172 -0.23970703 6.73828125 -0.29296875 C9 0 9 0 10.78125 1.125 C12.54851611 3.84387093 12.29091256 5.98171072 12.1875 9.1875 C12.16042969 10.27417969 12.13335937 11.36085938 12.10546875 12.48046875 C12.07066406 13.31191406 12.03585937 14.14335937 12 15 C11.67 15 11.34 15 11 15 C11 11.37 11 7.74 11 4 C6.23118866 2.96546942 6.23118866 2.96546942 2 4 C2 3.01 2 2.02 2 1 C1.34 0.67 0.68 0.34 0 0 Z " fill="#808080" transform="translate(268,291)"/>
<path d="M0 0 C0.99 0 1.98 0 3 0 C3 3.63 3 7.26 3 11 C3.66 11.33 4.32 11.66 5 12 C2.69 12 0.38 12 -2 12 C-1.67 11.34 -1.34 10.68 -1 10 C-0.77377919 8.29636178 -0.59111527 6.58671299 -0.4375 4.875 C-0.35371094 3.96492188 -0.26992188 3.05484375 -0.18359375 2.1171875 C-0.12300781 1.41851562 -0.06242187 0.71984375 0 0 Z " fill="#F1F2F2" transform="translate(276,295)"/>
<path d="M0 0 C0.66 0 1.32 0 2 0 C2.33 6.27 2.66 12.54 3 19 C1.68 18.67 0.36 18.34 -1 18 C-0.505 9.09 -0.505 9.09 0 0 Z " fill="#FBFBFB" transform="translate(340,288)"/>
<path d="M0 0 C2.64 0.99 5.28 1.98 8 3 C7.67 4.32 7.34 5.64 7 7 C0.73 7 -5.54 7 -12 7 C-12.33 5.68 -12.66 4.36 -13 3 C-12.34 3 -11.68 3 -11 3 C-11 3.66 -11 4.32 -11 5 C-5.72 5 -0.44 5 5 5 C5 4.34 5 3.68 5 3 C2.525 2.505 2.525 2.505 0 2 C0 1.34 0 0.68 0 0 Z " fill="#4C0506" transform="translate(302,255)"/>
<path d="M0 0 C2.5 1.375 2.5 1.375 3.8125 4 C4.1528125 5.175625 4.1528125 5.175625 4.5 6.375 C2.19 6.375 -0.12 6.375 -2.5 6.375 C-3.16 4.395 -3.82 2.415 -4.5 0.375 C-2.5 -0.625 -2.5 -0.625 0 0 Z " fill="#ADAEAF" transform="translate(216.5,301.625)"/>
<path d="M0 0 C-0.99 0.495 -0.99 0.495 -2 1 C5.26 1.33 12.52 1.66 20 2 C20 2.33 20 2.66 20 3 C7.625 3.495 7.625 3.495 -5 4 C-5.33 2.68 -5.66 1.36 -6 0 C-3 -1 -3 -1 0 0 Z " fill="#636363" transform="translate(203,258)"/>
<path d="M0 0 C0.66 0 1.32 0 2 0 C4.74375671 2.95481492 5 3.77471908 5 8 C5.99 8 6.98 8 8 8 C8.33 7.01 8.66 6.02 9 5 C9.33 5.66 9.66 6.32 10 7 C9.0625 9.625 9.0625 9.625 8 12 C7.01 12 6.02 12 5 12 C3.35 8.04 1.7 4.08 0 0 Z " fill="#650908" transform="translate(320,250)"/>
<path d="M0 0 C-0.33 0.33 -0.66 0.66 -1 1 C1.31 1 3.62 1 6 1 C6.33 1.66 6.66 2.32 7 3 C5.948125 2.979375 4.89625 2.95875 3.8125 2.9375 C0.63741604 2.98955056 -1.92394918 3.36901522 -5 4 C-6.9996441 4.03772913 -9.00054061 4.04649906 -11 4 C-11 3.34 -11 2.68 -11 2 C-3.57142857 -1.57142857 -3.57142857 -1.57142857 0 0 Z " fill="#630204" transform="translate(401,210)"/>
<path d="M0 0 C3.0625 0.125 3.0625 0.125 5.0625 1.125 C4.7325 1.785 4.4025 2.445 4.0625 3.125 C2.4125 2.795 0.7625 2.465 -0.9375 2.125 C-0.9375 3.445 -0.9375 4.765 -0.9375 6.125 C-2.2575 6.125 -3.5775 6.125 -4.9375 6.125 C-3.86768142 0.16458219 -3.86768142 0.16458219 0 0 Z " fill="#A9AAAA" transform="translate(226.9375,290.875)"/>
<path d="M0 0 C1.64750929 2.47126394 2.93723705 4.7609443 4.1875 7.4375 C4.55230469 8.19933594 4.91710937 8.96117187 5.29296875 9.74609375 C6.09093521 12.28988738 5.8852947 13.52455813 5 16 C4.67 14.68 4.34 13.36 4 12 C3.34 12 2.68 12 2 12 C2 10.68 2 9.36 2 8 C1.34 8 0.68 8 0 8 C0 5.36 0 2.72 0 0 Z " fill="#730605" transform="translate(317,198)"/>
<path d="M0 0 C0.680625 -0.01417969 1.36125 -0.02835938 2.0625 -0.04296875 C4 0.1875 4 0.1875 7 2.1875 C6.01 2.6825 6.01 2.6825 5 3.1875 C5 3.8475 5 4.5075 5 5.1875 C4.34 5.1875 3.68 5.1875 3 5.1875 C2.67 4.5275 2.34 3.8675 2 3.1875 C-1.63 3.1875 -5.26 3.1875 -9 3.1875 C-6.21122917 0.39872917 -3.79375187 0.03592568 0 0 Z " fill="#950A0D" transform="translate(405,208.8125)"/>
<path d="M0 0 C2.64 0 5.28 0 8 0 C8 1.98 8 3.96 8 6 C6.125 5.75 6.125 5.75 4 5 C2.875 3 2.875 3 2 1 C1.34 0.67 0.68 0.34 0 0 Z " fill="#8F8F8F" transform="translate(188,291)"/>
<path d="M0 0 C0.639375 0.495 1.27875 0.99 1.9375 1.5 C3.70974339 3.09802862 3.70974339 3.09802862 5 3 C5.33 6.63 5.66 10.26 6 14 C2.73164037 9.64218716 0 5.5719851 0 0 Z " fill="#830608" transform="translate(306,214)"/>
<path d="M0 0 C-0.928125 0.433125 -1.85625 0.86625 -2.8125 1.3125 C-5.91345911 2.75416261 -5.91345911 2.75416261 -7.625 4.625 C-9.3168346 6.3168346 -10.67661054 6.59941561 -13 7 C-10.87373757 1.39439905 -5.69462356 -1.70838707 0 0 Z " fill="#7B0708" transform="translate(399,236)"/>
<path d="M0 0 C2.64492308 1.32246154 2.97833787 2.64535898 4.1875 5.3125 C4.55230469 6.09238281 4.91710937 6.87226563 5.29296875 7.67578125 C6.07807525 10.2566562 5.89937661 11.49663962 5 14 C4.67 13.01 4.34 12.02 4 11 C3.01 10.34 2.02 9.68 1 9 C0.48828125 6.8359375 0.48828125 6.8359375 0.3125 4.375 C0.24675781 3.55773437 0.18101562 2.74046875 0.11328125 1.8984375 C0.07589844 1.27195313 0.03851563 0.64546875 0 0 Z " fill="#790605" transform="translate(323,214)"/>
<path d="M0 0 C0.33 0 0.66 0 1 0 C1 2.97 1 5.94 1 9 C1.66 9 2.32 9 3 9 C3.33 8.34 3.66 7.68 4 7 C3.625 8.9375 3.625 8.9375 3 11 C0.04335481 12.4783226 -2.74229737 12.06032783 -6 12 C-3 10 -3 10 -1 9 C-0.53348793 6.87423218 -0.53348793 6.87423218 -0.375 4.4375 C-0.30023438 3.61121094 -0.22546875 2.78492188 -0.1484375 1.93359375 C-0.09945313 1.29550781 -0.05046875 0.65742188 0 0 Z " fill="#6F6F6F" transform="translate(259,296)"/>
<path d="M0 0 C0.99 0.495 0.99 0.495 2 1 C2.44921875 2.99609375 2.44921875 2.99609375 2.6875 5.4375 C2.77386719 6.24058594 2.86023438 7.04367187 2.94921875 7.87109375 C3 10 3 10 2 12 C1.34 12 0.68 12 0 12 C0 8.04 0 4.08 0 0 Z " fill="#F7F9F9" transform="translate(301,294)"/>
<path d="M0 0 C0.99 0.33 1.98 0.66 3 1 C3.33 2.98 3.66 4.96 4 7 C3.34 7 2.68 7 2 7 C1.67 7.66 1.34 8.32 1 9 C1 8.01 1 7.02 1 6 C0.34 6 -0.32 6 -1 6 C-1.042721 4.33388095 -1.04063832 2.66617115 -1 1 C-0.67 0.67 -0.34 0.34 0 0 Z " fill="#B4B5B5" transform="translate(165,286)"/>
<path d="M0 0 C1.60725635 3.21451269 1.05748185 6.43612536 1 10 C1.66 10.33 2.32 10.66 3 11 C3 11.66 3 12.32 3 13 C0.03 13 -2.94 13 -6 13 C-5.67 12.34 -5.34 11.68 -5 11 C-3.02 11.495 -3.02 11.495 -1 12 C-1.01160156 11.21753906 -1.02320313 10.43507813 -1.03515625 9.62890625 C-1.04417969 8.61699219 -1.05320312 7.60507812 -1.0625 6.5625 C-1.07410156 5.55316406 -1.08570313 4.54382813 -1.09765625 3.50390625 C-1 1 -1 1 0 0 Z " fill="#8B8D8C" transform="translate(383,295)"/>
<path d="M0 0 C0.99 0 1.98 0 3 0 C3 2.97 3 5.94 3 9 C2.01 9.495 2.01 9.495 1 10 C-0.60725635 6.78548731 -0.05748185 3.56387464 0 0 Z " fill="#EAEAEA" transform="translate(250,294)"/>
<path d="M0 0 C1.2065625 0.0309375 1.2065625 0.0309375 2.4375 0.0625 C1.73808404 3.20987182 0.67671302 6.08838876 -0.5625 9.0625 C-1.96943638 6.43621875 -3.05407276 4.01137797 -3.5625 1.0625 C-2.5625 0.0625 -2.5625 0.0625 0 0 Z " fill="#7D807E" transform="translate(428.5625,290.9375)"/>
<path d="M0 0 C0.66 0 1.32 0 2 0 C1.90460938 0.67546875 1.80921875 1.3509375 1.7109375 2.046875 C1.60007812 2.93890625 1.48921875 3.8309375 1.375 4.75 C1.25898438 5.63171875 1.14296875 6.5134375 1.0234375 7.421875 C0.99792183 10.22859878 1.55156156 11.63384866 3 14 C0 13 0 13 -1.25 11.375 C-2.47613924 7.49222575 -1.80994971 3.61989943 0 0 Z " fill="#670708" transform="translate(388,214)"/>
<path d="M0 0 C3.63 0 7.26 0 11 0 C10.67 0.99 10.34 1.98 10 3 C7 4 7 4 4 3 C3.01 3 2.02 3 1 3 C0.67 2.01 0.34 1.02 0 0 Z " fill="#838686" transform="translate(377,291)"/>
<path d="M0 0 C1.65 0 3.3 0 5 0 C5 1.32 5 2.64 5 4 C3.68 4.33 2.36 4.66 1 5 C0.67 3.35 0.34 1.7 0 0 Z " fill="#919191" transform="translate(354,285)"/>
<path d="M0 0 C2.00841268 0.01421885 4.01537247 0.13420475 6.01953125 0.265625 C4.03953125 1.255625 4.03953125 1.255625 2.01953125 2.265625 C2.34953125 3.255625 2.67953125 4.245625 3.01953125 5.265625 C0.37953125 4.935625 -2.26046875 4.605625 -4.98046875 4.265625 C-3.72152968 1.74774686 -2.88459378 0.38688832 0 0 Z " fill="#878787" transform="translate(253.98046875,207.734375)"/>
<path d="M0 0 C0.33 0 0.66 0 1 0 C1 1.98 1 3.96 1 6 C-1.875 6.125 -1.875 6.125 -5 6 C-5.66 5.34 -6.32 4.68 -7 4 C-4.35261084 2.5393715 -3.10551666 2 0 2 C0 1.34 0 0.68 0 0 Z " fill="#8F9292" transform="translate(398,296)"/>
<path d="M0 0 C1.65 0 3.3 0 5 0 C4.67 1.65 4.34 3.3 4 5 C2.68 4.67 1.36 4.34 0 4 C0 2.68 0 1.36 0 0 Z " fill="#A0A0A0" transform="translate(291,285)"/>
<path d="M0 0 C0.70189453 0.00451172 1.40378906 0.00902344 2.12695312 0.01367188 C3.85550538 0.02543073 5.58401365 0.04336546 7.3125 0.0625 C7.3125 0.3925 7.3125 0.7225 7.3125 1.0625 C6.06533203 1.15337891 6.06533203 1.15337891 4.79296875 1.24609375 C3.16294922 1.37177734 3.16294922 1.37177734 1.5 1.5 C0.42105469 1.58121094 -0.65789062 1.66242188 -1.76953125 1.74609375 C-4.74739905 1.96462461 -4.74739905 1.96462461 -7.6875 3.0625 C-8.6775 2.4025 -9.6675 1.7425 -10.6875 1.0625 C-7.06882441 -0.1437252 -3.76243749 -0.04566918 0 0 Z " fill="#EFEFEF" transform="translate(210.6875,191.9375)"/>
<path d="M0 0 C0.66 0 1.32 0 2 0 C2.33 2.97 2.66 5.94 3 9 C1.35 9 -0.3 9 -2 9 C-1.34 8.67 -0.68 8.34 0 8 C0 5.36 0 2.72 0 0 Z " fill="#F9FAFA" transform="translate(407,298)"/>
<path d="M0 0 C0.99 0 1.98 0 3 0 C2.44894091 3.9492568 1.61064629 7.34920174 0 11 C-1.35015859 6.94952424 -0.62084998 4.2079832 0 0 Z " fill="#690504" transform="translate(331,244)"/>
<path d="M0 0 C3.28220895 1.64110448 3.74570789 4.69322988 5 8 C5 8.99 5 9.98 5 11 C4.01 10.67 3.02 10.34 2 10 C0.47839986 6.3962102 0 3.94779314 0 0 Z " fill="#700507" transform="translate(329,228)"/>
<path d="M0 0 C0.33 0 0.66 0 1 0 C1.33 4.29 1.66 8.58 2 13 C1.01 13.495 1.01 13.495 0 14 C0 13.01 0 12.02 0 11 C-0.66 11 -1.32 11 -2 11 C-1.34 7.37 -0.68 3.74 0 0 Z " fill="#A30507" transform="translate(411,222)"/>
<path d="M0 0 C0.33 0.66 0.66 1.32 1 2 C-0.4540625 3.051875 -0.4540625 3.051875 -1.9375 4.125 C-4.55157225 6.27161462 -4.96258406 6.85835394 -5.875 10.3125 C-5.91625 11.199375 -5.9575 12.08625 -6 13 C-6.33 13 -6.66 13 -7 13 C-7.3125 9.8125 -7.3125 9.8125 -7 6 C-4.8272578 3.36983839 -3.05326212 1.52663106 0 0 Z " fill="#8F8F8F" transform="translate(242,211)"/>
<path d="M0 0 C2.475 0.495 2.475 0.495 5 1 C4.34 2.32 3.68 3.64 3 5 C2.01 5 1.02 5 0 5 C0 3.35 0 1.7 0 0 Z " fill="#9F9C9B" transform="translate(199,285)"/>
<path d="M0 0 C0.68707555 2.49064888 1 4.37886292 1 7 C-1.31 7 -3.62 7 -6 7 C-5.67 6.01 -5.34 5.02 -5 4 C-3.66666667 3.66666667 -2.33333333 3.33333333 -1 3 C-0.67 2.01 -0.34 1.02 0 0 Z " fill="#690909" transform="translate(349,253)"/>
<path d="M0 0 C1.32 0.66 2.64 1.32 4 2 C4 2.99 4 3.98 4 5 C2.35 5 0.7 5 -1 5 C-1 1 -1 1 0 0 Z " fill="#AF0205" transform="translate(298,254)"/>
<path d="M0 0 C0.33 0.99 0.66 1.98 1 3 C1.99 2.67 2.98 2.34 4 2 C3.67 3.32 3.34 4.64 3 6 C2.01 6 1.02 6 0 6 C-0.66 6.99 -1.32 7.98 -2 9 C-1.41196203 5.97580475 -0.77321882 2.98241547 0 0 Z " fill="#5A0707" transform="translate(345,204)"/>
<path d="M0 0 C0.33 0.99 0.66 1.98 1 3 C1.99 3 2.98 3 4 3 C4 3.66 4 4.32 4 5 C1.69 5 -0.62 5 -3 5 C-1.125 1.125 -1.125 1.125 0 0 Z " fill="#9E9E9E" transform="translate(159,303)"/>
<path d="M0 0 C0.33 0 0.66 0 1 0 C1.1875 3.375 1.1875 3.375 1 7 C0.01 7.66 -0.98 8.32 -2 9 C-2 6.69 -2 4.38 -2 2 C-1.34 2 -0.68 2 0 2 C0 1.34 0 0.68 0 0 Z " fill="#F8F8F8" transform="translate(318,294)"/>
<path d="M0 0 C0.99 0 1.98 0 3 0 C3 0.99 3 1.98 3 3 C0.35541621 4.32229189 -1.67761301 4.09677194 -4.625 4.0625 C-5.62789063 4.05347656 -6.63078125 4.04445313 -7.6640625 4.03515625 C-8.43492187 4.02355469 -9.20578125 4.01195312 -10 4 C-10 3.67 -10 3.34 -10 3 C-6.7 3 -3.4 3 0 3 C0 2.01 0 1.02 0 0 Z " fill="#8E060B" transform="translate(404,257)"/>
<path d="M0 0 C1.88343932 3.76687864 2.22057835 5.02958963 2 9 C1.01 9 0.02 9 -1 9 C-0.67 6.03 -0.34 3.06 0 0 Z " fill="#8C0604" transform="translate(349,194)"/>
<path d="M0 0 C0.33 0.66 0.66 1.32 1 2 C1.66 2.33 2.32 2.66 3 3 C2 4 2 4 -1.5625 4.0625 C-2.696875 4.041875 -3.83125 4.02125 -5 4 C-5 3.01 -5 2.02 -5 1 C-2.525 1.495 -2.525 1.495 0 2 C0 1.34 0 0.68 0 0 Z " fill="#7C7C7C" transform="translate(371,304)"/>
<path d="M0 0 C1.0625 1.8125 1.0625 1.8125 2 4 C1.67 4.99 1.34 5.98 1 7 C0.01 7.33 -0.98 7.66 -2 8 C-1.125 1.125 -1.125 1.125 0 0 Z " fill="#82090B" transform="translate(345,209)"/>
<path d="M0 0 C0.66 0 1.32 0 2 0 C2 0.66 2 1.32 2 2 C3.32 2.66 4.64 3.32 6 4 C2.7 4 -0.6 4 -4 4 C-2.68 3.67 -1.36 3.34 0 3 C0 2.01 0 1.02 0 0 Z " fill="#E5E7E8" transform="translate(178,303)"/>
<path d="M0 0 C1.32 0.33 2.64 0.66 4 1 C4 2.32 4 3.64 4 5 C2.68 5 1.36 5 0 5 C0 3.35 0 1.7 0 0 Z " fill="#E0E3E2" transform="translate(412,292)"/>
<path d="M0 0 C1.134375 0.020625 2.26875 0.04125 3.4375 0.0625 C2.4475 0.5575 2.4475 0.5575 1.4375 1.0625 C1.1075 1.7225 0.7775 2.3825 0.4375 3.0625 C-0.2225 3.7225 -0.8825 4.3825 -1.5625 5.0625 C-1.8925 4.0725 -2.2225 3.0825 -2.5625 2.0625 C-3.2225 1.7325 -3.8825 1.4025 -4.5625 1.0625 C-3.5625 0.0625 -3.5625 0.0625 0 0 Z " fill="#656767" transform="translate(396.5625,290.9375)"/>
<path d="M0 0 C2.64 0.99 5.28 1.98 8 3 C7.67 4.32 7.34 5.64 7 7 C6.34 6.67 5.68 6.34 5 6 C5 5.01 5 4.02 5 3 C3.35 2.67 1.7 2.34 0 2 C0 1.34 0 0.68 0 0 Z " fill="#570909" transform="translate(302,255)"/>
<path d="M0 0 C1.98 0.99 3.96 1.98 6 3 C6 3.66 6 4.32 6 5 C4.35 4.67 2.7 4.34 1 4 C0.67 2.68 0.34 1.36 0 0 Z " fill="#AFAFAF" transform="translate(250,302)"/>
<path d="M0 0 C-0.33 0.99 -0.66 1.98 -1 3 C-2.9375 3.8125 -2.9375 3.8125 -5 4 C-5.66 3.34 -6.32 2.68 -7 2 C-4 0 -4 0 0 0 Z " fill="#969B9C" transform="translate(229,298)"/>
<path d="M0 0 C2.64 0 5.28 0 8 0 C7.01 1.485 7.01 1.485 6 3 C5.34 3 4.68 3 4 3 C3.67 3.99 3.34 4.98 3 6 C2.87625 5.195625 2.7525 4.39125 2.625 3.5625 C2.315625 2.2940625 2.315625 2.2940625 2 1 C1.34 0.67 0.68 0.34 0 0 Z " fill="#646565" transform="translate(407,291)"/>
<path d="M0 0 C0.99 0 1.98 0 3 0 C3 0.66 3 1.32 3 2 C3.99 2.33 4.98 2.66 6 3 C6 3.66 6 4.32 6 5 C3.69 4.34 1.38 3.68 -1 3 C-0.67 2.01 -0.34 1.02 0 0 Z " fill="#5D0607" transform="translate(290,191)"/>
<path d="M0 0 C0.66 0 1.32 0 2 0 C0.70700306 2.88437779 -0.65941363 4.87219421 -3 7 C-3.66 6.67 -4.32 6.34 -5 6 C-4.67 5.34 -4.34 4.68 -4 4 C-3.34 4 -2.68 4 -2 4 C-1.34 2.68 -0.68 1.36 0 0 Z " fill="#ACACAC" transform="translate(63,190)"/>
<path d="" fill="#FF0000" transform="translate(0,0)"/>
</svg>
