<?xml version="1.0" encoding="UTF-8"?>
<svg version="1.1" xmlns="http://www.w3.org/2000/svg" width="500" height="500">
<path d="M0 0 C1.19287411 3.87684087 2 6.91621923 2 11 C2.66 11 3.32 11 4 11 C6.70588841 15.05883261 7.17708875 19.1294915 8.12109375 23.87109375 C8.9946959 26.9811174 10.06149326 28.49698306 12 31 C12.3948217 35.9747534 12.26647307 39.46705387 10 44 C9.34 44 8.68 44 8 44 C8.30679688 44.55171875 8.61359375 45.1034375 8.9296875 45.671875 C10.09442941 48.20540121 10.62057956 50.51171762 11.125 53.25 C11.29257812 54.14203125 11.46015625 55.0340625 11.6328125 55.953125 C11.75398438 56.62859375 11.87515625 57.3040625 12 58 C12.66 58 13.32 58 14 58 C15.6875 59.4375 15.6875 59.4375 17 62 C16.95795687 65.05338255 16.53265251 67.99660996 16 71 C18.31 71.66 20.62 72.32 23 73 C23 73.66 23 74.32 23 75 C24.47968324 74.85950482 25.95874516 74.71245174 27.4375 74.5625 C28.26121094 74.48128906 29.08492188 74.40007812 29.93359375 74.31640625 C31.98662025 74.21069185 31.98662025 74.21069185 33 73 C35.69654854 72.92680379 38.36691458 72.90757463 41.0625 72.9375 C41.82111328 72.94201172 42.57972656 72.94652344 43.36132812 72.95117188 C45.24091871 72.9629932 47.12046899 72.98092922 49 73 C49 73.66 49 74.32 49 75 C49.78375 75.28875 50.5675 75.5775 51.375 75.875 C54 77 54 77 56 79 C56 79.99 56 80.98 56 82 C56.66 82 57.32 82 58 82 C58 82.66 58 83.32 58 84 C58.66 84 59.32 84 60 84 C60 84.66 60 85.32 60 86 C60.66 86 61.32 86 62 86 C64.26751601 91.16489758 63.63875101 93.71958009 62 99 C62.06279173 100.97793935 62.1256476 102.95588455 62.1953125 104.93359375 C61.83956947 108.69735502 59.90730036 111.7984601 58 115 C57.34 115 56.68 115 56 115 C56 115.99 56 116.98 56 118 C55.21625 118.165 54.4325 118.33 53.625 118.5 C50.8906529 119.70396899 50.8906529 119.70396899 50.22265625 121.9140625 C49.73586948 123.92516699 49.36146745 125.962638 49 128 C48.04867187 128.16822266 48.04867187 128.16822266 47.078125 128.33984375 C46.39234375 128.55769531 45.7065625 128.77554688 45 129 C43.70339566 131.49034386 43.70339566 131.49034386 43 134 C41.7625 133.938125 40.525 133.87625 39.25 133.8125 C35.29055927 133.79388194 31.93499962 134.44056146 28.125 135.5 C22.31367475 137.09101835 16.99276845 137.31851328 11 137 C11 134.33333333 11 131.66666667 11 129 C8.69 128.01 6.38 127.02 4 126 C4 125.34 4 124.68 4 124 C1.03 123.505 1.03 123.505 -2 123 C-2.495 124.98 -2.495 124.98 -3 127 C-7.0803458 128.36011527 -8.88131797 127.60177039 -12.62109375 125.76953125 C-18.09717775 123.99812148 -24.27367688 124.21372377 -30 124 C-29.97679687 123.32453125 -29.95359375 122.6490625 -29.9296875 121.953125 C-29.91164062 121.06109375 -29.89359375 120.1690625 -29.875 119.25 C-29.85179687 118.36828125 -29.82859375 117.4865625 -29.8046875 116.578125 C-30.01090006 113.85611915 -30.73244075 112.37542601 -32 110 C-32 109.01 -32 108.02 -32 107 C-32.66 107 -33.32 107 -34 107 C-36.94034091 99.45738636 -36.94034091 99.45738636 -37.375 96.125 C-37.58125 95.42375 -37.7875 94.7225 -38 94 C-40.47636012 92.62533375 -40.47636012 92.62533375 -43 92 C-43 91.34 -43 90.68 -43 90 C-43.66 90 -44.32 90 -45 90 C-45.33 88.68 -45.66 87.36 -46 86 C-47.41702513 86.14230808 -48.8336096 86.28900746 -50.25 86.4375 C-51.03890625 86.51871094 -51.8278125 86.59992188 -52.640625 86.68359375 C-54.82364639 86.97634993 -56.8773182 87.42064419 -59 88 C-60.7467499 82.29952878 -58.53844196 78.91475179 -55.87890625 73.8671875 C-53.63685495 70.44584518 -51.33849139 68.57296353 -47.96875 66.34375 C-44.65109694 64.07932013 -41.93390904 61.54668927 -40 58 C-39.48624617 54.9224649 -39.47834769 52.07708829 -40 49 C-40.495 48.505 -40.495 48.505 -41 48 C-41.42918052 44.29065408 -41.49664987 40.70328052 -41 37 C-38.625 34.3125 -38.625 34.3125 -36 33 C-35.34 33 -34.68 33 -34 33 C-34 32.34 -34 31.68 -34 31 C-33.34 30.67 -32.68 30.34 -32 30 C-32.01160156 29.37351563 -32.02320313 28.74703125 -32.03515625 28.1015625 C-32.04417969 27.28429687 -32.05320313 26.46703125 -32.0625 25.625 C-32.07410156 24.81289062 -32.08570313 24.00078125 -32.09765625 23.1640625 C-32 21 -32 21 -31 19 C-30.01 18.67 -29.02 18.34 -28 18 C-26.77030122 14.48809191 -26.77030122 14.48809191 -26 11 C-25.34 11 -24.68 11 -24 11 C-23.9071875 10.1646875 -23.9071875 10.1646875 -23.8125 9.3125 C-22.46443509 5.47569986 -19.6007689 2.95372126 -16.14453125 0.89453125 C-13.71027367 -0.12085124 -11.62309858 -0.44358382 -9 -0.6875 C-8.154375 -0.77386719 -7.30875 -0.86023438 -6.4375 -0.94921875 C-4.07091802 -0.99852254 -2.25100125 -0.69301659 0 0 Z " fill="#060606" transform="translate(248,119)"/>
<path d="M0 0 C1.65 0.33 3.3 0.66 5 1 C5.05945801 1.71728271 5.11891602 2.43456543 5.18017578 3.17358398 C7.76371281 33.11263882 13.53461035 60.89602871 29.66796875 86.6640625 C31 89 31 89 31 91 C31.66 91 32.32 91 33 91 C34.33619621 92.65770921 35.59462139 94.37852016 36.8125 96.125 C39.10975852 99.37631124 41.38594558 102.55895896 44 105.5625 C46 108 46 108 46 110 C46.66 110 47.32 110 48 110 C48 110.66 48 111.32 48 112 C48.639375 112.268125 49.27875 112.53625 49.9375 112.8125 C52 114 52 114 53 117 C54.87611921 118.06601589 54.87611921 118.06601589 57 119 C58.14476446 119.84710914 59.26334289 120.73056152 60.35546875 121.64453125 C60.97413818 122.15467773 61.59280762 122.66482422 62.23022461 123.19042969 C62.87612549 123.72571289 63.52202637 124.26099609 64.1875 124.8125 C69.54981147 129.19197071 74.75780168 132.93365697 81 136 C81 136.66 81 137.32 81 138 C81.51304687 138.09667969 82.02609375 138.19335938 82.5546875 138.29296875 C85.91810584 139.26545872 88.98063766 140.79802259 92.125 142.3125 C113.1781441 152.25629917 134.27885368 157.57510116 157.58398438 157.39111328 C159.99927181 157.37500486 162.41288698 157.39108858 164.828125 157.41015625 C182.67662464 157.43415743 200.68120751 154.50664455 217 147 C218.7325 146.4121875 218.7325 146.4121875 220.5 145.8125 C225.53289727 143.98596529 230.15046622 141.30598691 234.80859375 138.69262695 C239.68580483 136 239.68580483 136 243 136 C243 135.34 243 134.68 243 134 C244.6796875 132.7109375 244.6796875 132.7109375 246.875 131.375 C247.59429687 130.92898437 248.31359375 130.48296875 249.0546875 130.0234375 C251 129 251 129 253 129 C251.95125002 131.62187494 251.35068687 132.79371361 248.875 134.25 C248.25625 134.4975 247.6375 134.745 247 135 C247 135.66 247 136.32 247 137 C245.5390625 138.2890625 245.5390625 138.2890625 243.625 139.625 C242.99851562 140.07101562 242.37203125 140.51703125 241.7265625 140.9765625 C240 142 240 142 238 142 C238 142.66 238 143.32 238 144 C232.70588235 148 232.70588235 148 229 148 C229 148.66 229 149.32 229 150 C223.34803147 152.698748 217.68261385 155.36637403 212 158 C210.95457031 158.4846875 209.90914062 158.969375 208.83203125 159.46875 C203.01421153 162.0289189 197.10638895 163.95891633 191 165.6875 C190.28851807 165.89012451 189.57703613 166.09274902 188.84399414 166.30151367 C177.00300508 169.51478784 165.57411569 170.34727993 153.3659668 170.31567383 C150.83402866 170.31252676 148.30327797 170.33600773 145.77148438 170.36132812 C131.43563474 170.41795363 117.79456319 168.57690267 104.0625 164.3125 C103.2375 164.05976318 102.4125 163.80702637 101.5625 163.54663086 C88.69616248 159.46205978 74.9916614 153.97434258 64 146 C64 145.34 64 144.68 64 144 C63.45859375 143.91621094 62.9171875 143.83242188 62.359375 143.74609375 C59.18252177 142.74149281 56.93396497 141.02577067 54.25 139.0625 C52.77273437 137.99708984 52.77273437 137.99708984 51.265625 136.91015625 C50.51796875 136.27980469 49.7703125 135.64945313 49 135 C49 134.34 49 133.68 49 133 C48.41863281 132.73445312 47.83726562 132.46890625 47.23828125 132.1953125 C40.48006546 128.58621297 34.5048826 122.12382479 30 116 C30 115.34 30 114.68 30 114 C29.34 114 28.68 114 28 114 C26.18141442 111.76522071 24.48423788 109.52888606 22.8125 107.1875 C22.31782227 106.49970459 21.82314453 105.81190918 21.31347656 105.10327148 C19.86515056 103.07604023 18.43027516 101.03999406 17 99 C15.99259766 97.57300781 15.99259766 97.57300781 14.96484375 96.1171875 C10.25112473 89.09492727 6.95803488 81.59490144 3.74609375 73.80517578 C3.11556819 72.27961754 2.46612392 70.76189921 1.8125 69.24609375 C-5.64987258 51.55210877 -11.6030543 28.22407175 -6.84375 9.046875 C-5.34370433 5.40787532 -2.78551204 2.72419574 0 0 Z " fill="#CA4A29" transform="translate(128,123)"/>
<path d="M0 0 C7.26 0 14.52 0 22 0 C26.17115706 8.08693716 29.96762613 16.14697174 33.36450195 24.58496094 C36.74896623 32.94780783 40.4379155 41.22253509 44.703125 49.17578125 C46 52 46 52 46 56 C46.66 56 47.32 56 48 56 C49.49821059 59.37097383 50 61.20442119 50 65 C50.66 65 51.32 65 52 65 C52.66 66.32 53.32 67.64 54 69 C59.40689275 57.67248062 59.40689275 57.67248062 64 46 C64.66066719 44.33094605 65.32438252 42.6630584 66 41 C66.66 41 67.32 41 68 41 C68.13148438 40.26523437 68.26296875 39.53046875 68.3984375 38.7734375 C70.69380883 28.19088135 78.17182968 7.82817032 86 0 C87.63472882 -0.08700342 89.27314055 -0.10701063 90.91015625 -0.09765625 C91.89951172 -0.09443359 92.88886719 -0.09121094 93.90820312 -0.08789062 C94.94912109 -0.07951172 95.99003906 -0.07113281 97.0625 -0.0625 C98.62967773 -0.05573242 98.62967773 -0.05573242 100.22851562 -0.04882812 C102.8190666 -0.03699913 105.40950559 -0.02051689 108 0 C108 1.32 108 2.64 108 4 C105.09399739 5.25664978 103.20395416 6 100 6 C100 6.66 100 7.32 100 8 C99.34 8 98.68 8 98 8 C98.05534912 8.61069336 98.11069824 9.22138672 98.16772461 9.85058594 C99.27426485 22.27239252 100.13106035 34.65813097 100.5 47.125 C100.78622515 56.11609445 101.15012072 65.09040138 101.8125 74.0625 C101.87050781 75.02623535 101.92851562 75.9899707 101.98828125 76.98291016 C102.06046875 77.86640137 102.13265625 78.74989258 102.20703125 79.66015625 C102.2635083 80.42980713 102.31998535 81.19945801 102.37817383 81.99243164 C103.22640661 84.73095466 104.59682237 85.53056258 107 87 C109.11264636 87.76681725 109.11264636 87.76681725 111.25 88.1875 C112.4875 88.455625 113.725 88.72375 115 89 C114.505 90.98 114.505 90.98 114 93 C101.46 93 88.92 93 76 93 C75.67 91.68 75.34 90.36 75 89 C75.69867188 88.87882812 76.39734375 88.75765625 77.1171875 88.6328125 C78.02726562 88.46523438 78.93734375 88.29765625 79.875 88.125 C80.77992188 87.96257812 81.68484375 87.80015625 82.6171875 87.6328125 C85.16505988 87.16955297 85.16505988 87.16955297 87 85 C87.05579439 81.84905815 87.05579439 81.84905815 86.6875 78.11328125 C86.57541551 76.65456709 86.46480477 75.19573914 86.35546875 73.73681641 C86.26531494 72.57838226 86.26531494 72.57838226 86.17333984 71.39654541 C85.88027072 67.34465839 85.69356587 63.28811825 85.5 59.23046875 C85.41694228 57.56443936 85.33360753 55.89842376 85.25 54.23242188 C85.12301855 51.6826244 84.99737434 49.13278673 84.875 46.58276367 C84.75381185 44.06929311 84.62735998 41.5561331 84.5 39.04296875 C84.46455078 38.27744186 84.42910156 37.51191498 84.39257812 36.72319031 C84.23081464 33.60172714 83.99393427 30.9818028 83 28 C78.14018416 38.08861769 73.30596354 48.17938836 68.8125 58.4375 C65.9364891 64.99900698 62.86266426 71.4146797 59.59375 77.7890625 C57.61393133 81.77781483 55.89694644 85.85669705 54.23828125 89.98828125 C53 92 53 92 50.85546875 92.79296875 C50.24316406 92.86128906 49.63085938 92.92960937 49 93 C46.05499544 88.43337901 43.93820325 83.58096697 41.75 78.625 C40.94611965 76.82125464 40.14142514 75.01787192 39.3359375 73.21484375 C38.93987305 72.32780762 38.54380859 71.44077148 38.13574219 70.52685547 C35.49495538 64.6515022 32.73814949 58.83042454 30 53 C29.38347216 51.67477785 28.76760067 50.34925017 28.15234375 49.0234375 C27.53916864 47.7030757 26.92588901 46.38276244 26.3125 45.0625 C26.02020508 44.43327637 25.72791016 43.80405273 25.42675781 43.15576172 C23.88197054 39.84411295 22.29280052 36.56380788 20.625 33.3125 C19.3566285 30.72697348 18.61119061 28.75035775 18 26 C15.9095562 28.0904438 16.62272847 32.54206565 16.5 35.43359375 C16.45939453 36.29952652 16.41878906 37.16545929 16.37695312 38.05763245 C16.24685435 40.85073739 16.12322125 43.64408395 16 46.4375 C15.87590065 49.16017179 15.75045242 51.88277872 15.62475586 54.6053772 C15.54170285 56.40497424 15.4591818 58.20459591 15.37719727 60.00424194 C14.97881135 68.67298146 14.50025845 77.33661457 14 86 C17.96 86.99 21.92 87.98 26 89 C25.505 90.98 25.505 90.98 25 93 C14.44 93 3.88 93 -7 93 C-7 91.68 -7 90.36 -7 89 C-3.7 88.01 -0.4 87.02 3 86 C4.58756164 78.20359404 5.35594762 70.75720967 5.5625 62.8125 C5.62308689 60.75641316 5.68682362 58.70041641 5.75390625 56.64453125 C5.77783447 55.75096924 5.8017627 54.85740723 5.82641602 53.93676758 C5.95982437 51.67970837 6.20985365 49.42931687 6.50927734 47.18823242 C7.07005372 42.89245288 7.12758738 38.67088617 7.09765625 34.34375 C7.0962413 33.55601196 7.09482635 32.76827393 7.09336853 31.95666504 C7.08782612 29.47106936 7.07528485 26.98556789 7.0625 24.5 C7.05747754 22.80208465 7.05291595 21.10416786 7.04882812 19.40625 C7.03787564 15.27079771 7.02065166 11.13541476 7 7 C4.69 6.01 2.38 5.02 0 4 C0 2.68 0 1.36 0 0 Z " fill="#AB4025" transform="translate(249,330)"/>
<path d="M0 0 C13.2 0 26.4 0 40 0 C40 1.32 40 2.64 40 4 C38.9275 4.103125 37.855 4.20625 36.75 4.3125 C32.24790512 5.10211429 32.24790512 5.10211429 29 8 C28.57429063 10.91428143 28.39514327 13.46738104 28.390625 16.38671875 C28.37408875 17.20372757 28.35755249 18.02073639 28.34051514 18.86250305 C28.2919466 21.47091114 28.27064541 24.07873594 28.25 26.6875 C28.22184759 28.4564097 28.19192119 30.22529211 28.16015625 31.99414062 C28.08618572 36.32937906 28.03666561 40.66429203 28 45 C28.53109375 44.59007812 29.0621875 44.18015625 29.609375 43.7578125 C30.31578125 43.21898437 31.0221875 42.68015625 31.75 42.125 C32.44609375 41.59132813 33.1421875 41.05765625 33.859375 40.5078125 C36 39 36 39 38.1953125 37.92578125 C40.57061354 36.70728267 40.97469743 35.41678462 42 33 C42.66 32.01 43.32 31.02 44 30 C44.66 30 45.32 30 46 30 C46.66 28.02 47.32 26.04 48 24 C48.66 24 49.32 24 50 24 C50.2475 23.319375 50.495 22.63875 50.75 21.9375 C51.74954893 19.58856001 52.78346378 17.70324929 54.125 15.5625 C56.05460255 12.28432764 56.45736559 9.84187098 56 6 C54.03177114 4.03177114 50.65191291 4.33751619 48 4 C48 2.68 48 1.36 48 0 C61.2 0 74.4 0 88 0 C88 1.32 88 2.64 88 4 C87.05898437 4.15855469 86.11796875 4.31710937 85.1484375 4.48046875 C76.59821887 6.08252835 71.26270417 7.28341301 66.1328125 14.69921875 C63.94628424 18.05804228 61.7936174 21.41276521 60 25 C59.34 25 58.68 25 58 25 C57.7525 25.70125 57.505 26.4025 57.25 27.125 C55.82819762 30.39514548 54.12753712 33.141122 52 36 C51.34 36 50.68 36 50 36 C49.731875 36.556875 49.46375 37.11375 49.1875 37.6875 C47.89877353 40.19712523 46.47073522 42.59334236 45 45 C45.66 45 46.32 45 47 45 C47 45.66 47 46.32 47 47 C47.598125 47.268125 48.19625 47.53625 48.8125 47.8125 C50.99847854 48.99917406 52.41332594 50.09599113 54 52 C54 52.66 54 53.32 54 54 C54.66 54 55.32 54 56 54 C56 54.66 56 55.32 56 56 C56.66 56 57.32 56 58 56 C58 56.66 58 57.32 58 58 C58.66 58 59.32 58 60 58 C60.66 59.65 61.32 61.3 62 63 C62.66 63 63.32 63 64 63 C67 66.46153846 67 66.46153846 67 69 C67.66 69 68.32 69 69 69 C70.5078125 70.8984375 70.5078125 70.8984375 72.125 73.375 C72.66382813 74.18710937 73.20265625 74.99921875 73.7578125 75.8359375 C75 78 75 78 75 80 C75.66 80 76.32 80 77 80 C77 80.66 77 81.32 77 82 C77.66 82 78.32 82 79 82 C79 82.66 79 83.32 79 84 C82.8740893 85.67804245 86.69442631 86.70987251 90.8125 87.625 C91.97394531 87.88539063 93.13539063 88.14578125 94.33203125 88.4140625 C95.65267578 88.70410156 95.65267578 88.70410156 97 89 C97 90.32 97 91.64 97 93 C82.15 93 67.3 93 52 93 C52 91.68 52 90.36 52 89 C55.96 88.01 55.96 88.01 60 87 C59.59419011 82.53609119 57.73792464 79.97394904 55.05859375 76.55078125 C54 75 54 75 54 73 C53.34 73 52.68 73 52 73 C52 72.34 52 71.68 52 71 C51.34 71 50.68 71 50 71 C49.34 69.35 48.68 67.7 48 66 C47.34 66 46.68 66 46 66 C46 65.34 46 64.68 46 64 C45.34 64 44.68 64 44 64 C41 60.53846154 41 60.53846154 41 58 C40.34 58 39.68 58 39 58 C37.64567325 56.68799596 36.31266518 55.35368596 35 54 C34.01 53.505 34.01 53.505 33 53 C33 52.34 33 51.68 33 51 C31.35 51 29.7 51 28 51 C28.01939703 55.78802359 28.0710371 60.57420311 28.15258789 65.36157227 C28.17578467 66.99005077 28.1901676 68.61867966 28.19555664 70.24731445 C28.20483492 72.58900841 28.24579256 74.92833208 28.29296875 77.26953125 C28.2890361 77.99775589 28.28510345 78.72598053 28.28105164 79.47627258 C28.29318477 81.78765918 28.29318477 81.78765918 29 85 C32.56224793 87.94899064 36.5568562 88.86743393 41 90 C40.505 91.485 40.505 91.485 40 93 C26.8 93 13.6 93 0 93 C0 91.68 0 90.36 0 89 C3.96 88.01 7.92 87.02 12 86 C12.33 60.26 12.66 34.52 13 8 C12.34 8 11.68 8 11 8 C11 7.34 11 6.68 11 6 C7.37 5.34 3.74 4.68 0 4 C0 2.68 0 1.36 0 0 Z " fill="#181818" transform="translate(71,330)"/>
<path d="M0 0 C1.65 0.33 3.3 0.66 5 1 C5.05945801 1.71728271 5.11891602 2.43456543 5.18017578 3.17358398 C7.31208172 27.87895805 10.38939941 54.36259341 23.80078125 75.890625 C24.19652344 76.58671875 24.59226563 77.2828125 25 78 C24.67 78.66 24.34 79.32 24 80 C24 82.39314981 24.51444606 84.66934109 25 87 C25.99 87.495 25.99 87.495 27 88 C28 89 28 89 28 91 C28.99 91.33 29.98 91.66 31 92 C32.60769874 94.33116317 33.09530596 95.42816426 32.625 98.25 C32.41875 98.8275 32.2125 99.405 32 100 C32.99 99.34 33.98 98.68 35 98 C35.33 98.99 35.66 99.98 36 101 C36.99 101.33 37.98 101.66 39 102 C37.02 104.31 35.04 106.62 33 109 C31.8553125 108.5359375 31.8553125 108.5359375 30.6875 108.0625 C28.81210323 107.32106407 26.91315348 106.63771783 25 106 C24.01 105.01 24.01 105.01 23 104 C22.01 104.495 22.01 104.495 21 105 C13.72758227 94.37411659 7.75902892 83.96294358 3 72 C2.61328125 71.09894531 2.2265625 70.19789063 1.828125 69.26953125 C-5.66751972 51.59710736 -11.60009225 28.21213643 -6.84375 9.046875 C-5.34370433 5.40787532 -2.78551204 2.72419574 0 0 Z " fill="#F6DED8" transform="translate(128,123)"/>
<path d="M0 0 C3.43045294 2.76180534 6.13545197 5.78545984 6.80050659 10.28158569 C6.94261585 12.75993029 6.99350779 15.22467271 7.01171875 17.70703125 C7.02966995 18.60999435 7.04762115 19.51295746 7.06611633 20.44328308 C7.12013021 23.31630844 7.15408637 26.18916851 7.1875 29.0625 C7.22068096 31.01499691 7.25517134 32.96747204 7.29101562 34.91992188 C7.3758516 39.69649516 7.44270536 44.47302018 7.5 49.25 C9.81 49.25 12.12 49.25 14.5 49.25 C14.5 48.59 14.5 47.93 14.5 47.25 C15.49 47.25 16.48 47.25 17.5 47.25 C17.9375 49.4375 17.9375 49.4375 17.5 52.25 C14.4889684 55.24484326 11.79788387 57.25 7.5 57.25 C7.5 57.91 7.5 58.57 7.5 59.25 C4.44928825 59.537803 1.53939738 59.6972872 -1.5 59.25 C-3.60361696 56.8276532 -4.5 55.46754366 -4.5 52.25 C-5.16644531 52.7553125 -5.83289063 53.260625 -6.51953125 53.78125 C-12.50999892 58.00390134 -16.71667819 60.02803089 -24.08984375 59.69140625 C-26.54904093 59.24101844 -28.34020501 58.48774794 -30.5 57.25 C-30.5 56.59 -30.5 55.93 -30.5 55.25 C-31.16 55.25 -31.82 55.25 -32.5 55.25 C-34.90758736 51.03672212 -36.10801936 48.1141549 -35.5 43.25 C-33.83361264 39.00071224 -32.28932346 36.72303215 -28.5 34.25 C-26.73350945 33.50017546 -24.93858959 32.81489024 -23.125 32.1875 C-22.15691406 31.85105469 -21.18882812 31.51460938 -20.19140625 31.16796875 C-19.30324219 30.86503906 -18.41507813 30.56210937 -17.5 30.25 C-16.365625 29.8375 -15.23125 29.425 -14.0625 29 C-11.5 28.25 -11.5 28.25 -7.5 28.25 C-7.5 27.59 -7.5 26.93 -7.5 26.25 C-6.84 26.25 -6.18 26.25 -5.5 26.25 C-5.64111883 23.49968413 -5.78771165 20.74984582 -5.9375 18 C-5.97681641 17.22269531 -6.01613281 16.44539063 -6.05664062 15.64453125 C-6.09853516 14.89042969 -6.14042969 14.13632812 -6.18359375 13.359375 C-6.22025146 12.66811523 -6.25690918 11.97685547 -6.29467773 11.26464844 C-6.50675524 9.18371671 -6.94508677 7.26427578 -7.5 5.25 C-8.16 5.25 -8.82 5.25 -9.5 5.25 C-9.5 4.59 -9.5 3.93 -9.5 3.25 C-12.47 3.25 -15.44 3.25 -18.5 3.25 C-18.5 3.91 -18.5 4.57 -18.5 5.25 C-19.16 5.25 -19.82 5.25 -20.5 5.25 C-20.5825 6.508125 -20.665 7.76625 -20.75 9.0625 C-21.26044162 12.97358649 -21.26044162 12.97358649 -23.125 15.125 C-26.16869374 16.56674967 -29.23780659 17.43445165 -32.5 18.25 C-33.5 17.25 -33.5 17.25 -33.75 14.0625 C-33.48518881 10.02412943 -32.52444992 7.70843529 -30.5 4.25 C-29.84 4.25 -29.18 4.25 -28.5 4.25 C-28.5 3.59 -28.5 2.93 -28.5 2.25 C-26.92578125 0.99609375 -26.92578125 0.99609375 -24.8125 -0.3125 C-24.12800781 -0.74691406 -23.44351563 -1.18132812 -22.73828125 -1.62890625 C-15.60765131 -5.20044341 -6.45740471 -4.64312464 0 0 Z M-14.125 35.25 C-15.31351563 35.806875 -16.50203125 36.36375 -17.7265625 36.9375 C-18.64179688 37.370625 -19.55703125 37.80375 -20.5 38.25 C-20.5 38.91 -20.5 39.57 -20.5 40.25 C-21.49 40.58 -22.48 40.91 -23.5 41.25 C-23.71231713 44.36398457 -23.71590497 46.70304074 -22.5625 49.625 C-19.23685476 52.24520534 -15.5782683 51.55779383 -11.5 51.25 C-11.5 50.59 -11.5 49.93 -11.5 49.25 C-10.88125 49.12625 -10.2625 49.0025 -9.625 48.875 C-7.30879168 48.37802644 -7.30879168 48.37802644 -5.5 46.25 C-5.25622117 42.89255888 -5.25622117 42.89255888 -5.375 39.125 C-5.39304688 37.84367187 -5.41109375 36.56234375 -5.4296875 35.2421875 C-5.45289063 34.25476563 -5.47609375 33.26734375 -5.5 32.25 C-8.72452084 32.25 -11.23453013 33.88977889 -14.125 35.25 Z " fill="#1B1B1B" transform="translate(214.5,364.75)"/>
<path d="M0 0 C4.8009391 5.33311867 5.11438338 12.3447634 5.16796875 19.15234375 C5.18591995 20.00666992 5.20387115 20.86099609 5.22236633 21.74121094 C5.27607618 24.44070661 5.31023739 27.14002957 5.34375 29.83984375 C5.3769579 31.68231551 5.41145073 33.52476458 5.44726562 35.3671875 C5.53177943 39.85794744 5.59877656 44.34865967 5.65625 48.83984375 C7.96625 48.83984375 10.27625 48.83984375 12.65625 48.83984375 C12.65625 48.17984375 12.65625 47.51984375 12.65625 46.83984375 C13.64625 46.83984375 14.63625 46.83984375 15.65625 46.83984375 C16.09375 49.02734375 16.09375 49.02734375 15.65625 51.83984375 C12.6452184 54.83468701 9.95413387 56.83984375 5.65625 56.83984375 C5.65625 57.49984375 5.65625 58.15984375 5.65625 58.83984375 C0.45935881 59.45642406 0.45935881 59.45642406 -2.34375 58.83984375 C-4.51971146 56.77759049 -5.94417821 54.47749829 -7.34375 51.83984375 C-7.9625 52.33484375 -8.58125 52.82984375 -9.21875 53.33984375 C-11.34375 54.83984375 -11.34375 54.83984375 -13.34375 54.83984375 C-13.34375 55.49984375 -13.34375 56.15984375 -13.34375 56.83984375 C-16.6040618 58.77757623 -19.07236936 59.11056562 -22.84375 59.08984375 C-23.7821875 59.095 -24.720625 59.10015625 -25.6875 59.10546875 C-28.38422676 58.83579607 -30.03324293 58.21306965 -32.34375 56.83984375 C-32.34375 56.17984375 -32.34375 55.51984375 -32.34375 54.83984375 C-33.00375 54.83984375 -33.66375 54.83984375 -34.34375 54.83984375 C-37.25179078 49.25640546 -37.86130629 46.01123932 -36.34375 39.83984375 C-34.40625 37.33984375 -34.40625 37.33984375 -32.34375 35.83984375 C-31.68375 35.83984375 -31.02375 35.83984375 -30.34375 35.83984375 C-30.34375 35.17984375 -30.34375 34.51984375 -30.34375 33.83984375 C-24.06634265 31.48879955 -17.81048013 29.31079435 -11.33984375 27.55078125 C-9.14938827 26.93139581 -9.14938827 26.93139581 -7.34375 24.83984375 C-7.02257788 21.65393017 -7.02257788 21.65393017 -7.09375 18.02734375 C-7.08859375 16.80402344 -7.0834375 15.58070313 -7.078125 14.3203125 C-7.33108555 11.00578525 -7.80690501 8.76742522 -9.34375 5.83984375 C-10.00375 5.50984375 -10.66375 5.17984375 -11.34375 4.83984375 C-11.34375 4.17984375 -11.34375 3.51984375 -11.34375 2.83984375 C-14.31375 2.83984375 -17.28375 2.83984375 -20.34375 2.83984375 C-20.34375 3.49984375 -20.34375 4.15984375 -20.34375 4.83984375 C-21.00375 4.83984375 -21.66375 4.83984375 -22.34375 4.83984375 C-22.281875 6.66515625 -22.281875 6.66515625 -22.21875 8.52734375 C-22.45703125 10.7265625 -22.45703125 10.7265625 -23.34375 12.83984375 C-26.4585366 15.0737878 -29.76814923 16.49007068 -33.34375 17.83984375 C-34.00375 17.17984375 -34.66375 16.51984375 -35.34375 15.83984375 C-35.05642364 11.3862851 -34.7493698 7.68883543 -32.34375 3.83984375 C-31.68375 3.83984375 -31.02375 3.83984375 -30.34375 3.83984375 C-30.34375 3.17984375 -30.34375 2.51984375 -30.34375 1.83984375 C-28.76953125 0.5859375 -28.76953125 0.5859375 -26.65625 -0.72265625 C-25.97175781 -1.15707031 -25.28726562 -1.59148437 -24.58203125 -2.0390625 C-16.68096976 -5.99648771 -7.33932936 -4.36938888 0 0 Z M-14.90625 34.33984375 C-15.61716797 34.67371094 -16.32808594 35.00757813 -17.06054688 35.3515625 C-18.82241585 36.17928618 -20.5831856 37.00934887 -22.34375 37.83984375 C-22.34375 38.49984375 -22.34375 39.15984375 -22.34375 39.83984375 C-23.00375 39.83984375 -23.66375 39.83984375 -24.34375 39.83984375 C-25.18829356 43.218018 -25.45219919 45.51449618 -24.34375 48.83984375 C-23.68375 48.83984375 -23.02375 48.83984375 -22.34375 48.83984375 C-22.34375 49.49984375 -22.34375 50.15984375 -22.34375 50.83984375 C-17.51361979 51.43128827 -13.43052447 51.50370036 -9.28125 48.71484375 C-6.69205154 46.25689498 -6.35464714 44.9290022 -5.9140625 41.32421875 C-5.90693182 37.80166119 -6.04095335 34.34843989 -6.34375 30.83984375 C-9.10690784 30.83984375 -12.3750983 33.14464176 -14.90625 34.33984375 Z " fill="#191919" transform="translate(414.34375,365.16015625)"/>
<path d="M0 0 C4.52705337 3.14378706 6.58004469 6.16008937 9 11 C9 11.66 9 12.32 9 13 C9.66 13 10.32 13 11 13 C12.33619621 14.65770921 13.59462139 16.37852016 14.8125 18.125 C17.10975852 21.37631124 19.38594558 24.55895896 22 27.5625 C24 30 24 30 24 32 C24.66 32 25.32 32 26 32 C26 32.66 26 33.32 26 34 C26.639375 34.268125 27.27875 34.53625 27.9375 34.8125 C30 36 30 36 31 39 C32.87611921 40.06601589 32.87611921 40.06601589 35 41 C36.14476446 41.84710914 37.26334289 42.73056152 38.35546875 43.64453125 C38.97413818 44.15467773 39.59280762 44.66482422 40.23022461 45.19042969 C41.19907593 45.99335449 41.19907593 45.99335449 42.1875 46.8125 C47.54981147 51.19197071 52.75780168 54.93365697 59 58 C59 58.66 59 59.32 59 60 C59.58716797 60.132854 60.17433594 60.26570801 60.77929688 60.40258789 C64.19984952 61.32278274 67.31331185 62.91840885 70.5 64.4375 C71.16386719 64.75009766 71.82773438 65.06269531 72.51171875 65.38476562 C75.69314708 66.8865776 78.86292194 68.40745272 82 70 C78.67465243 71.10844919 76.37817425 70.84454356 73 70 C73 69.34 73 68.68 73 68 C72.4225 68.309375 71.845 68.61875 71.25 68.9375 C69.15705816 69.92583364 67.25464725 70.5168613 65 71 C65 71.66 65 72.32 65 73 C64.01 73.66 63.02 74.32 62 75 C61.06800781 75.64001953 61.06800781 75.64001953 60.1171875 76.29296875 C58 77 58 77 55.6328125 75.98828125 C54.80523437 75.43527344 53.97765625 74.88226563 53.125 74.3125 C49.48053008 71.9565335 45.91820323 69.855991 42 68 C42 67.34 42 66.68 42 66 C41.18789062 65.87431641 41.18789062 65.87431641 40.359375 65.74609375 C37.18252177 64.74149281 34.93396497 63.02577067 32.25 61.0625 C31.26515625 60.35222656 30.2803125 59.64195312 29.265625 58.91015625 C28.51796875 58.27980469 27.7703125 57.64945312 27 57 C27 56.34 27 55.68 27 55 C26.41863281 54.73445313 25.83726562 54.46890625 25.23828125 54.1953125 C18.48006546 50.58621297 12.5048826 44.12382479 8 38 C8 37.34 8 36.68 8 36 C7.34 36 6.68 36 6 36 C4.45703125 34.390625 4.45703125 34.390625 2.8125 32.25 C2.26207031 31.55390625 1.71164063 30.8578125 1.14453125 30.140625 C0 28 0 28 1 24 C3.64 25.98 6.28 27.96 9 30 C12.76687864 28.11656068 13.79421646 27.30867531 16 24 C15.01 23.01 14.02 22.02 13 21 C12.01 21.99 11.02 22.98 10 24 C9 21 9 21 9.6875 19.0625 C9.8421875 18.0415625 9.8421875 18.0415625 10 17 C8.10413616 14.85410577 8.10413616 14.85410577 6 13 C6 12.34 6 11.68 6 11 C5.34 11 4.68 11 4 11 C3.67 11.66 3.34 12.32 3 13 C2.87625 12.154375 2.7525 11.30875 2.625 10.4375 C1.97229673 6.84763202 1.04752537 3.49175125 0 0 Z " fill="#CC4F2F" transform="translate(150,201)"/>
<path d="M0 0 C3.62484999 -0.08681476 7.24943443 -0.14032721 10.875 -0.1875 C12.42380859 -0.22520508 12.42380859 -0.22520508 14.00390625 -0.26367188 C14.99003906 -0.27333984 15.97617187 -0.28300781 16.9921875 -0.29296875 C17.90339355 -0.3086792 18.81459961 -0.32438965 19.75341797 -0.34057617 C20.49479004 -0.22818604 21.23616211 -0.1157959 22 0 C24 3 24 3 23.625 5.1875 C23.41875 5.785625 23.2125 6.38375 23 7 C22.67 6.01 22.34 5.02 22 4 C18.88387743 1.92258495 15.6648732 1.49975544 12 1 C12 1.66 12 2.32 12 3 C11.01 3.495 11.01 3.495 10 4 C10 16.87 10 29.74 10 43 C10.99 41.68 11.98 40.36 13 39 C13.66 39 14.32 39 15 39 C15 35.37 15 31.74 15 28 C15.33 28 15.66 28 16 28 C16.34801923 47.42215035 15.35039892 66.63650053 14 86 C17.96 86.99 21.92 87.98 26 89 C25.505 90.98 25.505 90.98 25 93 C14.44 93 3.88 93 -7 93 C-7 91.68 -7 90.36 -7 89 C-3.7 88.01 -0.4 87.02 3 86 C4.58756164 78.20359404 5.35594762 70.75720967 5.5625 62.8125 C5.62308689 60.75641316 5.68682362 58.70041641 5.75390625 56.64453125 C5.77783447 55.75096924 5.8017627 54.85740723 5.82641602 53.93676758 C5.95982437 51.67970837 6.20985365 49.42931687 6.50927734 47.18823242 C7.07005372 42.89245288 7.12758738 38.67088617 7.09765625 34.34375 C7.0962413 33.55601196 7.09482635 32.76827393 7.09336853 31.95666504 C7.08782612 29.47106936 7.07528485 26.98556789 7.0625 24.5 C7.05747754 22.80208465 7.05291595 21.10416786 7.04882812 19.40625 C7.03787564 15.27079771 7.02065166 11.13541476 7 7 C4.69 6.01 2.38 5.02 0 4 C0 2.68 0 1.36 0 0 Z " fill="#A8482E" transform="translate(249,330)"/>
<path d="M0 0 C4.60625394 -0.32136655 7.33513904 0.08966924 11 3 C11 3.99 11 4.98 11 6 C11.99 6.33 12.98 6.66 14 7 C15.3186913 10.23678773 15.07663627 13.55136802 15 17 C15 17.33 15 17.66 15 18 C16.2065625 19.0828125 16.2065625 19.0828125 17.4375 20.1875 C20.26054725 23.2859665 20.71389986 24.89923137 21 29 C20.360625 29.268125 19.72125 29.53625 19.0625 29.8125 C16.66868314 30.88667752 16.66868314 30.88667752 16 34 C14.35 33.67 12.7 33.34 11 33 C10.87625 32.13375 10.87625 32.13375 10.75 31.25 C9.79468987 28.3840696 8.21530827 27.0009236 6 25 C3.4186853 27.5813147 3.74979591 28.7943173 3.625 32.375 C3.24369373 37.68555648 3.24369373 37.68555648 1.0625 40.5 C0.381875 40.995 -0.29875 41.49 -1 42 C-1.66 42.99 -2.32 43.98 -3 45 C-3 31.14 -3 17.28 -3 3 C-2.01 2.67 -1.02 2.34 0 2 C0 1.34 0 0.68 0 0 Z " fill="#A93B1F" transform="translate(261,331)"/>
<path d="M0 0 C-1.04874998 2.62187494 -1.64931313 3.79371361 -4.125 5.25 C-4.74375 5.4975 -5.3625 5.745 -6 6 C-6 6.66 -6 7.32 -6 8 C-7.4609375 9.2890625 -7.4609375 9.2890625 -9.375 10.625 C-10.00148438 11.07101562 -10.62796875 11.51703125 -11.2734375 11.9765625 C-13 13 -13 13 -15 13 C-15 13.66 -15 14.32 -15 15 C-20.29411765 19 -20.29411765 19 -24 19 C-24 19.66 -24 20.32 -24 21 C-29.65196853 23.698748 -35.31738615 26.36637403 -41 29 C-42.04542969 29.4846875 -43.09085937 29.969375 -44.16796875 30.46875 C-50.14642148 33.09960649 -56.22279461 35.04482796 -62.5 36.8125 C-63.66776978 37.14157349 -63.66776978 37.14157349 -64.85913086 37.47729492 C-68.47088882 38.45471483 -71.19417846 39 -75 39 C-75 38.34 -75 37.68 -75 37 C-73.989375 36.9175 -72.97875 36.835 -71.9375 36.75 C-67.62213084 36.15993932 -64.65261803 34.31083998 -61 32 C-61 31.34 -61 30.68 -61 30 C-63.98241547 29.22678118 -66.97580475 28.58803797 -70 28 C-70 27.67 -70 27.34 -70 27 C-69.22398437 26.90203125 -68.44796875 26.8040625 -67.6484375 26.703125 C-56.66683017 25.18299797 -46.09326155 22.64290031 -36 18 C-34.845 17.608125 -33.69 17.21625 -32.5 16.8125 C-27.46710273 14.98596529 -22.84953378 12.30598691 -18.19140625 9.69262695 C-13.31419517 7 -13.31419517 7 -10 7 C-10 6.34 -10 5.68 -10 5 C-8.3203125 3.7109375 -8.3203125 3.7109375 -6.125 2.375 C-5.40570313 1.92898437 -4.68640625 1.48296875 -3.9453125 1.0234375 C-2 0 -2 0 0 0 Z " fill="#C8553A" transform="translate(381,252)"/>
<path d="M0 0 C0.66 0 1.32 0 2 0 C2.49628906 1.19753906 2.99257813 2.39507812 3.50390625 3.62890625 C10.55787874 20.64989197 10.55787874 20.64989197 18.69921875 37.16796875 C20 40 20 40 20 44 C20.66 44 21.32 44 22 44 C21.67 45.32 21.34 46.64 21 48 C21 47.34 21 46.68 21 46 C20.34 46 19.68 46 19 46 C18.505 43.525 18.505 43.525 18 41 C14.535 41.495 14.535 41.495 11 42 C10.44918637 48.74746701 11.30282695 52.34550005 15 58 C15.70286303 59.65172812 16.38655243 61.31301918 17 63 C16.01 63.99 16.01 63.99 15 65 C10.88003164 56.27081705 6.87666153 47.50166576 3.00219727 38.66064453 C0.28732588 32.51915265 -2.70863424 26.55960616 -5.84765625 20.625 C-6.22792969 19.75875 -6.60820312 18.8925 -7 18 C-6.67 17.34 -6.34 16.68 -6 16 C-4.5 17.375 -4.5 17.375 -3 19 C-3 19.66 -3 20.32 -3 21 C-1.35 21.33 0.3 21.66 2 22 C2 21.01 2 20.02 2 19 C3.32 18.67 4.64 18.34 6 18 C5.56802365 13.2482602 4.67230705 11.07999946 1 8 C0.01 8.495 0.01 8.495 -1 9 C-0.67 6.03 -0.34 3.06 0 0 Z " fill="#AC482F" transform="translate(275,342)"/>
<path d="M0 0 C4.52705337 3.14378706 6.58004469 6.16008937 9 11 C9 11.66 9 12.32 9 13 C9.66 13 10.32 13 11 13 C12.33619621 14.65770921 13.59462139 16.37852016 14.8125 18.125 C17.10975852 21.37631124 19.38594558 24.55895896 22 27.5625 C24 30 24 30 24 32 C24.66 32 25.32 32 26 32 C26 32.66 26 33.32 26 34 C27.485 34.495 27.485 34.495 29 35 C28.34 35.66 27.68 36.32 27 37 C23.875 36.625 23.875 36.625 21 36 C20.67 36.99 20.34 37.98 20 39 C19.01 39.495 19.01 39.495 18 40 C18 41.32 18 42.64 18 44 C18.66 44.33 19.32 44.66 20 45 C19.67 45.99 19.34 46.98 19 48 C19.66 48 20.32 48 21 48 C20.67 48.66 20.34 49.32 20 50 C15.36310537 46.62771299 11.44017707 42.58029339 8 38 C8 37.34 8 36.68 8 36 C7.34 36 6.68 36 6 36 C4.45703125 34.390625 4.45703125 34.390625 2.8125 32.25 C2.26207031 31.55390625 1.71164063 30.8578125 1.14453125 30.140625 C0 28 0 28 1 24 C3.64 25.98 6.28 27.96 9 30 C12.76687864 28.11656068 13.79421646 27.30867531 16 24 C15.01 23.01 14.02 22.02 13 21 C12.01 21.99 11.02 22.98 10 24 C9 21 9 21 9.6875 19.0625 C9.8421875 18.0415625 9.8421875 18.0415625 10 17 C8.10413616 14.85410577 8.10413616 14.85410577 6 13 C6 12.34 6 11.68 6 11 C5.34 11 4.68 11 4 11 C3.67 11.66 3.34 12.32 3 13 C2.87625 12.154375 2.7525 11.30875 2.625 10.4375 C1.97229673 6.84763202 1.04752537 3.49175125 0 0 Z " fill="#DC856F" transform="translate(150,201)"/>
<path d="M0 0 C0.33 0 0.66 0 1 0 C1.33 5.94 1.66 11.88 2 18 C2.66 18 3.32 18 4 18 C6 20 6 20 7 22 C9.32156597 22.40729228 11.6568787 22.74438677 14 23 C14 23.33 14 23.66 14 24 C1.46 24 -11.08 24 -24 24 C-24 23.01 -24 22.02 -24 21 C-16.57142857 20.85714286 -16.57142857 20.85714286 -13 22 C-11.68 20.35 -10.36 18.7 -9 17 C-9.33 16.34 -9.66 15.68 -10 15 C-10.14640501 13.35857459 -10.22096589 11.7101859 -10.25 10.0625 C-10.27578125 9.18722656 -10.3015625 8.31195313 -10.328125 7.41015625 C-10 5 -10 5 -8.68359375 3.1953125 C-6.17555044 1.41465994 -3.98539002 1.800974 -1 2 C-0.67 1.34 -0.34 0.68 0 0 Z " fill="#A9391C" transform="translate(348,398)"/>
<path d="M0 0 C4.29 0 8.58 0 13 0 C14.32 2.64 15.64 5.28 17 8 C18.32 5.36 19.64 2.72 21 0 C21.99 0.33 22.98 0.66 24 1 C22.08174065 6.63689619 20.03703548 12.20608054 17.5625 17.625 C17.19253906 18.44226563 16.82257813 19.25953125 16.44140625 20.1015625 C15 22 15 22 12.33984375 22.7734375 C11.56769531 22.84820312 10.79554688 22.92296875 10 23 C10 21.35 10 19.7 10 18 C11.32 17.67 12.64 17.34 14 17 C13.39124095 12.86043846 11.89477831 9.70717496 10 6 C10 5.34 10 4.68 10 4 C8.35 4 6.7 4 5 4 C4.67 7.96 4.34 11.92 4 16 C2.68 16 1.36 16 0 16 C0 10.72 0 5.44 0 0 Z " fill="#636363" transform="translate(322,455)"/>
<path d="M0 0 C2.56050847 4.16082626 2.31622525 7.83912748 1.625 12.5625 C0.96018509 15.15527814 0.05354243 17.54173433 -1 20 C-2.32 20 -3.64 20 -5 20 C-5.33 21.32 -5.66 22.64 -6 24 C-6.66 24 -7.32 24 -8 24 C-8 24.66 -8 25.32 -8 26 C-9.32 25.34 -10.64 24.68 -12 24 C-11.39792411 16.47405131 -9.68680016 9.05979904 -7 2 C-4 0 -4 0 0 0 Z " fill="#202020" transform="translate(202,137)"/>
<path d="M0 0 C0.66 0.33 1.32 0.66 2 1 C2 1.66 2 2.32 2 3 C2.66 3 3.32 3 4 3 C6.34144827 6.65851291 6.44965259 9.72830036 6 14 C3.9209015 17.22618733 2.19960471 18.8669302 -1 21 C-3.12109375 21.265625 -3.12109375 21.265625 -5.4375 21.25 C-6.19933594 21.25515625 -6.96117187 21.2603125 -7.74609375 21.265625 C-10.28289809 20.96666019 -11.84930201 20.36987133 -14 19 C-16.38598167 15.42102749 -16.78579503 13.28409945 -17 9 C-15.8443902 5.14796735 -14.80917715 2.7615785 -11.875 0 C-7.77734689 -1.42527065 -4.19765698 -0.89066199 0 0 Z M-11 4 C-12.89812078 6.65736909 -13.01797971 7.82020293 -12.6875 11.125 C-12.13365666 13.92179558 -12.13365666 13.92179558 -11 16 C-10.34 16 -9.68 16 -9 16 C-9 16.66 -9 17.32 -9 18 C-4.38608402 18.46573229 -4.38608402 18.46573229 -0.296875 16.765625 C1.75754264 13.96864677 1.47220067 11.53096429 1.3515625 8.1640625 C1.11896965 5.8004209 1.11896965 5.8004209 -0.6875 3.4375 C-4.77780959 0.89487512 -7.07531899 1.38354599 -11 4 Z " fill="#4A4A4A" transform="translate(172,450)"/>
<path d="M0 0 C3.3 0.33 6.6 0.66 10 1 C10.33 1.99 10.66 2.98 11 4 C11.5775 4.28875 12.155 4.5775 12.75 4.875 C15.76030003 6.38015001 17.70147544 8.57377963 20 11 C19.37351563 10.855625 18.74703125 10.71125 18.1015625 10.5625 C17.28429687 10.376875 16.46703125 10.19125 15.625 10 C14.81289062 9.814375 14.00078125 9.62875 13.1640625 9.4375 C11.04125049 8.93394761 11.04125049 8.93394761 9 9 C9.33 9.99 9.66 10.98 10 12 C9.01 12.61875 9.01 12.61875 8 13.25 C7.34 13.8275 6.68 14.405 6 15 C6 16.32 6 17.64 6 19 C6.721875 19.268125 7.44375 19.53625 8.1875 19.8125 C10.97590126 20.98982498 13.44095724 22.39145884 16 24 C15.67 24.99 15.34 25.98 15 27 C12.28775382 25.38731308 9.62647188 23.75098126 7 22 C7 21.34 7 20.68 7 20 C6.071875 19.566875 6.071875 19.566875 5.125 19.125 C3 18 3 18 1 16 C1 15.01 1 14.02 1 13 C0.34 13 -0.32 13 -1 13 C-1.66666667 10.33333333 -2.33333333 7.66666667 -3 5 C-2.01 4.34 -1.02 3.68 0 3 C0 2.01 0 1.02 0 0 Z " fill="#D67056" transform="translate(170,236)"/>
<path d="M0 0 C2.4294516 3.6441774 2.16179575 5.71241272 2 10 C2.99 9.67 3.98 9.34 5 9 C4.38333953 12.74422073 3.30434425 15.86021688 1.71484375 19.30078125 C1.26689453 20.27724609 0.81894531 21.25371094 0.35742188 22.25976562 C-0.11115234 23.26716797 -0.57972656 24.27457031 -1.0625 25.3125 C-1.77116211 26.85260742 -1.77116211 26.85260742 -2.49414062 28.42382812 C-3.65802325 30.951452 -4.82677855 33.47670072 -6 36 C-6.33 36 -6.66 36 -7 36 C-7 34.02 -7 32.04 -7 30 C-6.34 30 -5.68 30 -5 30 C-5 28.35 -5 26.7 -5 25 C-6.32 25.33 -7.64 25.66 -9 26 C-9 26.99 -9 27.98 -9 29 C-9.66 29 -10.32 29 -11 29 C-11.33 30.32 -11.66 31.64 -12 33 C-12.66 33 -13.32 33 -14 33 C-12.2421626 27.08337656 -9.98292555 21.71332353 -7.0859375 16.26171875 C-6.07882358 14.16416854 -5.46772717 12.27107524 -5 10 C-4.34 10 -3.68 10 -3 10 C-2.87625 9.278125 -2.7525 8.55625 -2.625 7.8125 C-2.0095069 5.04278106 -1.11555626 2.6029646 0 0 Z " fill="#A9452B" transform="translate(320,361)"/>
<path d="M0 0 C1.32 0 2.64 0 4 0 C4 1.65 4 3.3 4 5 C5.0725 4.896875 6.145 4.79375 7.25 4.6875 C11 5 11 5 13.4375 7.125 C15.28042686 10.51598543 15.63358675 12.19847951 15 16 C13.6875 18.875 13.6875 18.875 11 21 C7.23191711 21.42831446 3.81394061 21.22702027 0 21 C0 14.07 0 7.14 0 0 Z M4 9 C4 11.64 4 14.28 4 17 C6.475 17.495 6.475 17.495 9 18 C10.28776153 15.22174544 10.28776153 15.22174544 11 12 C9.8924098 9.57715762 9.8924098 9.57715762 8 8 C5.9254644 7.8509288 5.9254644 7.8509288 4 9 Z " fill="#1A1A1A" transform="translate(280,450)"/>
<path d="M0 0 C0.33 0 0.66 0 1 0 C3.15167136 28.47122283 3.15167136 28.47122283 -1 36 C-3.109375 36.7734375 -3.109375 36.7734375 -5 37 C-5 37.66 -5 38.32 -5 39 C0.61 39 6.22 39 12 39 C12.33 38.34 12.66 37.68 13 37 C16.465 37.495 16.465 37.495 20 38 C19.67 39.32 19.34 40.64 19 42 C8.44 42 -2.12 42 -13 42 C-13 40.68 -13 39.36 -13 38 C-9.7 37.01 -6.4 36.02 -3 35 C-1.37658757 27.04791877 -0.61322363 19.41706624 -0.375 11.3125 C-0.33632812 10.21744141 -0.29765625 9.12238281 -0.2578125 7.99414062 C-0.16472748 5.329582 -0.07890148 2.66500978 0 0 Z " fill="#A7543F" transform="translate(255,381)"/>
<path d="M0 0 C2.62643261 2.62643261 2.2763402 3.84689194 2.34375 7.51171875 C2.38592651 9.22210327 2.38592651 9.22210327 2.42895508 10.96704102 C2.4523999 12.19479248 2.47584473 13.42254395 2.5 14.6875 C2.77065604 24.15923948 3.1031449 33.6123307 3.8125 43.0625 C3.87050781 44.02438232 3.92851562 44.98626465 3.98828125 45.97729492 C4.06046875 46.86263916 4.13265625 47.7479834 4.20703125 48.66015625 C4.2635083 49.42980713 4.31998535 50.19945801 4.37817383 50.99243164 C5.22640661 53.73095466 6.59682237 54.53056258 9 56 C11.11264636 56.76681725 11.11264636 56.76681725 13.25 57.1875 C14.4875 57.455625 15.725 57.72375 17 58 C16.67 59.32 16.34 60.64 16 62 C3.46 62 -9.08 62 -22 62 C-22 61.67 -22 61.34 -22 61 C-12.43 60.67 -2.86 60.34 7 60 C6.67 59.34 6.34 58.68 6 58 C5.67 57.01 5.34 56.02 5 55 C4.34 55 3.68 55 3 55 C1.81873268 51.45619804 1.66246369 48.09113054 1.46484375 44.39453125 C1.40037804 43.25923225 1.40037804 43.25923225 1.33460999 42.10099792 C1.24437425 40.49135535 1.15625093 38.88159319 1.07006836 37.27172852 C0.94040002 34.86629727 0.80179168 32.46150843 0.66210938 30.05664062 C0.09982569 20.02517372 -0.11666088 10.04752671 0 0 Z " fill="#B87563" transform="translate(347,361)"/>
<path d="M0 0 C-0.99 0.33 -1.98 0.66 -3 1 C-3.309375 1.928125 -3.61875 2.85625 -3.9375 3.8125 C-5.16067594 7.48202782 -5.98021469 8.61347171 -9 11 C-11.93472223 12.18410877 -14.93607112 12.97178164 -18 13.75 C-18.80695313 13.97042969 -19.61390625 14.19085938 -20.4453125 14.41796875 C-24.17237273 15.40816132 -27.09345854 16 -31 16 C-31 15.34 -31 14.68 -31 14 C-29.989375 13.9175 -28.97875 13.835 -27.9375 13.75 C-23.62213084 13.15993932 -20.65261803 11.31083998 -17 9 C-17 8.34 -17 7.68 -17 7 C-19.98241547 6.22678118 -22.97580475 5.58803797 -26 5 C-26 4.67 -26 4.34 -26 4 C-25.16597656 3.89042969 -24.33195312 3.78085937 -23.47265625 3.66796875 C-17.33600291 2.80335436 -11.66009027 1.82011334 -5.90234375 -0.51171875 C-3.60855579 -1.10047336 -2.22131232 -0.73713928 0 0 Z " fill="#CD593B" transform="translate(337,275)"/>
<path d="M0 0 C2.4375 2.1875 2.4375 2.1875 4 5 C4 6.65 4 8.3 4 10 C0.7 10.33 -2.6 10.66 -6 11 C-4.96298597 12.26626225 -4.96298597 12.26626225 -2.6875 12.0625 C-1.800625 12.041875 -0.91375 12.02125 0 12 C1.32 12 2.64 12 4 12 C4 12.66 4 13.32 4 14 C1.00261059 15.99825961 0.36652492 16.27550398 -3 16.25 C-4.0209375 16.25773437 -4.0209375 16.25773437 -5.0625 16.265625 C-7 16 -7 16 -10 14 C-10.546875 11.94140625 -10.546875 11.94140625 -10.75 9.5625 C-10.82734375 8.78003906 -10.9046875 7.99757813 -10.984375 7.19140625 C-11 5 -11 5 -10 2 C-6.26744552 -0.48836965 -4.41559065 -0.54226552 0 0 Z M-5 3 C-5.66 4.32 -6.32 5.64 -7 7 C-4.69 7 -2.38 7 0 7 C-0.66 5.68 -1.32 4.36 -2 3 C-2.99 3 -3.98 3 -5 3 Z " fill="#595959" transform="translate(239,455)"/>
<path d="M0 0 C0.99 0 1.98 0 3 0 C4.07076309 4.9522793 3.97568903 9.58222443 3.7421875 14.609375 C3.82726562 15.39828125 3.91234375 16.1871875 4 17 C6.8684413 19.10232344 6.8684413 19.10232344 10 20 C10.33 20.66 10.66 21.32 11 22 C3.41 22 -4.18 22 -12 22 C-10.68 21.67 -9.36 21.34 -8 21 C-8 20.34 -8 19.68 -8 19 C-7.01 18.67 -6.02 18.34 -5 18 C-4.00182378 15.91216712 -4.00182378 15.91216712 -3.375 13.375 C-3.1275 12.47652344 -2.88 11.57804687 -2.625 10.65234375 C-1.86825422 7.44090386 -1.41749507 4.27037807 -1 1 C-0.67 0.67 -0.34 0.34 0 0 Z " fill="#A8391B" transform="translate(258,399)"/>
<path d="M0 0 C1.91015625 0.23046875 1.91015625 0.23046875 3.91015625 2.23046875 C4.10546875 5.48828125 4.10546875 5.48828125 4.03515625 9.35546875 C4.01710938 10.63679688 3.9990625 11.918125 3.98046875 13.23828125 C3.95726562 14.22570312 3.9340625 15.213125 3.91015625 16.23046875 C2.30682834 16.31168799 0.70231599 16.36976009 -0.90234375 16.41796875 C-2.24232422 16.47017578 -2.24232422 16.47017578 -3.609375 16.5234375 C-6.08984375 16.23046875 -6.08984375 16.23046875 -7.89453125 14.875 C-9.58010609 12.55595749 -9.44015564 11.03296387 -9.08984375 8.23046875 C-8.42984375 7.24046875 -7.76984375 6.25046875 -7.08984375 5.23046875 C-7.08984375 3.91046875 -7.08984375 2.59046875 -7.08984375 1.23046875 C-5.19495423 -0.66442077 -2.51845229 0.05027763 0 0 Z M-3.08984375 3.23046875 C-3.74984375 3.89046875 -4.40984375 4.55046875 -5.08984375 5.23046875 C-3.43984375 5.23046875 -1.78984375 5.23046875 -0.08984375 5.23046875 C-0.08984375 4.57046875 -0.08984375 3.91046875 -0.08984375 3.23046875 C-1.07984375 3.23046875 -2.06984375 3.23046875 -3.08984375 3.23046875 Z M-4.08984375 8.23046875 C-4.41984375 9.55046875 -4.74984375 10.87046875 -5.08984375 12.23046875 C-2.61484375 12.72546875 -2.61484375 12.72546875 -0.08984375 13.23046875 C-0.08984375 11.58046875 -0.08984375 9.93046875 -0.08984375 8.23046875 C-1.40984375 8.23046875 -2.72984375 8.23046875 -4.08984375 8.23046875 Z " fill="#6D6D6D" transform="translate(315.08984375,454.76953125)"/>
<path d="M0 0 C3.63 0 7.26 0 11 0 C11 0.66 11 1.32 11 2 C11.66 2 12.32 2 13 2 C13 6.62 13 11.24 13 16 C11.68 16 10.36 16 9 16 C9 12.04 9 8.08 9 4 C7.35 4 5.7 4 4 4 C4 7.96 4 11.92 4 16 C2.35 15.67 0.7 15.34 -1 15 C-1.02693575 12.87506859 -1.04636628 10.75004088 -1.0625 8.625 C-1.07410156 7.44164062 -1.08570313 6.25828125 -1.09765625 5.0390625 C-1 2 -1 2 0 0 Z " fill="#5B5B5B" transform="translate(213,455)"/>
<path d="M0 0 C0.66 0 1.32 0 2 0 C3.29543103 3.04007685 4.58565977 6.08233552 5.875 9.125 C6.23980469 9.9809375 6.60460937 10.836875 6.98046875 11.71875 C8.8342619 16.1004429 10.58343133 20.45206901 12 25 C9.36 24.34 6.72 23.68 4 23 C4.12375 24.3921875 4.12375 24.3921875 4.25 25.8125 C4.1675 26.864375 4.085 27.91625 4 29 C1.984375 30.69921875 1.984375 30.69921875 0 32 C-1.19725883 29.71296692 -2.38297018 27.42115138 -3.5625 25.125 C-3.90474609 24.47402344 -4.24699219 23.82304687 -4.59960938 23.15234375 C-5.46082891 21.46470143 -6.23686703 19.73420407 -7 18 C-6.67 17.34 -6.34 16.68 -6 16 C-4.5 17.375 -4.5 17.375 -3 19 C-3 19.66 -3 20.32 -3 21 C-1.35 21.33 0.3 21.66 2 22 C2 21.01 2 20.02 2 19 C3.32 18.67 4.64 18.34 6 18 C5.56802365 13.2482602 4.67230705 11.07999946 1 8 C0.01 8.495 0.01 8.495 -1 9 C-0.67 6.03 -0.34 3.06 0 0 Z " fill="#B25740" transform="translate(275,342)"/>
<path d="M0 0 C3.63 0 7.26 0 11 0 C11 0.66 11 1.32 11 2 C11.66 2 12.32 2 13 2 C13 6.62 13 11.24 13 16 C12.01 16 11.02 16 10 16 C9.93941406 15.30132812 9.87882813 14.60265625 9.81640625 13.8828125 C9.73261719 12.97273438 9.64882812 12.06265625 9.5625 11.125 C9.48128906 10.22007812 9.40007812 9.31515625 9.31640625 8.3828125 C9.13010715 5.98889139 9.13010715 5.98889139 8 4 C7.01 4.33 6.02 4.66 5 5 C4.67 8.63 4.34 12.26 4 16 C2.68 16 1.36 16 0 16 C0 10.72 0 5.44 0 0 Z " fill="#515151" transform="translate(180,455)"/>
<path d="M0 0 C3.62484999 -0.08681476 7.24943443 -0.14032721 10.875 -0.1875 C12.42380859 -0.22520508 12.42380859 -0.22520508 14.00390625 -0.26367188 C14.99003906 -0.27333984 15.97617187 -0.28300781 16.9921875 -0.29296875 C17.90339355 -0.3086792 18.81459961 -0.32438965 19.75341797 -0.34057617 C20.49479004 -0.22818604 21.23616211 -0.1157959 22 0 C24 3 24 3 23.625 5.1875 C23.41875 5.785625 23.2125 6.38375 23 7 C22.67 6.01 22.34 5.02 22 4 C18.88387743 1.92258495 15.6648732 1.49975544 12 1 C12 1.66 12 2.32 12 3 C11.01 3.495 11.01 3.495 10 4 C9.67 19.18 9.34 34.36 9 50 C8.34 50 7.68 50 7 50 C7 35.81 7 21.62 7 7 C4.69 6.01 2.38 5.02 0 4 C0 2.68 0 1.36 0 0 Z " fill="#BD7766" transform="translate(249,330)"/>
<path d="M0 0 C1.65 0 3.3 0 5 0 C5 5.94 5 11.88 5 18 C7.97 18 10.94 18 14 18 C14 18.99 14 19.98 14 21 C11.85423363 21.02685938 9.70837355 21.04633088 7.5625 21.0625 C6.36753906 21.07410156 5.17257812 21.08570313 3.94140625 21.09765625 C1 21 1 21 0 20 C-0.08669432 18.5112814 -0.10703494 17.018555 -0.09765625 15.52734375 C-0.09443359 14.62822266 -0.09121094 13.72910156 -0.08789062 12.80273438 C-0.07951172 11.85720703 -0.07113281 10.91167969 -0.0625 9.9375 C-0.05798828 8.98810547 -0.05347656 8.03871094 -0.04882812 7.06054688 C-0.0370011 4.70696935 -0.02052025 2.35351523 0 0 Z " fill="#434343" transform="translate(255,450)"/>
<path d="M0 0 C-1.04874998 2.62187494 -1.64931313 3.79371361 -4.125 5.25 C-4.74375 5.4975 -5.3625 5.745 -6 6 C-6 6.66 -6 7.32 -6 8 C-7.4609375 9.2890625 -7.4609375 9.2890625 -9.375 10.625 C-10.00148438 11.07101562 -10.62796875 11.51703125 -11.2734375 11.9765625 C-13 13 -13 13 -15 13 C-15 13.66 -15 14.32 -15 15 C-17.31 16.32 -19.62 17.64 -22 19 C-22 17.68 -22 16.36 -22 15 C-22.66 14.67 -23.32 14.34 -24 14 C-24.33 14.99 -24.66 15.98 -25 17 C-27.31 17.33 -29.62 17.66 -32 18 C-30.75243723 15.50487445 -29.81920639 15.25519381 -27.32421875 14.08984375 C-26.57849609 13.73986328 -25.83277344 13.38988281 -25.06445312 13.02929688 C-24.28005859 12.66900391 -23.49566406 12.30871094 -22.6875 11.9375 C-21.91470703 11.57333984 -21.14191406 11.20917969 -20.34570312 10.83398438 C-16.91203508 9.23672349 -13.70913174 7.82649977 -10 7 C-10 6.34 -10 5.68 -10 5 C-8.3203125 3.7109375 -8.3203125 3.7109375 -6.125 2.375 C-5.40570313 1.92898437 -4.68640625 1.48296875 -3.9453125 1.0234375 C-2 0 -2 0 0 0 Z " fill="#C65E45" transform="translate(381,252)"/>
<path d="M0 0 C7.26 0 14.52 0 22 0 C22 1.32 22 2.64 22 4 C19.09399739 5.25664978 17.20395416 6 14 6 C14 6.66 14 7.32 14 8 C13.34 8 12.68 8 12 8 C12 12.95 12 17.9 12 23 C9.44950449 20.44950449 9.7393521 18.76517246 9.7265625 15.28320312 C9.73429687 14.55037109 9.74203125 13.81753906 9.75 13.0625 C9.74226563 12.33353516 9.73453125 11.60457031 9.7265625 10.85351562 C9.74053829 7.04161777 9.83874073 5.2418889 12 2 C8.04 1.67 4.08 1.34 0 1 C0 0.67 0 0.34 0 0 Z " fill="#9A4028" transform="translate(335,330)"/>
<path d="M0 0 C4.52705337 3.14378706 6.58004469 6.16008937 9 11 C9 11.66 9 12.32 9 13 C9.66 13 10.32 13 11 13 C12.40268922 14.69491614 13.72390346 16.457835 15 18.25 C15.70125 19.22453125 16.4025 20.1990625 17.125 21.203125 C18.62191333 23.43602072 19.88577861 25.56264072 21 28 C16.25 29 16.25 29 14 29 C14.66 27.35 15.32 25.7 16 24 C15.01 23.01 14.02 22.02 13 21 C12.01 21.99 11.02 22.98 10 24 C9 21 9 21 9.6875 19.0625 C9.8421875 18.0415625 9.8421875 18.0415625 10 17 C8.10413616 14.85410577 8.10413616 14.85410577 6 13 C6 12.34 6 11.68 6 11 C5.34 11 4.68 11 4 11 C3.67 11.66 3.34 12.32 3 13 C2.87625 12.154375 2.7525 11.30875 2.625 10.4375 C1.97229673 6.84763202 1.04752537 3.49175125 0 0 Z " fill="#E6B0A2" transform="translate(150,201)"/>
<path d="M0 0 C2.84749024 1.1389961 4.56933147 2.5267608 6.421875 4.96875 C3.00200472 4.96875 0.47678813 4.49620657 -2.578125 2.96875 C-2.578125 3.62875 -2.578125 4.28875 -2.578125 4.96875 C-5.1395907 7.26523649 -6.05780072 7.96875 -9.578125 7.96875 C-9.908125 8.62875 -10.238125 9.28875 -10.578125 9.96875 C-11.238125 9.63875 -11.898125 9.30875 -12.578125 8.96875 C-13.203125 6.40625 -13.203125 6.40625 -13.578125 3.96875 C-12.918125 3.515 -12.258125 3.06125 -11.578125 2.59375 C-10.918125 2.0575 -10.258125 1.52125 -9.578125 0.96875 C-9.578125 0.30875 -9.578125 -0.35125 -9.578125 -1.03125 C-6.27688951 -2.68186775 -3.38948006 -1.057988 0 0 Z " fill="#D25031" transform="translate(188.578125,246.03125)"/>
<path d="M0 0 C0.33 0 0.66 0 1 0 C1.08564209 1.22630127 1.17128418 2.45260254 1.25952148 3.71606445 C1.57801603 8.26175796 1.90163311 12.80707471 2.22680664 17.35229492 C2.36687953 19.32029466 2.50555928 21.28839407 2.64282227 23.2565918 C2.84025568 26.0840949 3.04268115 28.9112028 3.24609375 31.73828125 C3.3065538 32.61962234 3.36701385 33.50096344 3.42930603 34.40901184 C3.48929276 35.22963608 3.54927948 36.05026031 3.61108398 36.89575195 C3.66215805 37.61745071 3.71323212 38.33914948 3.76585388 39.0827179 C3.96208992 41.21775827 3.96208992 41.21775827 5 44 C3.5 46.6875 3.5 46.6875 1 49 C-2.75 49.3125 -2.75 49.3125 -6 49 C-6.495 47.515 -6.495 47.515 -7 46 C-5.865625 45.690625 -4.73125 45.38125 -3.5625 45.0625 C-0.21224901 44.37075469 -0.21224901 44.37075469 1 43 C0.90271234 40.87222476 0.74270054 38.74736192 0.5625 36.625 C-0.36352227 24.44034395 -0.08710227 12.2103987 0 0 Z " fill="#A85C49" transform="translate(335,372)"/>
<path d="M0 0 C0.66 0.66 1.32 1.32 2 2 C1.625 4.125 1.625 4.125 1 6 C0.34 6 -0.32 6 -1 6 C-0.979375 7.093125 -0.95875 8.18625 -0.9375 9.3125 C-1 13 -1 13 -2 16 C-3.32 16 -4.64 16 -6 16 C-6.061875 16.78375 -6.12375 17.5675 -6.1875 18.375 C-6.5896875 19.674375 -6.5896875 19.674375 -7 21 C-9.5625 22.3125 -9.5625 22.3125 -12 23 C-12 20 -12 20 -11 18 C-10.01 17.67 -9.02 17.34 -8 17 C-8.33 16.01 -8.66 15.02 -9 14 C-7.35 14.33 -5.7 14.66 -4 15 C-4 14.34 -4 13.68 -4 13 C-5.32 12.67 -6.64 12.34 -8 12 C-8 11.01 -8 10.02 -8 9 C-7.34 8.67 -6.68 8.34 -6 8 C-5.67 7.01 -5.34 6.02 -5 5 C-4.34 5 -3.68 5 -3 5 C-3 4.01 -3 3.02 -3 2 C-2.01 1.34 -1.02 0.68 0 0 Z " fill="#A63F25" transform="translate(314,385)"/>
<path d="M0 0 C1.23556641 0.01740234 1.23556641 0.01740234 2.49609375 0.03515625 C3.32238281 0.04417969 4.14867187 0.05320312 5 0.0625 C5.63808594 0.07410156 6.27617187 0.08570313 6.93359375 0.09765625 C6.93359375 1.41765625 6.93359375 2.73765625 6.93359375 4.09765625 C5.28359375 4.09765625 3.63359375 4.09765625 1.93359375 4.09765625 C1.93359375 7.72765625 1.93359375 11.35765625 1.93359375 15.09765625 C0.61359375 15.42765625 -0.70640625 15.75765625 -2.06640625 16.09765625 C-3.06640625 15.09765625 -3.06640625 15.09765625 -3.19921875 11.97265625 C-3.19664062 10.69390625 -3.1940625 9.41515625 -3.19140625 8.09765625 C-3.19398438 6.81890625 -3.1965625 5.54015625 -3.19921875 4.22265625 C-3.02583327 0.14299779 -3.02583327 0.14299779 0 0 Z " fill="#595959" transform="translate(299.06640625,454.90234375)"/>
<path d="M0 0 C0.99 0.33 1.98 0.66 3 1 C3.33 2.65 3.66 4.3 4 6 C3.34 6.4125 2.68 6.825 2 7.25 C1.01 8.11625 1.01 8.11625 0 9 C0 10.32 0 11.64 0 13 C0.721875 13.268125 1.44375 13.53625 2.1875 13.8125 C4.97590126 14.98982498 7.44095724 16.39145884 10 18 C9.67 18.99 9.34 19.98 9 21 C6.28775382 19.38731308 3.62647188 17.75098126 1 16 C1 15.34 1 14.68 1 14 C0.071875 13.566875 0.071875 13.566875 -0.875 13.125 C-3 12 -3 12 -5 10 C-5 9.01 -5 8.02 -5 7 C-5.66 7 -6.32 7 -7 7 C-7 6.01 -7 5.02 -7 4 C-5.35 4 -3.7 4 -2 4 C-1.34 2.68 -0.68 1.36 0 0 Z " fill="#D36444" transform="translate(176,242)"/>
<path d="M0 0 C3.4375 0.8125 3.4375 0.8125 7 2 C7.33 2.99 7.66 3.98 8 5 C5.14057334 8.14536932 2.70494416 9.79207998 -1.5625 10.3125 C-4 10 -4 10 -5.8125 8.625 C-7 7 -7 7 -7 5 C-2.61538462 2 -2.61538462 2 0 2 C0 1.34 0 0.68 0 0 Z " fill="#CD441F" transform="translate(186,249)"/>
<path d="M0 0 C0.33 0.66 0.66 1.32 1 2 C2.65 1.67 4.3 1.34 6 1 C5.67 1.99 5.34 2.98 5 4 C5.66 4.33 6.32 4.66 7 5 C5.58192622 9.47238653 3.88695626 13.71146306 2 18 C1.67 18 1.34 18 1 18 C1 16.02 1 14.04 1 12 C1.66 12 2.32 12 3 12 C3 10.35 3 8.7 3 7 C1.68 7.33 0.36 7.66 -1 8 C-1 8.99 -1 9.98 -1 11 C-1.66 11 -2.32 11 -3 11 C-3.33 12.32 -3.66 13.64 -4 15 C-4.66 15 -5.32 15 -6 15 C-4.36041242 9.76727367 -2.61047965 4.84803364 0 0 Z " fill="#B45C48" transform="translate(312,379)"/>
<path d="M0 0 C1.32 0.66 2.64 1.32 4 2 C3.01 3.485 3.01 3.485 2 5 C1.34 5 0.68 5 0 5 C0 5.66 0 6.32 0 7 C-1.62249941 7.83819158 -3.24808497 8.6704116 -4.875 9.5 C-5.77992188 9.9640625 -6.68484375 10.428125 -7.6171875 10.90625 C-10 12 -10 12 -12 12 C-12 11.34 -12 10.68 -12 10 C-11.01 10 -10.02 10 -9 10 C-9 9.01 -9 8.02 -9 7 C-12.3 7.33 -15.6 7.66 -19 8 C-18 6 -18 6 -15.625 5 C-11.542949 3.87391697 -7.47676386 3.19486849 -3.29296875 2.5625 C-2.15794922 2.2840625 -2.15794922 2.2840625 -1 2 C-0.67 1.34 -0.34 0.68 0 0 Z " fill="#CD6C55" transform="translate(357,266)"/>
<path d="M0 0 C0.66 0.33 1.32 0.66 2 1 C2 2.65 2 4.3 2 6 C-1.875 4.125 -1.875 4.125 -3 3 C-6.06481021 2.8386942 -8.05549278 3.01849759 -11 4 C-11.73323796 6.01508358 -11.73323796 6.01508358 -12 8 C-12.33 7.01 -12.66 6.02 -13 5 C-13.99 6.98 -14.98 8.96 -16 11 C-17 9 -17 9 -15.875 5.5625 C-14.72860511 3.11105735 -13.88979345 1.89627619 -11.875 0 C-7.77734689 -1.42527065 -4.19765698 -0.89066199 0 0 Z " fill="#505050" transform="translate(172,450)"/>
<path d="M0 0 C0.33 0 0.66 0 1 0 C1 1.65 1 3.3 1 5 C-2.3 5.33 -5.6 5.66 -9 6 C-7.96298597 7.26626225 -7.96298597 7.26626225 -5.6875 7.0625 C-4.800625 7.041875 -3.91375 7.02125 -3 7 C-1.68 7 -0.36 7 1 7 C1 7.66 1 8.32 1 9 C-1.99738941 10.99825961 -2.63347508 11.27550398 -6 11.25 C-6.680625 11.25515625 -7.36125 11.2603125 -8.0625 11.265625 C-10 11 -10 11 -13 9 C-12.125 5.125 -12.125 5.125 -11 4 C-9.14712498 3.92773498 -7.29166122 3.9161878 -5.4375 3.9375 C-4.42558594 3.94652344 -3.41367188 3.95554687 -2.37109375 3.96484375 C-1.19740234 3.98224609 -1.19740234 3.98224609 0 4 C0 2.68 0 1.36 0 0 Z " fill="#686868" transform="translate(242,460)"/>
<path d="M0 0 C1.32 0 2.64 0 4 0 C4 5.28 4 10.56 4 16 C2.68 16 1.36 16 0 16 C0 10.72 0 5.44 0 0 Z " fill="#676767" transform="translate(205,455)"/>
<path d="M0 0 C1.32 0 2.64 0 4 0 C4 5.28 4 10.56 4 16 C2.68 16 1.36 16 0 16 C0 10.72 0 5.44 0 0 Z " fill="#3D3D3D" transform="translate(272,455)"/>
<path d="M0 0 C0.99 0 1.98 0 3 0 C3 6.93 3 13.86 3 21 C2.01 21 1.02 21 0 21 C0 14.07 0 7.14 0 0 Z " fill="#262626" transform="translate(197,450)"/>
<path d="M0 0 C1.32 0.33 2.64 0.66 4 1 C4 5.29 4 9.58 4 14 C1.36 14 -1.28 14 -4 14 C-2.68 13.67 -1.36 13.34 0 13 C-0.44703986 8.52116304 -0.44703986 8.52116304 -3 5 C-1.68 5 -0.36 5 1 5 C0.67 3.35 0.34 1.7 0 0 Z " fill="#141414" transform="translate(315,456)"/>
<path d="M0 0 C2.475 0.495 2.475 0.495 5 1 C5 5.62 5 10.24 5 15 C3.68 15 2.36 15 1 15 C0.67 10.05 0.34 5.1 0 0 Z " fill="#535353" transform="translate(221,456)"/>
<path d="M0 0 C0.33 0 0.66 0 1 0 C1 6.6 1 13.2 1 20 C4.465 19.505 4.465 19.505 8 19 C8.66 17.35 9.32 15.7 10 14 C11.32 14.33 12.64 14.66 14 15 C14 13.35 14 11.7 14 10 C14.33 10 14.66 10 15 10 C15.32542398 13.49830777 15.15667763 15.65680138 13.6875 18.875 C9.37365117 22.28595024 5.38358447 21.32045146 0 21 C0 14.07 0 7.14 0 0 Z " fill="#7C7C7C" transform="translate(280,450)"/>
<path d="M0 0 C0.99 0 1.98 0 3 0 C5.34144827 3.65851291 5.44965259 6.72830036 5 11 C3 13.9375 3 13.9375 1 16 C0.01 15.67 -0.98 15.34 -2 15 C-1.34 14.34 -0.68 13.68 0 13 C0.24360073 9.87185486 0.24360073 9.87185486 0.125 6.375 C0.10695312 5.18648438 0.08890625 3.99796875 0.0703125 2.7734375 C0.04710937 1.85820312 0.02390625 0.94296875 0 0 Z " fill="#1F1F1F" transform="translate(173,453)"/>
<path d="M0 0 C1.98 0 3.96 0 6 0 C5.5359375 0.928125 5.5359375 0.928125 5.0625 1.875 C3.5960722 6.18802294 3.33380974 10.4759996 3 15 C2.01 15 1.02 15 0 15 C0 10.05 0 5.1 0 0 Z " fill="#252525" transform="translate(323,456)"/>
<path d="M0 0 C2.31 0 4.62 0 7 0 C7 0.33 7 0.66 7 1 C17.23 1.33 27.46 1.66 38 2 C38 2.33 38 2.66 38 3 C25.46 3 12.92 3 0 3 C0 2.01 0 1.02 0 0 Z " fill="#99432A" transform="translate(324,419)"/>
<path d="M0 0 C-0.33 0.99 -0.66 1.98 -1 3 C-4.07617188 3.29296875 -4.07617188 3.29296875 -7.15234375 3.5859375 C-7.76207031 3.72257812 -8.37179687 3.85921875 -9 4 C-9.33 4.66 -9.66 5.32 -10 6 C-12.475 5.01 -12.475 5.01 -15 4 C-12.63613154 0.74968087 -9.74303696 0.17741981 -6.03515625 -0.765625 C-3.76732882 -1.02679515 -2.16439531 -0.67788667 0 0 Z " fill="#CA4522" transform="translate(349,273)"/>
<path d="M0 0 C4.52705337 3.14378706 6.58004469 6.16008937 9 11 C9 11.66 9 12.32 9 13 C9.66 13 10.32 13 11 13 C10.67 14.32 10.34 15.64 10 17 C8.62437146 15.71034824 7.29233607 14.37310707 6 13 C6 12.34 6 11.68 6 11 C5.34 11 4.68 11 4 11 C3.67 11.66 3.34 12.32 3 13 C2.87625 12.154375 2.7525 11.30875 2.625 10.4375 C1.97229673 6.84763202 1.04752537 3.49175125 0 0 Z " fill="#E9C0B7" transform="translate(150,201)"/>
<path d="M0 0 C6.42210386 -0.48468708 6.42210386 -0.48468708 8.9375 1.625 C10.25066255 4.56030453 10.21691118 6.81863606 10 10 C9.01 10.33 8.02 10.66 7 11 C6.38125 9.39125 6.38125 9.39125 5.75 7.75 C4.36260851 4.47734926 2.72000092 2.34482838 0 0 Z " fill="#141414" transform="translate(284,455)"/>
<path d="M0 0 C3.80804192 1.26934731 5.38051141 2.97751317 8 6 C9.3125 9.3125 9.3125 9.3125 10 12 C9.34 12.66 8.68 13.32 8 14 C8 13.34 8 12.68 8 12 C7.34 12 6.68 12 6 12 C4.4921875 10.390625 4.4921875 10.390625 2.875 8.25 C2.33617187 7.55390625 1.79734375 6.8578125 1.2421875 6.140625 C0 4 0 4 0 0 Z " fill="#E6A99C" transform="translate(150,225)"/>
<path d="M0 0 C0.99 0 1.98 0 3 0 C3 0.763125 3 1.52625 3 2.3125 C3.70180149 5.1006883 3.70180149 5.1006883 5.84765625 6 C7.88309495 6.74668651 9.91262742 7.41515529 12 8 C12 8.33 12 8.66 12 9 C10.39667209 9.08121924 8.79215974 9.13929134 7.1875 9.1875 C6.29417969 9.22230469 5.40085937 9.25710938 4.48046875 9.29296875 C2 9 2 9 0.19140625 7.65234375 C-1.45553169 5.36822982 -1.28918248 3.74723353 -1 1 C-0.67 0.67 -0.34 0.34 0 0 Z " fill="#474747" transform="translate(307,462)"/>
<path d="M0 0 C7.35769569 -0.25816476 13.18993974 1.11088353 20 4 C20 4.66 20 5.32 20 6 C13.17576662 4.76583013 6.60632156 3.1084005 0 1 C0 0.67 0 0.34 0 0 Z M14 0 C16 1 16 1 16 1 Z " fill="#CA5E46" transform="translate(222,283)"/>
<path d="M0 0 C-3 2 -3 2 -7 2 C-7 2.66 -7 3.32 -7 4 C-13.38226945 4.82351864 -19.56744599 5.12086218 -26 5 C-26 4.67 -26 4.34 -26 4 C-25.16597656 3.89042969 -24.33195312 3.78085937 -23.47265625 3.66796875 C-17.33600291 2.80335436 -11.66009027 1.82011334 -5.90234375 -0.51171875 C-3.60855579 -1.10047336 -2.22131232 -0.73713928 0 0 Z " fill="#CB6F55" transform="translate(337,275)"/>
<path d="M0 0 C0.71671875 0.37640625 1.4334375 0.7528125 2.171875 1.140625 C1.12312502 3.76249994 0.52256187 4.93433861 -1.953125 6.390625 C-2.571875 6.638125 -3.190625 6.885625 -3.828125 7.140625 C-3.828125 5.820625 -3.828125 4.500625 -3.828125 3.140625 C-4.488125 2.810625 -5.148125 2.480625 -5.828125 2.140625 C-6.158125 3.130625 -6.488125 4.120625 -6.828125 5.140625 C-9.138125 5.470625 -11.448125 5.800625 -13.828125 6.140625 C-12.45538115 3.39513729 -10.77613572 2.81147088 -8.078125 1.390625 C-7.21703125 0.92140625 -6.3559375 0.4521875 -5.46875 -0.03125 C-2.828125 -0.859375 -2.828125 -0.859375 0 0 Z " fill="#D47A67" transform="translate(362.828125,263.859375)"/>
<path d="M0 0 C3 1 3 1 4.1875 2.8125 C5 5 5 5 5 9 C5.639375 9.185625 6.27875 9.37125 6.9375 9.5625 C9 11 9 11 9.75 14.625 C9.87375 16.295625 9.87375 16.295625 10 18 C7.42007542 14.92393608 5.04306797 11.73038907 2.75 8.4375 C2.22921875 7.69371094 1.7084375 6.94992188 1.171875 6.18359375 C0 4 0 4 0 0 Z " fill="#EACBC3" transform="translate(140,210)"/>
<path d="M0 0 C0.66 0 1.32 0 2 0 C2.33 2.31 2.66 4.62 3 7 C-0.63 7 -4.26 7 -8 7 C-8.33 7.66 -8.66 8.32 -9 9 C-9.33 7.68 -9.66 6.36 -10 5 C-6.7169902 3.3584951 -3.57454967 4.48111376 0 5 C0 3.35 0 1.7 0 0 Z " fill="#111111" transform="translate(239,457)"/>
<path d="M0 0 C2.64 0 5.28 0 8 0 C7.01 0.33 6.02 0.66 5 1 C4.67 1.99 4.34 2.98 4 4 C3.34 4 2.68 4 2 4 C2 7.3 2 10.6 2 14 C1.34 14 0.68 14 0 14 C0 9.38 0 4.76 0 0 Z " fill="#0C0C0C" transform="translate(181,456)"/>
<path d="M0 0 C1.13615308 3.77650882 0.62179534 5.39601036 -1 9 C-1.35169068 10.32860925 -1.68770276 11.66158328 -2 13 C-3.22934015 16.68802044 -4.93859378 17.72356973 -8 20 C-7.35014905 15.28629244 -5.48438608 11.42313556 -3.4375 7.1875 C-2.9434668 6.14819336 -2.9434668 6.14819336 -2.43945312 5.08789062 C-1.63127749 3.38955052 -0.81631623 1.69444231 0 0 Z " fill="#B77561" transform="translate(329,341)"/>
<path d="M0 0 C0.99 0 1.98 0 3 0 C2.67 1.32 2.34 2.64 2 4 C-8.56 4 -19.12 4 -30 4 C-30 3.67 -30 3.34 -30 3 C-20.1 3 -10.2 3 0 3 C0 2.01 0 1.02 0 0 Z " fill="#C49185" transform="translate(272,419)"/>
<path d="M0 0 C2.97 0.495 2.97 0.495 6 1 C6.33 1.99 6.66 2.98 7 4 C3.36576791 6.32590854 0.22911669 6.16265833 -4 6 C-4 5.34 -4 4.68 -4 4 C-3.34 4 -2.68 4 -2 4 C-1.34 2.68 -0.68 1.36 0 0 Z " fill="#D0421F" transform="translate(314,281)"/>
<path d="M0 0 C0.66 0 1.32 0 2 0 C3.03040167 2.28779038 4.04952018 4.57951136 5.0625 6.875 C5.50432617 7.85146484 5.50432617 7.85146484 5.95507812 8.84765625 C6.69661513 10.54010541 7.35439001 12.26868575 8 14 C7.67 14.66 7.34 15.32 7 16 C6.38125 15.05125 5.7625 14.1025 5.125 13.125 C3.18029031 10.05554891 3.18029031 10.05554891 1 8 C0.01 8.495 0.01 8.495 -1 9 C-0.67 6.03 -0.34 3.06 0 0 Z " fill="#BA6F60" transform="translate(275,342)"/>
<path d="M0 0 C4.62 0 9.24 0 14 0 C14 1.32 14 2.64 14 4 C11.36 4.33 8.72 4.66 6 5 C6.33 4.01 6.66 3.02 7 2 C4.69 1.67 2.38 1.34 0 1 C0 0.67 0 0.34 0 0 Z " fill="#4E4E4E" transform="translate(97,330)"/>
<path d="M0 0 C3.3 0 6.6 0 10 0 C10 1.32 10 2.64 10 4 C7.09399739 5.25664978 5.20395416 6 2 6 C2 6.66 2 7.32 2 8 C1.34 8 0.68 8 0 8 C0 7.01 0 6.02 0 5 C1.32 5 2.64 5 4 5 C4 4.01 4 3.02 4 2 C2.68 1.34 1.36 0.68 0 0 Z " fill="#C48775" transform="translate(347,330)"/>
<path d="M0 0 C4.18865681 0.76084588 8.22484795 1.87822698 12.3125 3.0625 C14.19388672 3.60583984 14.19388672 3.60583984 16.11328125 4.16015625 C17.54220703 4.57587891 17.54220703 4.57587891 19 5 C19 5.66 19 6.32 19 7 C15.01738837 6.46180924 11.14416527 5.60237919 7.25 4.625 C6.30640625 4.39039063 5.3628125 4.15578125 4.390625 3.9140625 C2 3 2 3 0 0 Z " fill="#CC785E" transform="translate(233,272)"/>
<path d="M0 0 C0.33 0 0.66 0 1 0 C1.24929611 4.23803394 1.31340617 7.97620652 0.0625 12.0625 C-2.44399289 14.41708423 -3.3370582 14.29142804 -6.6875 14.3125 C-8.12652893 14.23217143 -9.56510191 14.13536774 -11 14 C-8.35603236 11.35603236 -5.42496181 10.43225676 -2 9 C-0.50256881 7.50256881 -0.66797307 6.01175761 -0.4375 3.9375 C-0.293125 2.638125 -0.14875 1.33875 0 0 Z " fill="#5D5D5D" transform="translate(173,457)"/>
<path d="M0 0 C4.01636782 0.22734157 6.32292551 0.42709081 9.4375 3.0625 C10.2109375 4.0215625 10.2109375 4.0215625 11 5 C7.58012972 5 5.05491313 4.52745657 2 3 C1.67 3.66 1.34 4.32 1 5 C0.34 3.68 -0.32 2.36 -1 1 C-0.67 0.67 -0.34 0.34 0 0 Z " fill="#CF5E42" transform="translate(184,246)"/>
<path d="M0 0 C2.0625 0.4375 2.0625 0.4375 4 1 C2.4375 3.5 2.4375 3.5 0 6 C-3.75 6.3125 -3.75 6.3125 -7 6 C-7.33 5.01 -7.66 4.02 -8 3 C-6.865625 2.690625 -5.73125 2.38125 -4.5625 2.0625 C-1.21224901 1.37075469 -1.21224901 1.37075469 0 0 Z " fill="#B4563E" transform="translate(336,415)"/>
<path d="M0 0 C-0.6875 2.4375 -0.6875 2.4375 -2 5 C-4.625 5.8125 -4.625 5.8125 -7 6 C-7 4.35 -7 2.7 -7 1 C-4.50935112 0.31292445 -2.62113708 0 0 0 Z " fill="#575757" transform="translate(339,472)"/>
<path d="M0 0 C7.75 -0.125 7.75 -0.125 10 1 C10 2.65 10 4.3 10 6 C9.46375 5.71125 8.9275 5.4225 8.375 5.125 C5.64719516 3.83288192 2.87387282 2.91441408 0 2 C0 1.34 0 0.68 0 0 Z " fill="#454545" transform="translate(164,450)"/>
<path d="M0 0 C0.66 0 1.32 0 2 0 C2.31563182 5.26053037 1.66590937 8.44573816 -1 13 C-2.32 12.67 -3.64 12.34 -5 12 C-4.01 11.67 -3.02 11.34 -2 11 C-1.34 7.37 -0.68 3.74 0 0 Z " fill="#BE7D6D" transform="translate(254,405)"/>
<path d="M0 0 C0.66 0.99 1.32 1.98 2 3 C1.649375 3.61875 1.29875 4.2375 0.9375 4.875 C0.4734375 5.926875 0.4734375 5.926875 0 7 C0.33 7.66 0.66 8.32 1 9 C0.34 9 -0.32 9 -1 9 C-1.33 9.99 -1.66 10.98 -2 12 C-2.99 12 -3.98 12 -5 12 C-5 11.34 -5 10.68 -5 10 C-4.34 10 -3.68 10 -3 10 C-2.87625 9.278125 -2.7525 8.55625 -2.625 7.8125 C-2.0095069 5.04278106 -1.11555626 2.6029646 0 0 Z " fill="#B66D57" transform="translate(320,361)"/>
<path d="M0 0 C1.32 0.66 2.64 1.32 4 2 C1.66488517 4.87398748 0.62568199 5.92491816 -3.125 6.375 C-6 6 -6 6 -8 4 C-6.865625 3.71125 -5.73125 3.4225 -4.5625 3.125 C-3.386875 2.75375 -2.21125 2.3825 -1 2 C-0.67 1.34 -0.34 0.68 0 0 Z " fill="#C64C2D" transform="translate(357,266)"/>
<path d="M0 0 C4.61513112 1.31860889 8.09897612 3.21355437 12 6 C11.67 6.99 11.34 7.98 11 9 C8.28775382 7.38731308 5.62647188 5.75098126 3 4 C3 3.34 3 2.68 3 2 C2.01 1.67 1.02 1.34 0 1 C0 0.67 0 0.34 0 0 Z " fill="#CF735E" transform="translate(174,254)"/>
<path d="M0 0 C3 1 3 1 4.38671875 3.28515625 C4.81597656 4.20167969 5.24523437 5.11820312 5.6875 6.0625 C6.34298828 7.44115234 6.34298828 7.44115234 7.01171875 8.84765625 C7.33785156 9.55792969 7.66398437 10.26820313 8 11 C7.01 12.485 7.01 12.485 6 14 C4.99770632 11.85521084 3.99807145 9.70925278 3 7.5625 C2.1646875 5.77005859 2.1646875 5.77005859 1.3125 3.94140625 C0 1 0 1 0 0 Z " fill="#B36857" transform="translate(284,393)"/>
<path d="M0 0 C3.63 0.33 7.26 0.66 11 1 C6.577168 4.317124 5.28089024 4.30466674 0 4 C0 2.68 0 1.36 0 0 Z " fill="#A04C34" transform="translate(249,330)"/>
<path d="M0 0 C2 2 2 2 2.1953125 4.1640625 C2.16050781 5.38222656 2.16050781 5.38222656 2.125 6.625 C2.10695313 7.44226563 2.08890625 8.25953125 2.0703125 9.1015625 C2.04710937 9.72804688 2.02390625 10.35453125 2 11 C2.99 11.33 3.98 11.66 5 12 C4.34 12.66 3.68 13.32 3 14 C1.51171875 12.85546875 1.51171875 12.85546875 0 11 C-0.29296875 8.30078125 -0.29296875 8.30078125 -0.1875 5.3125 C-0.16042969 4.31863281 -0.13335937 3.32476562 -0.10546875 2.30078125 C-0.07066406 1.54152344 -0.03585937 0.78226562 0 0 Z " fill="#B56955" transform="translate(261,405)"/>
<path d="M0 0 C1.32 0.33 2.64 0.66 4 1 C2.02 3.97 2.02 3.97 0 7 C-0.99 6.67 -1.98 6.34 -3 6 C-3.6875 3.9375 -3.6875 3.9375 -4 2 C-2.68 2 -1.36 2 0 2 C0 1.34 0 0.68 0 0 Z " fill="#CD4220" transform="translate(330,277)"/>
<path d="M0 0 C-1.04874998 2.62187494 -1.64931313 3.79371361 -4.125 5.25 C-4.74375 5.4975 -5.3625 5.745 -6 6 C-6 6.66 -6 7.32 -6 8 C-6.66 8 -7.32 8 -8 8 C-8 7.34 -8 6.68 -8 6 C-8.66 5.67 -9.32 5.34 -10 5 C-8.71186658 4.16121545 -7.41936744 3.32913217 -6.125 2.5 C-5.40570313 2.0359375 -4.68640625 1.571875 -3.9453125 1.09375 C-2 0 -2 0 0 0 Z " fill="#C8897B" transform="translate(381,252)"/>
<path d="M0 0 C1.32 0.33 2.64 0.66 4 1 C4.33 2.98 4.66 4.96 5 7 C4.01 7 3.02 7 2 7 C0 5 0 5 -0.125 2.375 C-0.08375 1.59125 -0.0425 0.8075 0 0 Z " fill="#A43A1A" transform="translate(291,403)"/>
<path d="M0 0 C-0.1875 2.375 -0.1875 2.375 -1 5 C-3.5625 6.3125 -3.5625 6.3125 -6 7 C-6 4 -6 4 -5 2 C-2 0 -2 0 0 0 Z " fill="#A83717" transform="translate(308,401)"/>
<path d="M0 0 C0.66 0.66 1.32 1.32 2 2 C1.625 4.125 1.625 4.125 1 6 C0.34 6 -0.32 6 -1 6 C-1.33 6.99 -1.66 7.98 -2 9 C-2.33 6.69 -2.66 4.38 -3 2 C-2.01 1.34 -1.02 0.68 0 0 Z " fill="#A8381A" transform="translate(314,385)"/>
<path d="M0 0 C4.95 1.98 4.95 1.98 10 4 C6.16380575 4.95904856 4.67568464 4.91892116 1 4 C0.67 2.68 0.34 1.36 0 0 Z " fill="#CD6D59" transform="translate(222,267)"/>
<path d="M0 0 C-0.25 1.875 -0.25 1.875 -1 4 C-3.0625 5.25 -3.0625 5.25 -5 6 C-5.33 4.68 -5.66 3.36 -6 2 C-2.25 0 -2.25 0 0 0 Z " fill="#C66B54" transform="translate(373,258)"/>
<path d="M0 0 C0.99 0.33 1.98 0.66 3 1 C3.33 1.99 3.66 2.98 4 4 C-0.75 5 -0.75 5 -3 5 C-1.125 1.125 -1.125 1.125 0 0 Z " fill="#DF9B8A" transform="translate(167,225)"/>
<path d="M0 0 C0.66 1.32 1.32 2.64 2 4 C0.625 5.5 0.625 5.5 -1 7 C-1.66 7 -2.32 7 -3 7 C-3.33 6.01 -3.66 5.02 -4 4 C-3.67 3.34 -3.34 2.68 -3 2 C-2.34 2 -1.68 2 -1 2 C-0.67 1.34 -0.34 0.68 0 0 Z " fill="#AA391B" transform="translate(282,363)"/>
<path d="M0 0 C1.9375 0.5625 1.9375 0.5625 4 2 C4.75 5.625 4.75 5.625 5 9 C0.57142857 3.85714286 0.57142857 3.85714286 0 0 Z " fill="#E8BDB5" transform="translate(145,219)"/>
<path d="M0 0 C0.99 0 1.98 0 3 0 C3 1.65 3 3.3 3 5 C1.68 5 0.36 5 -1 5 C-0.67 3.35 -0.34 1.7 0 0 Z " fill="#4F4F4F" transform="translate(273,449)"/>
<path d="M0 0 C2 2 2 2 2 5 C1.34 5 0.68 5 0 5 C-0.33 6.32 -0.66 7.64 -1 9 C-1.66 9 -2.32 9 -3 9 C-2.01 6.03 -1.02 3.06 0 0 Z " fill="#B56654" transform="translate(309,385)"/>
<path d="M0 0 C0.99 0.33 1.98 0.66 3 1 C3 1.66 3 2.32 3 3 C-0.69418201 4.231394 -3.2056261 3.64432764 -7 3 C-6.67 2.34 -6.34 1.68 -6 1 C-4.7934375 1.0309375 -4.7934375 1.0309375 -3.5625 1.0625 C-1.06645115 1.29633621 -1.06645115 1.29633621 0 0 Z " fill="#858585" transform="translate(240,466)"/>
<path d="M0 0 C2.31 0 4.62 0 7 0 C7.33 0.66 7.66 1.32 8 2 C7.01 2.495 7.01 2.495 6 3 C5.67 3.66 5.34 4.32 5 5 C3.35 3.35 1.7 1.7 0 0 Z " fill="#7D7D7D" transform="translate(284,455)"/>
<path d="M0 0 C0 0.33 0 0.66 0 1 C-1.65 1 -3.3 1 -5 1 C-5.33 2.32 -5.66 3.64 -6 5 C-6.33 4.34 -6.66 3.68 -7 3 C-8.32 3.33 -9.64 3.66 -11 4 C-8.74499851 -0.51000297 -4.55950767 -0.20725035 0 0 Z " fill="#8B8B8B" transform="translate(169,449)"/>
<path d="M0 0 C0.99 0.33 1.98 0.66 3 1 C3 2.32 3 3.64 3 5 C1.68 5 0.36 5 -1 5 C-0.67 3.35 -0.34 1.7 0 0 Z " fill="#535353" transform="translate(206,449)"/>
<path d="M0 0 C1 3 1 3 -0.4375 6.1875 C-1.2109375 7.5796875 -1.2109375 7.5796875 -2 9 C-2.33 9 -2.66 9 -3 9 C-3 6.69 -3 4.38 -3 2 C-2.01 2 -1.02 2 0 2 C0 1.34 0 0.68 0 0 Z " fill="#B66A4F" transform="translate(324,370)"/>
<path d="M0 0 C0.66 0 1.32 0 2 0 C2.75 2.25 2.75 2.25 3 5 C1.0625 7.3125 1.0625 7.3125 -1 9 C-0.67 6.03 -0.34 3.06 0 0 Z " fill="#B2614C" transform="translate(275,342)"/>
<path d="M0 0 C2.375 -0.1875 2.375 -0.1875 5 0 C7 3 7 3 6.625 5.1875 C6.41875 5.785625 6.2125 6.38375 6 7 C5.67 6.01 5.34 5.02 5 4 C3.35857037 2.9590934 1.69287785 1.95495674 0 1 C0 0.67 0 0.34 0 0 Z " fill="#C1856F" transform="translate(266,330)"/>
<path d="M0 0 C1 2 2 4 3 6 C2.34 6.66 1.68 7.32 1 8 C1 7.34 1 6.68 1 6 C0.34 6 -0.32 6 -1 6 C-1.625 4.125 -1.625 4.125 -2 2 C-1.34 1.34 -0.68 0.68 0 0 Z " fill="#DE9A8C" transform="translate(157,231)"/>
<path d="M0 0 C1.43088528 2.86177057 0.59991697 4.93375773 0 8 C-0.99 8 -1.98 8 -3 8 C-1.125 1.125 -1.125 1.125 0 0 Z " fill="#0A0A0A" transform="translate(159,454)"/>
<path d="M0 0 C2.475 0.99 2.475 0.99 5 2 C4.34 2.66 3.68 3.32 3 4 C1.68 4 0.36 4 -1 4 C-0.67 2.68 -0.34 1.36 0 0 Z " fill="#CB6047" transform="translate(325,282)"/>
<path d="M0 0 C6.0546875 -0.1953125 6.0546875 -0.1953125 8 0 C8.66 0.66 9.32 1.32 10 2 C6.18510326 3.46726798 3.70988378 2.43336419 0 1 C0 0.67 0 0.34 0 0 Z " fill="#CD6D53" transform="translate(222,283)"/>
<path d="M0 0 C-0.33 0.99 -0.66 1.98 -1 3 C-3.31 3.33 -5.62 3.66 -8 4 C-6.27302455 0.54604909 -3.70696841 0 0 0 Z " fill="#CD7362" transform="translate(357,266)"/>
</svg>
